<svg width="24" height="24" viewBox="0 0 24 24" fill="none" xmlns="http://www.w3.org/2000/svg">
<g clip-path="url(#clip0_6121_25454)">
<g clip-path="url(#clip1_6121_25454)">
<g clip-path="url(#clip2_6121_25454)">
<path d="M11.9999 3.52659V3.00059H8.88191C8.50523 2.99269 8.1311 3.06424 7.78391 3.21059C7.43106 3.36017 7.11253 3.58035 6.84791 3.85759C6.57697 4.14021 6.36396 4.47314 6.22091 4.83759C5.92571 5.58413 5.92571 6.41505 6.22091 7.16159C6.36396 7.52604 6.57697 7.85897 6.84791 8.14159C7.11591 8.42159 7.43391 8.64159 7.78391 8.78759C8.13391 8.93559 8.50691 9.00759 8.88191 8.99859H11.9999V3.52659Z" stroke="#F8FAFC" style="stroke:#F8FAFC;stroke:color(display-p3 0.9724 0.9787 0.9876);stroke-opacity:1;"/>
<path d="M12 15H8.85302C8.09602 15 7.37102 14.684 6.83602 14.121C6.30002 13.559 6.00002 12.796 6.00002 12C5.99714 11.2121 6.29632 10.453 6.83602 9.879C7.37102 9.316 8.09602 9 8.85302 9H12V9.526V15ZM12 15V15.527V15.526V17.846C12.0025 18.6758 11.6847 19.4746 11.113 20.076C10.545 20.668 9.77502 21 8.97202 21H8.82402C8.4475 20.9908 8.07661 20.9065 7.73315 20.7519C7.38969 20.5974 7.08059 20.3757 6.82402 20.1C6.29602 19.54 6.00002 18.785 6.00002 18C5.99766 17.2209 6.29191 16.4701 6.82302 15.9C7.07959 15.6243 7.38869 15.4026 7.73215 15.2481C8.07561 15.0935 8.4465 15.0092 8.82302 15H12Z" stroke="#F8FAFC" style="stroke:#F8FAFC;stroke:color(display-p3 0.9724 0.9787 0.9876);stroke-opacity:1;"/>
<path d="M15.147 9C15.904 9 16.629 9.316 17.164 9.879C17.7037 10.453 18.0029 11.2121 18 12C18 12.796 17.7 13.559 17.164 14.121C16.9052 14.3969 16.5928 14.6171 16.246 14.7682C15.8993 14.9193 15.5253 14.9982 15.147 15H14.853C14.4747 14.9982 14.1008 14.9193 13.754 14.7682C13.4072 14.6171 13.0949 14.3969 12.836 14.121C12.2963 13.547 11.9971 12.7879 12 12C12 11.204 12.3 10.441 12.836 9.879C13.0949 9.60314 13.4072 9.38292 13.754 9.23179C14.1008 9.08066 14.4747 9.00179 14.853 9H15.147Z" stroke="#F8FAFC" style="stroke:#F8FAFC;stroke:color(display-p3 0.9724 0.9787 0.9876);stroke-opacity:1;"/>
<path d="M12 3.5266V3.0006H15.118C15.4947 2.99264 15.8688 3.06419 16.216 3.2106C16.566 3.3586 16.884 3.5776 17.152 3.8576C17.4229 4.14022 17.6359 4.47315 17.779 4.8376C18.0741 5.58416 18.0741 6.41504 17.779 7.1616C17.6356 7.52586 17.4226 7.85872 17.152 8.1416C16.884 8.4216 16.566 8.6416 16.216 8.7876C15.866 8.9356 15.493 9.0076 15.118 8.9986H12V3.5266Z" stroke="#F8FAFC" style="stroke:#F8FAFC;stroke:color(display-p3 0.9724 0.9787 0.9876);stroke-opacity:1;"/>
</g>
</g>
</g>
<defs>
<clipPath id="clip0_6121_25454">
<rect width="24" height="24" fill="white" style="fill:white;fill-opacity:1;"/>
</clipPath>
<clipPath id="clip1_6121_25454">
<rect width="24" height="24" fill="white" style="fill:white;fill-opacity:1;"/>
</clipPath>
<clipPath id="clip2_6121_25454">
<rect width="24" height="24" fill="white" style="fill:white;fill-opacity:1;"/>
</clipPath>
</defs>
</svg>
