<svg width="=24" height="24" viewBox="0 0 33 31" fill="none" xmlns="http://www.w3.org/2000/svg">
<path d="M2.17834 26V3.6H7.07834C8.21701 3.6 9.18068 3.747 9.96934 4.041C10.7627 4.335 11.374 4.846 11.8033 5.574C12.2327 6.29733 12.4707 7.30533 12.5173 8.598C12.5453 9.50333 12.5593 10.334 12.5593 11.09C12.564 11.8413 12.55 12.637 12.5173 13.477C12.4707 14.765 12.2327 15.773 11.8033 16.501C11.374 17.229 10.765 17.74 9.97634 18.034C9.18768 18.328 8.22168 18.475 7.07834 18.475H5.79034V26H5.06934V17.845H7.07834C8.05834 17.845 8.89134 17.719 9.57734 17.467C10.2633 17.2103 10.793 16.7647 11.1663 16.13C11.5443 15.4907 11.7543 14.6017 11.7963 13.463C11.815 12.9217 11.829 12.399 11.8383 11.895C11.8477 11.391 11.8477 10.873 11.8383 10.341C11.8337 9.809 11.8197 9.235 11.7963 8.619C11.759 7.47567 11.5513 6.58667 11.1733 5.952C10.7953 5.31733 10.2633 4.87167 9.57734 4.615C8.89134 4.35833 8.05834 4.23 7.07834 4.23H2.89934V26H2.17834ZM3.62034 26V4.86H7.07834C7.89968 4.86 8.59968 4.96733 9.17834 5.182C9.76168 5.39667 10.2143 5.77933 10.5363 6.33C10.8583 6.876 11.038 7.64367 11.0753 8.633C11.108 9.53833 11.122 10.3597 11.1173 11.097C11.1173 11.8297 11.1033 12.6137 11.0753 13.449C11.038 14.4337 10.8583 15.2013 10.5363 15.752C10.2143 16.298 9.76168 16.6807 9.17834 16.9C8.59501 17.1147 7.89501 17.222 7.07834 17.222H4.34834V26H3.62034ZM4.34834 16.592H7.07834C8.10968 16.592 8.90068 16.3703 9.45134 15.927C10.002 15.479 10.3007 14.646 10.3473 13.428C10.3707 12.868 10.3847 12.343 10.3893 11.853C10.3987 11.363 10.3987 10.8613 10.3893 10.348C10.3847 9.83 10.3707 9.263 10.3473 8.647C10.31 7.50367 10.0323 6.69167 9.51434 6.211C9.00101 5.72567 8.18901 5.483 7.07834 5.483H4.34834V16.592ZM5.06934 15.962V6.113H7.07834C7.89501 6.113 8.51568 6.29733 8.94034 6.666C9.36501 7.03 9.59368 7.695 9.62634 8.661C9.64968 9.27233 9.66368 9.83467 9.66834 10.348C9.67768 10.8567 9.67768 11.356 9.66834 11.846C9.66368 12.336 9.64968 12.8587 9.62634 13.414C9.59368 14.38 9.36501 15.0473 8.94034 15.416C8.51568 15.78 7.89501 15.962 7.07834 15.962H5.06934ZM5.79034 15.332H7.07834C7.61501 15.332 8.04668 15.2037 8.37334 14.947C8.70468 14.6903 8.88434 14.1513 8.91234 13.33C8.94034 12.644 8.95434 11.8927 8.95434 11.076C8.95434 10.2593 8.94034 9.48233 8.91234 8.745C8.88434 7.92833 8.70701 7.39167 8.38034 7.135C8.05368 6.87367 7.61968 6.743 7.07834 6.743H5.79034V15.332ZM14.961 26V3.6H21.037L22.339 14.744L23.2 23.095H23.55L24.411 14.744L25.671 3.6H31.789V26H31.068V4.181H26.294L25.027 15.199L24.103 23.676H22.647L21.73 15.192L20.407 4.181H15.682V26H14.961ZM17.922 26L17.782 17.103L17.243 5.924H18.692L20.015 17.089L20.932 25.419H25.818L26.735 17.082L28.051 5.924H29.514L28.968 17.103L28.828 26H28.107L28.247 17.684L28.884 6.505H28.59L27.358 17.677L26.469 26H20.281L19.392 17.677L18.16 6.505H17.866L18.503 17.684L18.643 26H17.922ZM16.403 26L16.333 15.78L16.102 4.762H19.826L21.17 15.64L22.045 24.257H24.656L25.58 15.64L26.945 4.762H30.648L30.417 15.78L30.347 26H29.626L29.696 16.536L29.976 5.343H27.547L26.182 16.403L25.237 24.838H21.464L20.575 16.403L19.224 5.343H16.774L17.061 16.536L17.131 26H16.403Z" fill="white"/>
</svg>
