<svg width="24" height="24" viewBox="0 0 38 23" fill="none" xmlns="http://www.w3.org/2000/svg">
<path d="M6.36 10.068H8.768C9.888 10.068 10.812 9.144 10.812 8.024C10.812 6.904 9.888 5.98 8.768 5.98H3V2.592H8.768C11.736 2.592 14.2 5.028 14.2 8.024C14.2 10.18 12.912 12.056 11.092 12.924C10.392 13.26 9.58 13.456 8.768 13.456H7.452H6.36V19H3V13.456V10.068H6.36ZM20.4967 10.264L17.1367 7.184V2.592L20.4967 5.7L25.4247 10.208L30.3527 5.7L33.7407 2.592V19H30.3527V10.264L25.4247 14.772L20.4967 10.264ZM20.4967 14.52L17.1367 11.44V19H20.4967V14.52Z" fill="white"/>
</svg>
