<svg width="96" height="96" viewBox="0 0 454 44" fill="none" xmlns="http://www.w3.org/2000/svg">
<g clip-path="url(#clip0_3261_104)">
<path d="M14.2 20.86H19.36C21.76 20.86 23.74 18.88 23.74 16.48C23.74 14.08 21.76 12.1 19.36 12.1H7V4.84H19.36C25.72 4.84 31 10.06 31 16.48C31 21.1 28.24 25.12 24.34 26.98C22.84 27.7 21.1 28.12 19.36 28.12H16.54H14.2V40H7V28.12V20.86H14.2ZM36.093 28.12V20.86H48.453C50.853 20.86 52.833 18.88 52.833 16.48C52.833 14.08 50.853 12.1 48.453 12.1H36.093V4.84H48.453C54.813 4.84 60.093 10.06 60.093 16.48C60.093 21.1 57.333 25.12 53.433 26.98L61.233 40H52.773L45.633 28.12H36.093ZM83.0378 15.34L74.0378 40.06L66.3578 40L79.1378 4.78H86.8778L99.7178 40L91.9778 40.06L83.0378 15.34ZM125.046 19.6L128.946 30.22L138.186 4.78H130.446L125.046 19.6ZM113.766 29.44L109.926 18.82L104.826 4.78H112.506L117.006 17.08L121.506 29.44L125.346 40H117.606L113.766 29.44ZM143.294 40V32.8H168.434V40H143.294ZM143.294 26.08V18.82H168.434V26.08H143.294ZM143.294 12.1V4.84H168.434V12.1H143.294ZM173.559 40V32.8H198.699V40H173.559ZM173.559 26.08V18.82H198.699V26.08H173.559ZM173.559 12.1V4.84H198.699V12.1H173.559ZM227.763 4.84H235.023V30.64V40L203.823 14.2V4.84L227.763 24.64V4.84ZM211.023 28.96L203.823 22.96V40H211.023V28.96ZM267.686 21.28L260.486 14.68V4.84L267.686 11.5L278.246 21.16L288.806 11.5L296.066 4.84V40H288.806V21.28L278.246 30.94L267.686 21.28ZM267.686 30.4L260.486 23.8V40H267.686V30.4ZM317.86 15.34L308.86 40.06L301.18 40L313.96 4.78H321.7L334.54 40L326.8 40.06L317.86 15.34ZM363.588 4.84H370.848V30.64V40L339.648 14.2V4.84L363.588 24.64V4.84ZM346.848 28.96L339.648 22.96V40H346.848V28.96ZM393.587 32.74H401.147V40H393.587C383.927 40 376.007 32.08 376.007 22.42C376.007 12.7 383.927 4.78 393.587 4.78H401.147V12.04H393.587C387.887 12.04 383.207 16.72 383.207 22.42C383.207 28.06 387.887 32.74 393.587 32.74ZM406.272 4.84H413.472V18.82H427.992V4.84H435.252V40H427.992V26.08H413.472H406.272V18.82V4.84ZM413.472 40V32.8H406.272V40H413.472ZM447.545 4.84V40H440.345V4.84H447.545Z" fill="white"/>
</g>
<defs>
<clipPath id="clip0_3261_104">
<rect width="441" height="37" fill="white" transform="translate(7 4)"/>
</clipPath>
</defs>
</svg>
