<svg width="200" height="45" viewBox="0 0 267 50" fill="none" xmlns="http://www.w3.org/2000/svg">
<path d="M256.197 15.6531C255.379 15.6531 254.634 15.464 253.965 15.0859C253.307 14.6956 252.78 14.1711 252.383 13.5125C251.986 12.8416 251.788 12.0854 251.788 11.2438C251.788 10.4022 251.986 9.65204 252.383 8.99339C252.78 8.32254 253.307 7.79806 253.965 7.41994C254.634 7.02963 255.379 6.83447 256.197 6.83447C257.016 6.83447 257.754 7.02963 258.411 7.41994C259.081 7.79806 259.614 8.32254 260.011 8.99339C260.408 9.65204 260.606 10.4022 260.606 11.2438C260.606 12.0854 260.408 12.8416 260.011 13.5125C259.614 14.1711 259.081 14.6956 258.411 15.0859C257.754 15.464 257.016 15.6531 256.197 15.6531ZM256.197 15.0127C256.879 15.0127 257.499 14.8542 258.058 14.5371C258.616 14.2077 259.056 13.7625 259.379 13.2015C259.713 12.6282 259.881 11.9756 259.881 11.2438C259.881 10.512 259.713 9.8655 259.379 9.30442C259.056 8.73115 258.616 8.28595 258.058 7.96882C257.499 7.63949 256.879 7.47483 256.197 7.47483C255.527 7.47483 254.913 7.63949 254.355 7.96882C253.797 8.28595 253.351 8.73115 253.016 9.30442C252.693 9.8655 252.532 10.512 252.532 11.2438C252.532 11.9756 252.693 12.6282 253.016 13.2015C253.351 13.7625 253.797 14.2077 254.355 14.5371C254.913 14.8542 255.527 15.0127 256.197 15.0127ZM254.411 13.6406V8.79214H256.402C256.96 8.79214 257.382 8.91411 257.667 9.15805C257.965 9.402 258.113 9.74962 258.113 10.2009C258.113 10.5302 258.014 10.7986 257.816 11.0059C257.63 11.2011 257.369 11.3353 257.034 11.4085V11.445C257.344 11.4938 257.562 11.628 257.686 11.8476C257.822 12.0549 257.909 12.2867 257.946 12.5428C257.996 12.7989 258.027 13.0307 258.039 13.238C258.064 13.4332 258.12 13.5491 258.206 13.5857V13.6406H257.202C257.115 13.5796 257.065 13.4515 257.053 13.2563C257.041 13.0612 257.016 12.8538 256.979 12.6343C256.954 12.4025 256.879 12.2074 256.755 12.0488C256.631 11.8902 256.414 11.811 256.104 11.811H255.416V13.6406H254.411ZM255.416 11.0059H256.16C256.458 11.0059 256.699 10.9572 256.886 10.8596C257.072 10.762 257.165 10.5668 257.165 10.2741C257.165 9.99357 257.072 9.81061 256.886 9.72523C256.699 9.63985 256.464 9.59716 256.179 9.59716H255.416V11.0059Z" fill="#B3FF51"/>
<path d="M15.9761 29.1605H12.6037V36.8345H8.13005V12.7457H15.9761C20.8282 12.7457 25.4051 15.8085 25.4051 20.9703C25.4051 26.0978 20.8282 29.1605 15.9761 29.1605ZM12.6037 25.031H15.9761C18.0408 25.031 20.7594 23.5168 20.7594 20.9703C20.7594 18.3894 18.0408 16.8752 15.9761 16.8752H12.6037V25.031ZM39.86 19.6282V23.4136H34.0099C31.8763 23.4136 31.2225 24.446 31.2225 26.5107V36.8345H27.093V26.3387C27.093 22.0715 29.1921 19.6282 34.0099 19.6282H39.86ZM40.0404 28.2314C40.0404 22.7598 43.6881 19.1121 49.1597 19.1121C54.6313 19.1121 56.8681 22.1748 58.0037 25.8913L61.3417 36.8345H57.0402L56.1798 34.3912C54.5625 36.2495 52.1192 37.3507 49.1597 37.3507C43.6881 37.3507 40.0404 33.7029 40.0404 28.2314ZM44.342 28.2314C44.342 31.3285 46.2691 33.3932 49.1597 33.3932C52.0504 33.3932 53.9774 31.3285 53.9774 28.2314C53.9774 25.1342 52.0504 23.0695 49.1597 23.0695C46.2691 23.0695 44.342 25.1342 44.342 28.2314ZM66.1162 37.3507L58.0637 19.6282H62.5373L66.1162 27.4743L69.6951 19.6282H74.1687L66.1162 37.3507ZM86.568 30.1929H90.5254C90.5254 34.1503 87.4627 37.3507 82.3008 37.3507C76.6228 37.3507 72.9751 33.7029 72.9751 28.2314C72.9751 22.7598 76.4507 19.1121 81.6814 19.1121C86.7745 19.1121 89.6651 22.6565 89.6651 26.1666V26.4075L78.5155 31.7758C79.3758 32.7738 80.6835 33.3932 82.3008 33.3932C85.2947 33.3932 86.568 31.9135 86.568 30.1929ZM77.2766 28.1281L85.0538 24.4116C84.4 23.5857 83.0579 23.0695 81.6814 23.0695C79.0661 23.0695 77.311 25.0654 77.2766 28.1281ZM105.102 30.1929H109.06C109.06 34.1503 105.997 37.3507 100.835 37.3507C95.1569 37.3507 91.5092 33.7029 91.5092 28.2314C91.5092 22.7598 94.9848 19.1121 100.216 19.1121C105.309 19.1121 108.199 22.6565 108.199 26.1666V26.4075L97.0496 31.7758C97.9099 32.7738 99.2175 33.3932 100.835 33.3932C103.829 33.3932 105.102 31.9135 105.102 30.1929ZM95.8107 28.1281L103.588 24.4116C102.934 23.5857 101.592 23.0695 100.216 23.0695C97.6002 23.0695 95.8451 25.0654 95.8107 28.1281ZM127.594 28.1969V36.8345H123.464V28.1969C123.464 24.7901 121.778 23.0695 118.99 23.0695C116.203 23.0695 114.517 24.7901 114.517 28.1969V36.8345H110.387V28.1969C110.387 22.4156 113.966 19.1121 118.99 19.1121C124.015 19.1121 127.594 22.4156 127.594 28.1969ZM136.812 36.8345L139.565 12.4016L149.545 28.7475L159.524 12.4016L162.277 36.8345H157.804L156.496 25.5128L149.545 37.1786L142.593 25.5128L141.286 36.8345H136.812ZM162.923 28.2314C162.923 22.7598 166.571 19.1121 172.043 19.1121C177.514 19.1121 179.751 22.1748 180.887 25.8913L184.225 36.8345H179.923L179.063 34.3912C177.446 36.2495 175.002 37.3507 172.043 37.3507C166.571 37.3507 162.923 33.7029 162.923 28.2314ZM167.225 28.2314C167.225 31.3285 169.152 33.3932 172.043 33.3932C174.933 33.3932 176.861 31.3285 176.861 28.2314C176.861 25.1342 174.933 23.0695 172.043 23.0695C169.152 23.0695 167.225 25.1342 167.225 28.2314ZM202.2 28.1969V36.8345H198.071V28.1969C198.071 24.7901 196.385 23.0695 193.597 23.0695C190.81 23.0695 189.124 24.7901 189.124 28.1969V36.8345H184.994V28.1969C184.994 22.4156 188.573 19.1121 193.597 19.1121C198.622 19.1121 202.2 22.4156 202.2 28.1969ZM217.139 26.2698C217.139 24.5492 215.831 23.0695 212.734 23.0695C209.637 23.0695 208.191 25.1686 208.191 28.2314C208.191 31.0532 210.119 33.3932 213.216 33.3932C216.003 33.3932 217.173 31.9135 217.173 30.1929H221.131C221.131 34.1503 218.412 37.3507 213.216 37.3507C207.71 37.3507 203.89 33.7029 203.89 28.2314C203.89 22.7942 207.228 19.1121 212.734 19.1121C218.24 19.1121 221.096 22.3124 221.096 26.2698H217.139ZM240.016 28.2314V36.8345H235.887V28.2314C235.887 25.1342 234.51 23.0695 231.654 23.0695C228.832 23.0695 226.939 25.1342 226.939 28.2314V36.8345H222.81V12.6769H226.939V20.3509C228.35 19.4562 230.071 19.1121 231.688 19.1121C237.091 19.1121 240.016 22.7598 240.016 28.2314ZM242.386 36.8345V19.6282H246.515V36.8345H242.386ZM241.525 14.4664C241.525 12.7113 242.695 11.5413 244.45 11.5413C246.205 11.5413 247.376 12.7113 247.376 14.4664C247.376 16.2214 246.205 17.3914 244.45 17.3914C242.695 17.3914 241.525 16.2214 241.525 14.4664Z" fill="#FFB41F"/>
</svg>
