<svg width="493" height="106" viewBox="0 0 493 106" fill="none" xmlns="http://www.w3.org/2000/svg">
<g clip-path="url(#clip0_1_234)">
<rect width="492.414" height="27.757" transform="translate(0 0.8125)" fill="#0048B7"/>
<path d="M11.5298 17.3464H10.4381L13.5958 8.74659H14.6708L17.8285 17.3464H16.7367L14.1669 10.1071H14.0997L11.5298 17.3464ZM11.933 13.9871H16.3336V14.9109H11.933V13.9871ZM23.4994 10.8965L21.1143 17.3464H20.1065L17.7214 10.8965H18.7964L20.5768 16.0363H20.644L22.4244 10.8965H23.4994ZM26.5091 17.4975C26.1004 17.4975 25.7295 17.4206 25.3964 17.2666C25.0632 17.1098 24.7987 16.8845 24.6027 16.5905C24.4068 16.2938 24.3088 15.9355 24.3088 15.5156C24.3088 15.146 24.3816 14.8465 24.5272 14.617C24.6727 14.3846 24.8673 14.2026 25.1108 14.0711C25.3544 13.9395 25.6231 13.8415 25.9171 13.7771C26.2138 13.7099 26.5119 13.6568 26.8115 13.6176C27.2034 13.5672 27.5211 13.5294 27.7647 13.5042C28.011 13.4762 28.1902 13.43 28.3022 13.3656C28.4169 13.3012 28.4743 13.1893 28.4743 13.0297V12.9961C28.4743 12.5818 28.3609 12.2598 28.1342 12.0303C27.9102 11.8007 27.5701 11.686 27.1138 11.686C26.6407 11.686 26.2698 11.7895 26.001 11.9967C25.7323 12.2039 25.5433 12.425 25.4342 12.6602L24.4936 12.3242C24.6615 11.9323 24.8855 11.6272 25.1654 11.4088C25.4482 11.1877 25.7561 11.0337 26.0892 10.9469C26.4252 10.8573 26.7555 10.8126 27.0802 10.8126C27.2874 10.8126 27.5253 10.8377 27.7941 10.8881C28.0656 10.9357 28.3273 11.0351 28.5793 11.1863C28.834 11.3374 29.0454 11.5656 29.2134 11.8707C29.3813 12.1759 29.4653 12.5846 29.4653 13.0969V17.3464H28.4743V16.473H28.4239C28.3567 16.6129 28.2448 16.7627 28.088 16.9223C27.9312 17.0818 27.7227 17.2176 27.4623 17.3296C27.202 17.4416 26.8843 17.4975 26.5091 17.4975ZM26.6603 16.6073C27.0522 16.6073 27.3825 16.5303 27.6513 16.3764C27.9228 16.2224 28.1272 16.0237 28.2644 15.7801C28.4043 15.5366 28.4743 15.2804 28.4743 15.0117V14.1047C28.4323 14.155 28.3399 14.2012 28.1972 14.2432C28.0572 14.2824 27.8948 14.3174 27.7101 14.3482C27.5281 14.3762 27.3504 14.4014 27.1768 14.4238C27.006 14.4434 26.8675 14.4602 26.7611 14.4742C26.5035 14.5078 26.2628 14.5624 26.0388 14.6379C25.8177 14.7107 25.6385 14.8213 25.5013 14.9697C25.367 15.1152 25.2998 15.314 25.2998 15.566C25.2998 15.9103 25.4272 16.1706 25.6819 16.347C25.9395 16.5205 26.2656 16.6073 26.6603 16.6073ZM31.2741 17.3464V10.8965H32.2651V17.3464H31.2741ZM31.778 9.82156C31.5848 9.82156 31.4182 9.75578 31.2783 9.62421C31.1411 9.49263 31.0725 9.33447 31.0725 9.14971C31.0725 8.96495 31.1411 8.80678 31.2783 8.67521C31.4182 8.54363 31.5848 8.47785 31.778 8.47785C31.9711 8.47785 32.1363 8.54363 32.2735 8.67521C32.4134 8.80678 32.4834 8.96495 32.4834 9.14971C32.4834 9.33447 32.4134 9.49263 32.2735 9.62421C32.1363 9.75578 31.9711 9.82156 31.778 9.82156ZM35.0711 8.74659V17.3464H34.0801V8.74659H35.0711ZM38.7842 17.4975C38.3755 17.4975 38.0046 17.4206 37.6714 17.2666C37.3383 17.1098 37.0738 16.8845 36.8778 16.5905C36.6818 16.2938 36.5839 15.9355 36.5839 15.5156C36.5839 15.146 36.6566 14.8465 36.8022 14.617C36.9478 14.3846 37.1423 14.2026 37.3859 14.0711C37.6294 13.9395 37.8982 13.8415 38.1921 13.7771C38.4889 13.7099 38.787 13.6568 39.0865 13.6176C39.4784 13.5672 39.7962 13.5294 40.0397 13.5042C40.2861 13.4762 40.4652 13.43 40.5772 13.3656C40.692 13.3012 40.7494 13.1893 40.7494 13.0297V12.9961C40.7494 12.5818 40.636 12.2598 40.4092 12.0303C40.1853 11.8007 39.8452 11.686 39.3889 11.686C38.9158 11.686 38.5448 11.7895 38.2761 11.9967C38.0074 12.2039 37.8184 12.425 37.7092 12.6602L36.7686 12.3242C36.9366 11.9323 37.1605 11.6272 37.4405 11.4088C37.7232 11.1877 38.0311 11.0337 38.3643 10.9469C38.7002 10.8573 39.0305 10.8126 39.3553 10.8126C39.5624 10.8126 39.8004 10.8377 40.0691 10.8881C40.3407 10.9357 40.6024 11.0351 40.8544 11.1863C41.1091 11.3374 41.3205 11.5656 41.4884 11.8707C41.6564 12.1759 41.7404 12.5846 41.7404 13.0969V17.3464H40.7494V16.473H40.699C40.6318 16.6129 40.5198 16.7627 40.3631 16.9223C40.2063 17.0818 39.9977 17.2176 39.7374 17.3296C39.477 17.4416 39.1593 17.4975 38.7842 17.4975ZM38.9354 16.6073C39.3273 16.6073 39.6576 16.5303 39.9263 16.3764C40.1979 16.2224 40.4022 16.0237 40.5394 15.7801C40.6794 15.5366 40.7494 15.2804 40.7494 15.0117V14.1047C40.7074 14.155 40.615 14.2012 40.4722 14.2432C40.3323 14.2824 40.1699 14.3174 39.9851 14.3482C39.8032 14.3762 39.6254 14.4014 39.4518 14.4238C39.2811 14.4434 39.1425 14.4602 39.0361 14.4742C38.7786 14.5078 38.5378 14.5624 38.3139 14.6379C38.0927 14.7107 37.9136 14.8213 37.7764 14.9697C37.642 15.1152 37.5748 15.314 37.5748 15.566C37.5748 15.9103 37.7022 16.1706 37.957 16.347C38.2145 16.5205 38.5406 16.6073 38.9354 16.6073ZM43.6835 17.3464V8.74659H44.6745V11.9211H44.7585C44.8313 11.8091 44.932 11.6664 45.0608 11.4928C45.1924 11.3164 45.3799 11.1597 45.6235 11.0225C45.8698 10.8825 46.203 10.8126 46.6229 10.8126C47.166 10.8126 47.6447 10.9483 48.059 11.2199C48.4733 11.4914 48.7966 11.8763 49.029 12.3746C49.2613 12.8729 49.3775 13.4608 49.3775 14.1383C49.3775 14.8213 49.2613 15.4134 49.029 15.9145C48.7966 16.4128 48.4747 16.7991 48.0632 17.0734C47.6517 17.345 47.1772 17.4807 46.6397 17.4807C46.2254 17.4807 45.8936 17.4122 45.6445 17.275C45.3953 17.135 45.2036 16.9769 45.0692 16.8005C44.9348 16.6213 44.8313 16.473 44.7585 16.3554H44.6409V17.3464H43.6835ZM44.6577 14.1215C44.6577 14.6086 44.7291 15.0383 44.8719 15.4106C45.0146 15.7801 45.2232 16.0698 45.4975 16.2798C45.7719 16.487 46.1078 16.5905 46.5053 16.5905C46.9196 16.5905 47.2653 16.4814 47.5425 16.263C47.8224 16.0419 48.0324 15.7451 48.1724 15.3728C48.3151 14.9977 48.3865 14.5806 48.3865 14.1215C48.3865 13.668 48.3165 13.2592 48.1766 12.8953C48.0394 12.5286 47.8308 12.2389 47.5509 12.0261C47.2737 11.8105 46.9252 11.7028 46.5053 11.7028C46.1022 11.7028 45.7635 11.8049 45.4891 12.0093C45.2148 12.2109 45.0076 12.4936 44.8677 12.8575C44.7277 13.2186 44.6577 13.64 44.6577 14.1215ZM51.8844 8.74659V17.3464H50.8934V8.74659H51.8844ZM56.4037 17.4807C55.7822 17.4807 55.2461 17.3436 54.7954 17.0692C54.3475 16.7921 54.0018 16.4058 53.7582 15.9103C53.5175 15.412 53.3971 14.8325 53.3971 14.1718C53.3971 13.5112 53.5175 12.9289 53.7582 12.425C54.0018 11.9183 54.3405 11.5236 54.7744 11.2409C55.2111 10.9553 55.7206 10.8126 56.3029 10.8126C56.6388 10.8126 56.9705 10.8685 57.2981 10.9805C57.6256 11.0925 57.9237 11.2745 58.1925 11.5264C58.4612 11.7756 58.6754 12.1059 58.835 12.5174C58.9945 12.9289 59.0743 13.4356 59.0743 14.0375V14.4574H54.1026V13.6008H58.0665C58.0665 13.2368 57.9937 12.9121 57.8482 12.6266C57.7054 12.341 57.501 12.1157 57.2351 11.9505C56.9719 11.7853 56.6612 11.7028 56.3029 11.7028C55.9082 11.7028 55.5666 11.8007 55.2783 11.9967C54.9928 12.1899 54.773 12.4418 54.619 12.7525C54.4651 13.0633 54.3881 13.3964 54.3881 13.7519V14.323C54.3881 14.8101 54.4721 15.223 54.64 15.5618C54.8108 15.8977 55.0474 16.1538 55.3497 16.3302C55.652 16.5038 56.0033 16.5905 56.4037 16.5905C56.664 16.5905 56.8992 16.5541 57.1091 16.4814C57.3219 16.4058 57.5052 16.2938 57.6592 16.1454C57.8132 15.9943 57.9321 15.8067 58.0161 15.5827L58.9735 15.8515C58.8727 16.1762 58.7034 16.4618 58.4654 16.7081C58.2275 16.9517 57.9335 17.142 57.5836 17.2792C57.2337 17.4136 56.8404 17.4807 56.4037 17.4807ZM66.7797 10.8965V11.7364H63.3028V10.8965H66.7797ZM64.3442 17.3464V10.0063C64.3442 9.6368 64.431 9.32887 64.6045 9.08252C64.7781 8.83617 65.0034 8.65141 65.2806 8.52824C65.5577 8.40506 65.8503 8.34348 66.1582 8.34348C66.4018 8.34348 66.6005 8.36307 66.7545 8.40226C66.9084 8.44146 67.0232 8.47785 67.0988 8.51144L66.8133 9.36806C66.7629 9.35126 66.6929 9.33027 66.6033 9.30507C66.5165 9.27988 66.4018 9.26728 66.259 9.26728C65.9315 9.26728 65.6949 9.34986 65.5493 9.51503C65.4066 9.68019 65.3352 9.92234 65.3352 10.2415V17.3464H64.3442ZM70.5232 17.4807C69.9409 17.4807 69.43 17.3422 68.9905 17.065C68.5538 16.7879 68.2123 16.4002 67.9659 15.9019C67.7224 15.4036 67.6006 14.8213 67.6006 14.155C67.6006 13.4832 67.7224 12.8967 67.9659 12.3956C68.2123 11.8945 68.5538 11.5054 68.9905 11.2283C69.43 10.9511 69.9409 10.8126 70.5232 10.8126C71.1055 10.8126 71.6149 10.9511 72.0517 11.2283C72.4912 11.5054 72.8327 11.8945 73.0762 12.3956C73.3226 12.8967 73.4458 13.4832 73.4458 14.155C73.4458 14.8213 73.3226 15.4036 73.0762 15.9019C72.8327 16.4002 72.4912 16.7879 72.0517 17.065C71.6149 17.3422 71.1055 17.4807 70.5232 17.4807ZM70.5232 16.5905C70.9655 16.5905 71.3294 16.4772 71.6149 16.2504C71.9005 16.0237 72.1118 15.7255 72.249 15.356C72.3862 14.9865 72.4548 14.5862 72.4548 14.155C72.4548 13.7239 72.3862 13.3222 72.249 12.9499C72.1118 12.5776 71.9005 12.2766 71.6149 12.0471C71.3294 11.8175 70.9655 11.7028 70.5232 11.7028C70.0809 11.7028 69.717 11.8175 69.4314 12.0471C69.1459 12.2766 68.9345 12.5776 68.7973 12.9499C68.6602 13.3222 68.5916 13.7239 68.5916 14.155C68.5916 14.5862 68.6602 14.9865 68.7973 15.356C68.9345 15.7255 69.1459 16.0237 69.4314 16.2504C69.717 16.4772 70.0809 16.5905 70.5232 16.5905ZM74.9585 17.3464V10.8965H75.9159V11.8707H75.9831C76.1007 11.5516 76.3134 11.2927 76.6213 11.0939C76.9293 10.8951 77.2764 10.7958 77.6627 10.7958C77.7355 10.7958 77.8265 10.7972 77.9357 10.8C78.0448 10.8028 78.1274 10.807 78.1834 10.8126V11.8203C78.1498 11.8119 78.0728 11.7993 77.9525 11.7825C77.8349 11.763 77.7103 11.7532 77.5787 11.7532C77.2652 11.7532 76.9853 11.8189 76.7389 11.9505C76.4954 12.0793 76.3022 12.2584 76.1594 12.488C76.0195 12.7148 75.9495 12.9737 75.9495 13.2648V17.3464H74.9585Z" fill="#F8FAFC"/>
<path fill-rule="evenodd" clip-rule="evenodd" d="M27.3745 49.1262L20.3115 57.1982L16.542 53.4287L17.7365 52.2343L20.2292 54.727L26.1032 48.0138L27.3745 49.1262Z" fill="#0048B8"/>
<path d="M36.1875 57.0846H35.0833V47.5882H40.3706V48.5625H36.1875V52.0441H40.1173V53.0119H36.1875V57.0846ZM47.9314 53.5121C47.9314 54.0967 47.8556 54.6185 47.704 55.0775C47.5525 55.5365 47.3338 55.9241 47.048 56.2402C46.7622 56.5563 46.4158 56.7988 46.0087 56.9677C45.606 57.1322 45.1491 57.2145 44.6382 57.2145C44.1618 57.2145 43.7245 57.1322 43.3261 56.9677C42.932 56.7988 42.5899 56.5563 42.2998 56.2402C42.014 55.9241 41.791 55.5365 41.6307 55.0775C41.4749 54.6185 41.3969 54.0967 41.3969 53.5121C41.3969 52.7326 41.529 52.0701 41.7931 51.5244C42.0573 50.9745 42.434 50.5566 42.9234 50.2708C43.417 49.9807 44.0038 49.8356 44.6836 49.8356C45.3332 49.8356 45.9005 49.9807 46.3855 50.2708C46.8748 50.5609 47.2537 50.981 47.5222 51.5309C47.795 52.0766 47.9314 52.7369 47.9314 53.5121ZM42.5141 53.5121C42.5141 54.0837 42.5899 54.5795 42.7415 54.9995C42.893 55.4196 43.1269 55.7444 43.443 55.9739C43.7591 56.2034 44.1662 56.3181 44.6641 56.3181C45.1578 56.3181 45.5627 56.2034 45.8788 55.9739C46.1992 55.7444 46.4353 55.4196 46.5868 54.9995C46.7384 54.5795 46.8142 54.0837 46.8142 53.5121C46.8142 52.9448 46.7384 52.4555 46.5868 52.0441C46.4353 51.6284 46.2014 51.3079 45.8853 51.0828C45.5692 50.8576 45.16 50.745 44.6577 50.745C43.9172 50.745 43.3737 50.9896 43.0273 51.479C42.6852 51.9683 42.5141 52.646 42.5141 53.5121ZM53.0304 49.8356C53.1733 49.8356 53.3227 49.8443 53.4785 49.8616C53.6344 49.8746 53.773 49.8941 53.8943 49.9201L53.7578 50.9204C53.6409 50.8901 53.511 50.8662 53.3681 50.8489C53.2252 50.8316 53.091 50.8229 52.9654 50.8229C52.6796 50.8229 52.409 50.8814 52.1535 50.9983C51.9023 51.1109 51.6815 51.2755 51.4909 51.492C51.3004 51.7042 51.151 51.9618 51.0427 52.2649C50.9345 52.5637 50.8803 52.8972 50.8803 53.2652V57.0846H49.7956V49.9655H50.692L50.8089 51.2776H50.8544C51.0016 51.0135 51.1791 50.7731 51.387 50.5566C51.5948 50.3358 51.8352 50.1604 52.108 50.0305C52.3851 49.9006 52.6926 49.8356 53.0304 49.8356ZM61.4225 47.5882C62.202 47.5882 62.8451 47.6856 63.3517 47.8805C63.8627 48.071 64.2438 48.3633 64.4949 48.7574C64.7461 49.1514 64.8717 49.6537 64.8717 50.2643C64.8717 50.7666 64.7807 51.1867 64.5988 51.5244C64.417 51.8579 64.1788 52.1285 63.8843 52.3364C63.5899 52.5442 63.2759 52.7045 62.9425 52.817L65.5472 57.0846H64.2611L61.9357 53.1223H59.9611V57.0846H58.8568V47.5882H61.4225ZM61.3576 48.543H59.9611V52.187H61.468C62.2431 52.187 62.8126 52.0289 63.1763 51.7128C63.5444 51.3967 63.7284 50.9312 63.7284 50.3163C63.7284 49.6711 63.5336 49.2142 63.1439 48.9457C62.7585 48.6772 62.163 48.543 61.3576 48.543ZM69.6458 49.8356C70.2521 49.8356 70.7717 49.9699 71.2048 50.2383C71.6378 50.5068 71.9691 50.8836 72.1986 51.3686C72.4281 51.8492 72.5428 52.4122 72.5428 53.0574V53.7264H67.6257C67.6387 54.5622 67.8466 55.1987 68.2493 55.6361C68.652 56.0735 69.2193 56.2921 69.9511 56.2921C70.4015 56.2921 70.7999 56.251 71.1463 56.1687C71.4927 56.0865 71.8522 55.9652 72.2246 55.805V56.7533C71.8651 56.9135 71.5079 57.0305 71.1528 57.1041C70.802 57.1777 70.3863 57.2145 69.9057 57.2145C69.2215 57.2145 68.6239 57.0759 68.1129 56.7988C67.6063 56.5173 67.2122 56.1059 66.9307 55.5646C66.6493 55.0234 66.5085 54.3608 66.5085 53.577C66.5085 52.8106 66.6363 52.148 66.8918 51.5894C67.1516 51.0265 67.5153 50.5934 67.983 50.2903C68.455 49.9872 69.0093 49.8356 69.6458 49.8356ZM69.6329 50.719C69.0569 50.719 68.5979 50.9074 68.2558 51.2841C67.9137 51.6609 67.7102 52.187 67.6452 52.8625H71.4126C71.4083 52.4381 71.3412 52.0657 71.2113 51.7453C71.0857 51.4205 70.893 51.1694 70.6332 50.9918C70.3733 50.8099 70.0399 50.719 69.6329 50.719ZM77.0377 49.8486C77.8865 49.8486 78.5165 50.0391 78.9279 50.4202C79.3393 50.8013 79.545 51.4097 79.545 52.2454V57.0846H78.759L78.5512 56.0323H78.4992C78.3 56.2921 78.0922 56.5108 77.8757 56.6884C77.6591 56.8616 77.408 56.9937 77.1222 57.0846C76.8407 57.1712 76.4943 57.2145 76.0829 57.2145C75.6499 57.2145 75.2645 57.1387 74.9267 56.9872C74.5933 56.8356 74.3291 56.6061 74.1342 56.2986C73.9437 55.9912 73.8484 55.6015 73.8484 55.1294C73.8484 54.4193 74.1299 53.8737 74.6929 53.4926C75.2558 53.1115 76.1132 52.9037 77.2651 52.869L78.4927 52.817V52.3819C78.4927 51.7669 78.3606 51.3361 78.0965 51.0892C77.8323 50.8424 77.4599 50.719 76.9793 50.719C76.6069 50.719 76.2518 50.7731 75.914 50.8814C75.5762 50.9896 75.2558 51.1174 74.9527 51.2646L74.6214 50.4462C74.9418 50.2816 75.3099 50.1409 75.7256 50.024C76.1414 49.9071 76.5787 49.8486 77.0377 49.8486ZM78.4797 53.577L77.395 53.6225C76.5073 53.6571 75.8815 53.8022 75.5178 54.0577C75.154 54.3132 74.9722 54.6748 74.9722 55.1424C74.9722 55.5495 75.0956 55.8504 75.3424 56.0453C75.5892 56.2402 75.9162 56.3376 76.3232 56.3376C76.9555 56.3376 77.4729 56.1622 77.8757 55.8115C78.2784 55.4607 78.4797 54.9346 78.4797 54.2331V53.577ZM84.2997 57.2145C83.399 57.2145 82.6845 56.9071 82.1562 56.2921C81.6322 55.6772 81.3702 54.7635 81.3702 53.551C81.3702 52.3256 81.6387 51.401 82.1757 50.7775C82.7126 50.1496 83.4271 49.8356 84.3192 49.8356C84.6959 49.8356 85.025 49.8854 85.3065 49.985C85.588 50.0846 85.8305 50.2188 86.034 50.3877C86.2375 50.5523 86.4086 50.7407 86.5471 50.9528H86.6251C86.6078 50.8186 86.5904 50.6346 86.5731 50.4007C86.5558 50.1669 86.5471 49.9764 86.5471 49.8291V46.9776H87.6254V57.0846H86.755L86.5926 56.0713H86.5471C86.4129 56.2835 86.2419 56.4762 86.034 56.6494C85.8305 56.8226 85.5858 56.9612 85.3 57.0651C85.0185 57.1647 84.6851 57.2145 84.2997 57.2145ZM84.4686 56.3181C85.2307 56.3181 85.7698 56.1016 86.086 55.6686C86.4021 55.2355 86.5601 54.5925 86.5601 53.7394V53.5445C86.5601 52.6395 86.4086 51.9445 86.1055 51.4595C85.8067 50.9745 85.261 50.732 84.4686 50.732C83.806 50.732 83.3102 50.9875 82.9811 51.4985C82.652 52.0051 82.4875 52.698 82.4875 53.577C82.4875 54.4518 82.6498 55.1273 82.9746 55.6036C83.3037 56.08 83.8017 56.3181 84.4686 56.3181ZM101.766 52.3234C101.766 53.0552 101.673 53.7221 101.487 54.324C101.301 54.9216 101.023 55.4369 100.655 55.8699C100.292 56.2986 99.8391 56.6299 99.2978 56.8637C98.7565 57.0976 98.1286 57.2145 97.4141 57.2145C96.678 57.2145 96.0349 57.0976 95.485 56.8637C94.9393 56.6299 94.4846 56.2965 94.1209 55.8634C93.7615 55.4304 93.4908 54.9129 93.309 54.311C93.1314 53.7091 93.0426 53.0422 93.0426 52.3104C93.0426 51.3404 93.2029 50.4895 93.5233 49.7577C93.8438 49.0258 94.3288 48.4564 94.9783 48.0494C95.6322 47.6423 96.4506 47.4388 97.4336 47.4388C98.3733 47.4388 99.1636 47.6401 99.8045 48.0429C100.45 48.4456 100.937 49.0129 101.266 49.7447C101.599 50.4722 101.766 51.3317 101.766 52.3234ZM94.2053 52.3234C94.2053 53.1288 94.3201 53.826 94.5496 54.4149C94.7791 55.0039 95.1299 55.4586 95.6019 55.779C96.0782 56.0994 96.6823 56.2597 97.4141 56.2597C98.1503 56.2597 98.7522 56.0994 99.2199 55.779C99.6919 55.4586 100.04 55.0039 100.266 54.4149C100.491 53.826 100.603 53.1288 100.603 52.3234C100.603 51.0979 100.346 50.1409 99.8304 49.4524C99.3195 48.7595 98.5205 48.4131 97.4336 48.4131C96.6974 48.4131 96.0912 48.5712 95.6149 48.8873C95.1385 49.2034 94.7834 49.6537 94.5496 50.2383C94.3201 50.8186 94.2053 51.5136 94.2053 52.3234ZM107.092 49.8356C107.937 49.8356 108.576 50.0435 109.009 50.4592C109.442 50.8706 109.658 51.5331 109.658 52.4468V57.0846H108.593V52.5183C108.593 51.925 108.456 51.4811 108.184 51.1867C107.915 50.8922 107.502 50.745 106.943 50.745C106.155 50.745 105.601 50.968 105.28 51.414C104.96 51.86 104.8 52.5074 104.8 53.3562V57.0846H103.721V49.9655H104.592L104.754 50.9918H104.812C104.964 50.7407 105.157 50.5306 105.391 50.3617C105.624 50.1885 105.886 50.0586 106.177 49.972C106.467 49.8811 106.772 49.8356 107.092 49.8356ZM112.964 57.0846H111.88V46.9776H112.964V57.0846ZM114.121 49.9655H115.277L116.849 54.0967C116.94 54.3392 117.024 54.573 117.102 54.7982C117.18 55.019 117.249 55.2312 117.31 55.4347C117.37 55.6383 117.418 55.8353 117.453 56.0258H117.498C117.559 55.8093 117.645 55.5257 117.758 55.1749C117.871 54.8198 117.992 54.4582 118.122 54.0902L119.609 49.9655H120.772L117.674 58.1304C117.509 58.5677 117.316 58.9488 117.095 59.2736C116.879 59.5984 116.615 59.8473 116.303 60.0206C115.991 60.1981 115.615 60.2869 115.173 60.2869C114.969 60.2869 114.79 60.2739 114.634 60.2479C114.478 60.2263 114.344 60.2003 114.231 60.17V59.3061C114.326 59.3277 114.441 59.3472 114.575 59.3645C114.714 59.3818 114.857 59.3905 115.004 59.3905C115.272 59.3905 115.504 59.3385 115.699 59.2346C115.898 59.135 116.069 58.9878 116.212 58.7929C116.355 58.598 116.478 58.3664 116.582 58.0979L116.972 57.0976L114.121 49.9655Z" fill="#F8FAFC"/>
<path fill-rule="evenodd" clip-rule="evenodd" d="M27.3745 79.5328L20.3115 87.6049L16.542 83.8354L17.7365 82.6409L20.2292 85.1337L26.1032 78.4205L27.3745 79.5328Z" fill="#0048B8"/>
<path d="M36.1112 87.4899H35.042V78.295H40.1615V79.2384H36.1112V82.6094H39.9162V83.5465H36.1112V87.4899ZM47.4823 84.0308C47.4823 84.5969 47.4089 85.1021 47.2621 85.5465C47.1154 85.991 46.9037 86.3662 46.6269 86.6723C46.3502 86.9784 46.0148 87.2132 45.6206 87.3767C45.2307 87.5361 44.7884 87.6157 44.2936 87.6157C43.8324 87.6157 43.4089 87.5361 43.0232 87.3767C42.6416 87.2132 42.3104 86.9784 42.0294 86.6723C41.7527 86.3662 41.5368 85.991 41.3816 85.5465C41.2307 85.1021 41.1552 84.5969 41.1552 84.0308C41.1552 83.2761 41.2831 82.6346 41.5389 82.1063C41.7946 81.5738 42.1594 81.1692 42.6332 80.8925C43.1112 80.6115 43.6793 80.4711 44.3376 80.4711C44.9665 80.4711 45.5158 80.6115 45.9854 80.8925C46.4592 81.1734 46.8261 81.5801 47.086 82.1126C47.3502 82.6409 47.4823 83.2803 47.4823 84.0308ZM42.237 84.0308C42.237 84.5843 42.3104 85.0644 42.4571 85.4711C42.6039 85.8778 42.8303 86.1922 43.1364 86.4145C43.4424 86.6367 43.8366 86.7478 44.3188 86.7478C44.7967 86.7478 45.1888 86.6367 45.4948 86.4145C45.8051 86.1922 46.0336 85.8778 46.1804 85.4711C46.3271 85.0644 46.4005 84.5843 46.4005 84.0308C46.4005 83.4816 46.3271 83.0078 46.1804 82.6094C46.0336 82.2069 45.8072 81.8966 45.5011 81.6786C45.1951 81.4606 44.7988 81.3516 44.3125 81.3516C43.5955 81.3516 43.0693 81.5885 42.7338 82.0623C42.4026 82.5361 42.237 83.1922 42.237 84.0308ZM52.4194 80.4711C52.5577 80.4711 52.7024 80.4795 52.8533 80.4962C53.0043 80.5088 53.1384 80.5277 53.2558 80.5528L53.1238 81.5214C53.0106 81.492 52.8848 81.469 52.7464 81.4522C52.608 81.4354 52.4781 81.427 52.3565 81.427C52.0797 81.427 51.8177 81.4837 51.5703 81.5969C51.3271 81.7059 51.1133 81.8652 50.9288 82.0748C50.7443 82.2803 50.5997 82.5298 50.4948 82.8233C50.39 83.1126 50.3376 83.4354 50.3376 83.7918V87.4899H49.2873V80.5969H50.1552L50.2684 81.8673H50.3124C50.455 81.6115 50.6269 81.3788 50.8282 81.1692C51.0294 80.9554 51.2621 80.7855 51.5263 80.6598C51.7946 80.534 52.0923 80.4711 52.4194 80.4711ZM60.5451 78.295C61.2998 78.295 61.9225 78.3893 62.4131 78.578C62.9078 78.7625 63.2768 79.0455 63.52 79.4271C63.7632 79.8086 63.8848 80.295 63.8848 80.8862C63.8848 81.3725 63.7967 81.7792 63.6206 82.1063C63.4445 82.4291 63.2139 82.6912 62.9288 82.8925C62.6437 83.0937 62.3397 83.2488 62.0168 83.3579L64.5388 87.4899H63.2936L61.042 83.6535H59.13V87.4899H58.0609V78.295H60.5451ZM60.4822 79.2195H59.13V82.7478H60.5892C61.3397 82.7478 61.891 82.5948 62.2432 82.2887C62.5996 81.9826 62.7778 81.5319 62.7778 80.9365C62.7778 80.3117 62.5892 79.8694 62.2118 79.6094C61.8386 79.3495 61.2621 79.2195 60.4822 79.2195ZM68.5074 80.4711C69.0944 80.4711 69.5975 80.6011 70.0168 80.861C70.4361 81.121 70.7569 81.4857 70.9791 81.9553C71.2013 82.4208 71.3124 82.9658 71.3124 83.5906V84.2384H66.5514C66.564 85.0476 66.7652 85.6639 67.1552 86.0874C67.5451 86.5109 68.0944 86.7226 68.803 86.7226C69.239 86.7226 69.6248 86.6828 69.9602 86.6031C70.2956 86.5235 70.6436 86.4061 71.0042 86.2509V87.1692C70.6562 87.3243 70.3103 87.4375 69.9665 87.5088C69.6269 87.5801 69.2244 87.6157 68.759 87.6157C68.0965 87.6157 67.5179 87.4815 67.0231 87.2132C66.5325 86.9407 66.151 86.5423 65.8785 86.0182C65.6059 85.4941 65.4697 84.8526 65.4697 84.0937C65.4697 83.3516 65.5933 82.7101 65.8407 82.1692C66.0923 81.6241 66.4445 81.2048 66.8973 80.9113C67.3543 80.6178 67.891 80.4711 68.5074 80.4711ZM68.4948 81.3264C67.9372 81.3264 67.4927 81.5088 67.1615 81.8736C66.8302 82.2384 66.6332 82.7478 66.5703 83.4019H70.2181C70.2139 82.991 70.1489 82.6304 70.0231 82.3201C69.9015 82.0057 69.7149 81.7625 69.4634 81.5906C69.2118 81.4145 68.8889 81.3264 68.4948 81.3264ZM76.1552 81.4145H74.4382V87.4899H73.3942V81.4145H72.174V80.9113L73.3942 80.5654V80.1063C73.3942 79.5277 73.4801 79.0581 73.652 78.6975C73.8239 78.3327 74.0734 78.0644 74.4005 77.8925C74.7275 77.7206 75.1258 77.6346 75.5954 77.6346C75.8596 77.6346 76.1007 77.6577 76.3187 77.7038C76.5409 77.7499 76.7359 77.8023 76.9036 77.861L76.6332 78.6849C76.4906 78.6388 76.3292 78.5969 76.1489 78.5591C75.9728 78.5172 75.7925 78.4962 75.608 78.4962C75.2097 78.4962 74.9141 78.6262 74.7212 78.8862C74.5325 79.1419 74.4382 79.5445 74.4382 80.0937V80.5969H76.1552V81.4145ZM80.0797 80.4711C80.6667 80.4711 81.1698 80.6011 81.5891 80.861C82.0084 81.121 82.3292 81.4857 82.5514 81.9553C82.7736 82.4208 82.8847 82.9658 82.8847 83.5906V84.2384H78.1237C78.1363 85.0476 78.3376 85.6639 78.7275 86.0874C79.1174 86.5109 79.6667 86.7226 80.3753 86.7226C80.8113 86.7226 81.1971 86.6828 81.5325 86.6031C81.8679 86.5235 82.216 86.4061 82.5765 86.2509V87.1692C82.2285 87.3243 81.8826 87.4375 81.5388 87.5088C81.1992 87.5801 80.7967 87.6157 80.3313 87.6157C79.6688 87.6157 79.0902 87.4815 78.5954 87.2132C78.1048 86.9407 77.7233 86.5423 77.4508 86.0182C77.1782 85.4941 77.042 84.8526 77.042 84.0937C77.042 83.3516 77.1656 82.7101 77.413 82.1692C77.6646 81.6241 78.0168 81.2048 78.4696 80.9113C78.9266 80.6178 79.4633 80.4711 80.0797 80.4711ZM80.0671 81.3264C79.5095 81.3264 79.065 81.5088 78.7338 81.8736C78.4025 82.2384 78.2055 82.7478 78.1426 83.4019H81.7904C81.7862 82.991 81.7212 82.6304 81.5954 82.3201C81.4738 82.0057 81.2872 81.7625 81.0357 81.5906C80.7841 81.4145 80.4612 81.3264 80.0671 81.3264ZM87.7904 80.4711C87.9287 80.4711 88.0734 80.4795 88.2243 80.4962C88.3753 80.5088 88.5094 80.5277 88.6268 80.5528L88.4948 81.5214C88.3816 81.492 88.2558 81.469 88.1174 81.4522C87.979 81.4354 87.8491 81.427 87.7275 81.427C87.4507 81.427 87.1887 81.4837 86.9413 81.5969C86.6981 81.7059 86.4843 81.8652 86.2998 82.0748C86.1153 82.2803 85.9707 82.5298 85.8658 82.8233C85.761 83.1126 85.7086 83.4354 85.7086 83.7918V87.4899H84.6583V80.5969H85.5262L85.6394 81.8673H85.6834C85.826 81.6115 85.9979 81.3788 86.1992 81.1692C86.4004 80.9554 86.6331 80.7855 86.8973 80.6598C87.1656 80.534 87.4633 80.4711 87.7904 80.4711ZM92.5828 80.4711C93.1698 80.4711 93.673 80.6011 94.0922 80.861C94.5115 81.121 94.8323 81.4857 95.0545 81.9553C95.2767 82.4208 95.3878 82.9658 95.3878 83.5906V84.2384H90.6268C90.6394 85.0476 90.8407 85.6639 91.2306 86.0874C91.6205 86.5109 92.1698 86.7226 92.8784 86.7226C93.3145 86.7226 93.7002 86.6828 94.0356 86.6031C94.3711 86.5235 94.7191 86.4061 95.0797 86.2509V87.1692C94.7317 87.3243 94.3857 87.4375 94.0419 87.5088C93.7023 87.5801 93.2998 87.6157 92.8344 87.6157C92.1719 87.6157 91.5933 87.4815 91.0985 87.2132C90.608 86.9407 90.2264 86.5423 89.9539 86.0182C89.6813 85.4941 89.5451 84.8526 89.5451 84.0937C89.5451 83.3516 89.6688 82.7101 89.9161 82.1692C90.1677 81.6241 90.5199 81.2048 90.9727 80.9113C91.4298 80.6178 91.9665 80.4711 92.5828 80.4711ZM92.5702 81.3264C92.0126 81.3264 91.5681 81.5088 91.2369 81.8736C90.9057 82.2384 90.7086 82.7478 90.6457 83.4019H94.2935C94.2893 82.991 94.2243 82.6304 94.0985 82.3201C93.9769 82.0057 93.7904 81.7625 93.5388 81.5906C93.2872 81.4145 92.9644 81.3264 92.5702 81.3264ZM100.426 80.4711C101.243 80.4711 101.862 80.6723 102.281 81.0748C102.7 81.4732 102.91 82.1147 102.91 82.9994V87.4899H101.878V83.0686C101.878 82.4941 101.746 82.0644 101.482 81.7792C101.222 81.4941 100.822 81.3516 100.281 81.3516C99.5178 81.3516 98.9811 81.5675 98.6708 81.9994C98.3606 82.4312 98.2054 83.0581 98.2054 83.8799V87.4899H97.1614V80.5969H98.0042L98.1614 81.5906H98.218C98.3648 81.3474 98.5513 81.144 98.7778 80.9805C99.0042 80.8128 99.2578 80.687 99.5388 80.6032C99.8197 80.5151 100.115 80.4711 100.426 80.4711ZM107.822 87.6157C107.201 87.6157 106.654 87.4878 106.18 87.2321C105.706 86.9763 105.337 86.5864 105.073 86.0623C104.809 85.5382 104.677 84.8778 104.677 84.0811C104.677 83.2468 104.815 82.5654 105.092 82.0371C105.373 81.5046 105.759 81.1105 106.249 80.8547C106.74 80.599 107.298 80.4711 107.922 80.4711C108.266 80.4711 108.597 80.5067 108.916 80.578C109.239 80.6451 109.503 80.731 109.709 80.8359L109.394 81.7101C109.184 81.6262 108.941 81.5507 108.665 81.4837C108.392 81.4166 108.136 81.383 107.897 81.383C107.419 81.383 107.021 81.4857 106.702 81.6912C106.388 81.8966 106.151 82.1985 105.992 82.5969C105.836 82.9952 105.759 83.4857 105.759 84.0686C105.759 84.6262 105.834 85.1021 105.985 85.4962C106.14 85.8904 106.369 86.1922 106.671 86.4019C106.977 86.6073 107.358 86.7101 107.815 86.7101C108.18 86.7101 108.509 86.6723 108.803 86.5968C109.096 86.5172 109.363 86.4249 109.602 86.3201V87.2509C109.371 87.3683 109.113 87.4585 108.828 87.5214C108.547 87.5843 108.212 87.6157 107.822 87.6157ZM113.891 80.4711C114.478 80.4711 114.981 80.6011 115.4 80.861C115.82 81.121 116.14 81.4857 116.363 81.9553C116.585 82.4208 116.696 82.9658 116.696 83.5906V84.2384H111.935C111.948 85.0476 112.149 85.6639 112.539 86.0874C112.929 86.5109 113.478 86.7226 114.187 86.7226C114.623 86.7226 115.008 86.6828 115.344 86.6031C115.679 86.5235 116.027 86.4061 116.388 86.2509V87.1692C116.04 87.3243 115.694 87.4375 115.35 87.5088C115.01 87.5801 114.608 87.6157 114.143 87.6157C113.48 87.6157 112.901 87.4815 112.407 87.2132C111.916 86.9407 111.535 86.5423 111.262 86.0182C110.989 85.4941 110.853 84.8526 110.853 84.0937C110.853 83.3516 110.977 82.7101 111.224 82.1692C111.476 81.6241 111.828 81.2048 112.281 80.9113C112.738 80.6178 113.275 80.4711 113.891 80.4711ZM113.878 81.3264C113.321 81.3264 112.876 81.5088 112.545 81.8736C112.214 82.2384 112.017 82.7478 111.954 83.4019H115.602C115.597 82.991 115.532 82.6304 115.407 82.3201C115.285 82.0057 115.098 81.7625 114.847 81.5906C114.595 81.4145 114.272 81.3264 113.878 81.3264Z" fill="#F8FAFC"/>
<rect x="0.422311" y="1.23481" width="491.57" height="103.888" stroke="#0048B7" stroke-width="0.844622"/>
</g>
<defs>
<clipPath id="clip0_1_234">
<rect width="492.414" height="104.733" fill="white" transform="translate(0 0.8125)"/>
</clipPath>
</defs>
</svg>
