<svg width="494" height="106" viewBox="0 0 494 106" fill="none" xmlns="http://www.w3.org/2000/svg">
<g clip-path="url(#clip0_1_255)">
<rect width="492.414" height="27.757" transform="translate(0.888672 0.8125)" fill="#D62833"/>
<path d="M18.7623 8.88096V17.3464H17.7703L13.1573 10.6997H13.0746V17.3464H12.0495V8.88096H13.0416L17.6711 15.5442H17.7538V8.88096H18.7623ZM23.2606 17.4786C22.6874 17.4786 22.1845 17.3422 21.7519 17.0694C21.322 16.7966 20.9858 16.415 20.7433 15.9244C20.5036 15.4339 20.3837 14.8608 20.3837 14.2049C20.3837 13.5436 20.5036 12.9662 20.7433 12.473C20.9858 11.9797 21.322 11.5967 21.7519 11.3239C22.1845 11.0511 22.6874 10.9146 23.2606 10.9146C23.8338 10.9146 24.3353 11.0511 24.7652 11.3239C25.1978 11.5967 25.534 11.9797 25.7738 12.473C26.0163 12.9662 26.1375 13.5436 26.1375 14.2049C26.1375 14.8608 26.0163 15.4339 25.7738 15.9244C25.534 16.415 25.1978 16.7966 24.7652 17.0694C24.3353 17.3422 23.8338 17.4786 23.2606 17.4786ZM23.2606 16.6023C23.696 16.6023 24.0542 16.4907 24.3353 16.2675C24.6164 16.0443 24.8245 15.7508 24.9595 15.3871C25.0945 15.0233 25.162 14.6293 25.162 14.2049C25.162 13.7805 25.0945 13.3851 24.9595 13.0186C24.8245 12.6521 24.6164 12.3559 24.3353 12.1299C24.0542 11.9039 23.696 11.7909 23.2606 11.7909C22.8252 11.7909 22.467 11.9039 22.1859 12.1299C21.9048 12.3559 21.6968 12.6521 21.5617 13.0186C21.4267 13.3851 21.3592 13.7805 21.3592 14.2049C21.3592 14.6293 21.4267 15.0233 21.5617 15.3871C21.6968 15.7508 21.9048 16.0443 22.1859 16.2675C22.467 16.4907 22.8252 16.6023 23.2606 16.6023ZM30.3878 10.9973V11.824H27.0975V10.9973H30.3878ZM28.0565 9.47619H29.032V15.5276C29.032 15.8032 29.072 16.0099 29.1519 16.1477C29.2346 16.2827 29.3393 16.3736 29.466 16.4205C29.5955 16.4646 29.732 16.4866 29.8752 16.4866C29.9827 16.4866 30.0709 16.4811 30.1398 16.4701C30.2087 16.4563 30.2638 16.4453 30.3051 16.437L30.5035 17.3133C30.4374 17.3381 30.3451 17.3629 30.2266 17.3877C30.1081 17.4153 29.9579 17.429 29.776 17.429C29.5005 17.429 29.2304 17.3698 28.9659 17.2513C28.7041 17.1328 28.4864 16.9523 28.3128 16.7098C28.1419 16.4673 28.0565 16.1614 28.0565 15.7922V9.47619ZM36.9973 17.4952C36.5949 17.4952 36.2298 17.4194 35.9019 17.2678C35.574 17.1135 35.3136 16.8917 35.1207 16.6023C34.9278 16.3102 34.8313 15.9575 34.8313 15.5442C34.8313 15.1804 34.903 14.8856 35.0463 14.6596C35.1896 14.4309 35.3811 14.2518 35.6208 14.1222C35.8606 13.9927 36.1251 13.8963 36.4144 13.8329C36.7065 13.7668 37 13.7144 37.2949 13.6758C37.6807 13.6262 37.9934 13.589 38.2332 13.5642C38.4757 13.5367 38.652 13.4912 38.7623 13.4278C38.8753 13.3644 38.9317 13.2542 38.9317 13.0971V13.0641C38.9317 12.6562 38.8201 12.3393 38.5969 12.1134C38.3765 11.8874 38.0417 11.7744 37.5925 11.7744C37.1268 11.7744 36.7617 11.8764 36.4971 12.0803C36.2326 12.2842 36.0466 12.5019 35.9391 12.7334L35.0132 12.4027C35.1785 12.0169 35.399 11.7165 35.6746 11.5016C35.9529 11.2839 36.256 11.1323 36.5839 11.0469C36.9146 10.9587 37.2398 10.9146 37.5594 10.9146C37.7633 10.9146 37.9976 10.9394 38.2621 10.989C38.5294 11.0359 38.7871 11.1337 39.0351 11.2825C39.2859 11.4313 39.4939 11.6559 39.6592 11.9563C39.8246 12.2567 39.9073 12.659 39.9073 13.1633V17.3464H38.9317V16.4866H38.8821C38.816 16.6244 38.7058 16.7718 38.5515 16.9289C38.3971 17.086 38.1919 17.2196 37.9356 17.3298C37.6793 17.4401 37.3665 17.4952 36.9973 17.4952ZM37.1461 16.6189C37.5319 16.6189 37.857 16.5431 38.1216 16.3915C38.3889 16.24 38.59 16.0443 38.7251 15.8046C38.8629 15.5648 38.9317 15.3127 38.9317 15.0481V14.1553C38.8904 14.2049 38.7995 14.2504 38.6589 14.2917C38.5212 14.3303 38.3613 14.3647 38.1795 14.3951C38.0003 14.4226 37.8253 14.4474 37.6545 14.4695C37.4864 14.4887 37.35 14.5053 37.2453 14.5191C36.9918 14.5521 36.7548 14.6059 36.5343 14.6803C36.3166 14.7519 36.1403 14.8608 36.0052 15.0068C35.873 15.1501 35.8068 15.3458 35.8068 15.5938C35.8068 15.9327 35.9322 16.189 36.183 16.3626C36.4365 16.5335 36.7575 16.6189 37.1461 16.6189ZM46.6521 10.9973L44.3043 17.3464H43.3122L40.9644 10.9973H42.0226L43.7752 16.0567H43.8413L45.5939 10.9973H46.6521ZM49.6148 17.4952C49.2125 17.4952 48.8473 17.4194 48.5194 17.2678C48.1915 17.1135 47.9311 16.8917 47.7382 16.6023C47.5453 16.3102 47.4488 15.9575 47.4488 15.5442C47.4488 15.1804 47.5205 14.8856 47.6638 14.6596C47.8071 14.4309 47.9986 14.2518 48.2383 14.1222C48.4781 13.9927 48.7426 13.8963 49.032 13.8329C49.3241 13.7668 49.6175 13.7144 49.9124 13.6758C50.2982 13.6262 50.611 13.589 50.8507 13.5642C51.0932 13.5367 51.2696 13.4912 51.3798 13.4278C51.4928 13.3644 51.5493 13.2542 51.5493 13.0971V13.0641C51.5493 12.6562 51.4377 12.3393 51.2144 12.1134C50.994 11.8874 50.6592 11.7744 50.21 11.7744C49.7443 11.7744 49.3792 11.8764 49.1146 12.0803C48.8501 12.2842 48.6641 12.5019 48.5566 12.7334L47.6307 12.4027C47.796 12.0169 48.0165 11.7165 48.2921 11.5016C48.5704 11.2839 48.8735 11.1323 49.2014 11.0469C49.5321 10.9587 49.8573 10.9146 50.1769 10.9146C50.3809 10.9146 50.6151 10.9394 50.8796 10.989C51.1469 11.0359 51.4046 11.1337 51.6526 11.2825C51.9034 11.4313 52.1114 11.6559 52.2768 11.9563C52.4421 12.2567 52.5248 12.659 52.5248 13.1633V17.3464H51.5493V16.4866H51.4997C51.4335 16.6244 51.3233 16.7718 51.169 16.9289C51.0147 17.086 50.8094 17.2196 50.5531 17.3298C50.2968 17.4401 49.984 17.4952 49.6148 17.4952ZM49.7636 16.6189C50.1494 16.6189 50.4746 16.5431 50.7391 16.3915C51.0064 16.24 51.2076 16.0443 51.3426 15.8046C51.4804 15.5648 51.5493 15.3127 51.5493 15.0481V14.1553C51.5079 14.2049 51.417 14.2504 51.2765 14.2917C51.1387 14.3303 50.9788 14.3647 50.797 14.3951C50.6178 14.4226 50.4429 14.4474 50.272 14.4695C50.1039 14.4887 49.9675 14.5053 49.8628 14.5191C49.6093 14.5521 49.3723 14.6059 49.1518 14.6803C48.9341 14.7519 48.7578 14.8608 48.6227 15.0068C48.4905 15.1501 48.4243 15.3458 48.4243 15.5938C48.4243 15.9327 48.5497 16.189 48.8005 16.3626C49.054 16.5335 49.375 16.6189 49.7636 16.6189ZM54.3053 17.3464V10.9973H55.2808V17.3464H54.3053ZM54.8013 9.93914C54.6112 9.93914 54.4472 9.87438 54.3094 9.74486C54.1744 9.61535 54.1069 9.45965 54.1069 9.27778C54.1069 9.09591 54.1744 8.94021 54.3094 8.81069C54.4472 8.68118 54.6112 8.61642 54.8013 8.61642C54.9914 8.61642 55.154 8.68118 55.289 8.81069C55.4268 8.94021 55.4957 9.09591 55.4957 9.27778C55.4957 9.45965 55.4268 9.61535 55.289 9.74486C55.154 9.87438 54.9914 9.93914 54.8013 9.93914ZM58.043 8.88096V17.3464H57.0675V8.88096H58.043ZM61.698 17.4952C61.2957 17.4952 60.9306 17.4194 60.6027 17.2678C60.2747 17.1135 60.0143 16.8917 59.8214 16.6023C59.6285 16.3102 59.5321 15.9575 59.5321 15.5442C59.5321 15.1804 59.6037 14.8856 59.747 14.6596C59.8903 14.4309 60.0818 14.2518 60.3216 14.1222C60.5613 13.9927 60.8259 13.8963 61.1152 13.8329C61.4073 13.7668 61.7008 13.7144 61.9957 13.6758C62.3814 13.6262 62.6942 13.589 62.934 13.5642C63.1765 13.5367 63.3528 13.4912 63.463 13.4278C63.576 13.3644 63.6325 13.2542 63.6325 13.0971V13.0641C63.6325 12.6562 63.5209 12.3393 63.2977 12.1134C63.0773 11.8874 62.7424 11.7744 62.2933 11.7744C61.8276 11.7744 61.4624 11.8764 61.1979 12.0803C60.9333 12.2842 60.7473 12.5019 60.6399 12.7334L59.714 12.4027C59.8793 12.0169 60.0998 11.7165 60.3753 11.5016C60.6536 11.2839 60.9568 11.1323 61.2847 11.0469C61.6154 10.9587 61.9405 10.9146 62.2602 10.9146C62.4641 10.9146 62.6983 10.9394 62.9629 10.989C63.2302 11.0359 63.4878 11.1337 63.7359 11.2825C63.9866 11.4313 64.1947 11.6559 64.36 11.9563C64.5254 12.2567 64.608 12.659 64.608 13.1633V17.3464H63.6325V16.4866H63.5829C63.5168 16.6244 63.4066 16.7718 63.2522 16.9289C63.0979 17.086 62.8926 17.2196 62.6363 17.3298C62.3801 17.4401 62.0673 17.4952 61.698 17.4952ZM61.8468 16.6189C62.2326 16.6189 62.5578 16.5431 62.8224 16.3915C63.0897 16.24 63.2908 16.0443 63.4258 15.8046C63.5636 15.5648 63.6325 15.3127 63.6325 15.0481V14.1553C63.5912 14.2049 63.5002 14.2504 63.3597 14.2917C63.2219 14.3303 63.0621 14.3647 62.8802 14.3951C62.7011 14.4226 62.5261 14.4474 62.3553 14.4695C62.1872 14.4887 62.0508 14.5053 61.9461 14.5191C61.6925 14.5521 61.4555 14.6059 61.2351 14.6803C61.0174 14.7519 60.841 14.8608 60.706 15.0068C60.5737 15.1501 60.5076 15.3458 60.5076 15.5938C60.5076 15.9327 60.633 16.189 60.8837 16.3626C61.1373 16.5335 61.4583 16.6189 61.8468 16.6189ZM66.5208 17.3464V8.88096H67.4963V12.0059H67.579C67.6506 11.8957 67.7498 11.7551 67.8766 11.5843C68.0061 11.4107 68.1907 11.2563 68.4305 11.1213C68.673 10.9835 69.0009 10.9146 69.4143 10.9146C69.9489 10.9146 70.4201 11.0483 70.8279 11.3156C71.2358 11.5829 71.554 11.9618 71.7828 12.4523C72.0115 12.9428 72.1258 13.5215 72.1258 14.1884C72.1258 14.8608 72.0115 15.4436 71.7828 15.9369C71.554 16.4274 71.2371 16.8076 70.832 17.0777C70.427 17.345 69.9599 17.4786 69.4308 17.4786C69.023 17.4786 68.6964 17.4111 68.4512 17.2761C68.2059 17.1383 68.0171 16.9826 67.8849 16.809C67.7526 16.6327 67.6506 16.4866 67.579 16.3709H67.4632V17.3464H66.5208ZM67.4798 14.1718C67.4798 14.6513 67.55 15.0743 67.6906 15.4408C67.8311 15.8046 68.0364 16.0898 68.3065 16.2965C68.5765 16.5004 68.9072 16.6023 69.2985 16.6023C69.7064 16.6023 70.0467 16.4949 70.3195 16.2799C70.5951 16.0622 70.8017 15.7701 70.9395 15.4036C71.0801 15.0344 71.1503 14.6238 71.1503 14.1718C71.1503 13.7254 71.0814 13.3231 70.9437 12.9649C70.8086 12.6039 70.6033 12.3187 70.3278 12.1092C70.0549 11.897 69.7119 11.7909 69.2985 11.7909C68.9017 11.7909 68.5683 11.8915 68.2982 12.0927C68.0282 12.2911 67.8242 12.5694 67.6865 12.9277C67.5487 13.2831 67.4798 13.6979 67.4798 14.1718ZM74.5935 8.88096V17.3464H73.618V8.88096H74.5935ZM79.0422 17.4786C78.4305 17.4786 77.9027 17.3436 77.4591 17.0736C77.0182 16.8008 76.6779 16.4205 76.4381 15.9327C76.2011 15.4422 76.0826 14.8718 76.0826 14.2214C76.0826 13.5711 76.2011 12.9979 76.4381 12.5019C76.6779 12.0031 77.0113 11.6146 77.4384 11.3363C77.8683 11.0552 78.3698 10.9146 78.943 10.9146C79.2737 10.9146 79.6002 10.9698 79.9227 11.08C80.2451 11.1902 80.5385 11.3693 80.8031 11.6173C81.0676 11.8626 81.2784 12.1878 81.4355 12.5928C81.5926 12.9979 81.6711 13.4967 81.6711 14.0892V14.5025H76.7771V13.6593H80.6791C80.6791 13.3011 80.6074 12.9814 80.4641 12.7003C80.3236 12.4192 80.1224 12.1974 79.8606 12.0348C79.6016 11.8722 79.2957 11.7909 78.943 11.7909C78.5545 11.7909 78.2183 11.8874 77.9344 12.0803C77.6534 12.2704 77.437 12.5184 77.2855 12.8243C77.1339 13.1302 77.0581 13.4581 77.0581 13.8081V14.3703C77.0581 14.8497 77.1408 15.2562 77.3061 15.5896C77.4742 15.9203 77.7071 16.1725 78.0047 16.3461C78.3023 16.5169 78.6482 16.6023 79.0422 16.6023C79.2985 16.6023 79.53 16.5665 79.7366 16.4949C79.9461 16.4205 80.1266 16.3102 80.2781 16.1642C80.4297 16.0154 80.5468 15.8308 80.6295 15.6103L81.5719 15.8748C81.4727 16.1945 81.306 16.4756 81.0718 16.7181C80.8375 16.9578 80.5482 17.1452 80.2037 17.2802C79.8593 17.4125 79.4721 17.4786 79.0422 17.4786ZM89.2561 10.9973V11.824H85.8336V10.9973H89.2561ZM86.8587 17.3464V10.121C86.8587 9.75727 86.9441 9.45414 87.1149 9.21164C87.2858 8.96914 87.5076 8.78727 87.7804 8.66602C88.0532 8.54477 88.3412 8.48415 88.6443 8.48415C88.8841 8.48415 89.0797 8.50344 89.2313 8.54202C89.3829 8.5806 89.4958 8.61642 89.5702 8.64949L89.2892 9.49272C89.2396 9.47619 89.1707 9.45552 89.0825 9.43072C88.9971 9.40592 88.8841 9.39352 88.7435 9.39352C88.4211 9.39352 88.1883 9.47481 88.045 9.63739C87.9044 9.79998 87.8342 10.0383 87.8342 10.3525V17.3464H86.8587ZM92.9411 17.4786C92.3679 17.4786 91.865 17.3422 91.4324 17.0694C91.0025 16.7966 90.6663 16.415 90.4238 15.9244C90.1841 15.4339 90.0642 14.8608 90.0642 14.2049C90.0642 13.5436 90.1841 12.9662 90.4238 12.473C90.6663 11.9797 91.0025 11.5967 91.4324 11.3239C91.865 11.0511 92.3679 10.9146 92.9411 10.9146C93.5143 10.9146 94.0158 11.0511 94.4457 11.3239C94.8783 11.5967 95.2145 11.9797 95.4543 12.473C95.6968 12.9662 95.818 13.5436 95.818 14.2049C95.818 14.8608 95.6968 15.4339 95.4543 15.9244C95.2145 16.415 94.8783 16.7966 94.4457 17.0694C94.0158 17.3422 93.5143 17.4786 92.9411 17.4786ZM92.9411 16.6023C93.3765 16.6023 93.7347 16.4907 94.0158 16.2675C94.2969 16.0443 94.505 15.7508 94.64 15.3871C94.775 15.0233 94.8425 14.6293 94.8425 14.2049C94.8425 13.7805 94.775 13.3851 94.64 13.0186C94.505 12.6521 94.2969 12.3559 94.0158 12.1299C93.7347 11.9039 93.3765 11.7909 92.9411 11.7909C92.5057 11.7909 92.1475 11.9039 91.8664 12.1299C91.5853 12.3559 91.3773 12.6521 91.2422 13.0186C91.1072 13.3851 91.0397 13.7805 91.0397 14.2049C91.0397 14.6293 91.1072 15.0233 91.2422 15.3871C91.3773 15.7508 91.5853 16.0443 91.8664 16.2675C92.1475 16.4907 92.5057 16.6023 92.9411 16.6023ZM97.3071 17.3464V10.9973H98.2496V11.9563H98.3157C98.4314 11.6421 98.6409 11.3872 98.944 11.1916C99.2471 10.9959 99.5888 10.8981 99.9691 10.8981C100.041 10.8981 100.13 10.8995 100.238 10.9022C100.345 10.905 100.427 10.9091 100.482 10.9146V11.9067C100.449 11.8984 100.373 11.886 100.254 11.8695C100.139 11.8502 100.016 11.8406 99.8864 11.8406C99.5778 11.8406 99.3022 11.9053 99.0597 12.0348C98.82 12.1616 98.6298 12.3379 98.4893 12.5639C98.3515 12.7871 98.2826 13.042 98.2826 13.3286V17.3464H97.3071Z" fill="#F8FAFC"/>
<path fill-rule="evenodd" clip-rule="evenodd" d="M22.8493 51.3903L18.6261 47.1672L17.4316 48.3617L21.6547 52.5848L17.4316 56.8079L18.6261 58.0023L22.8493 53.7792L27.0724 58.0023L28.2668 56.8079L24.0437 52.5848L28.2668 48.3617L27.0724 47.1672L22.8493 51.3903Z" fill="#D62934"/>
<path d="M43.3729 52.3223C43.3729 53.3749 43.1811 54.2549 42.7976 54.9623C42.414 55.6655 41.8579 56.1961 41.1292 56.554C40.4047 56.9077 39.5247 57.0846 38.4891 57.0846H35.9513V47.7389H38.7704C39.7207 47.7389 40.5389 47.9136 41.2251 48.2631C41.9112 48.6083 42.4396 49.1218 42.8104 49.8037C43.1854 50.4812 43.3729 51.3208 43.3729 52.3223ZM42.2287 52.3606C42.2287 51.5211 42.088 50.8286 41.8068 50.2831C41.5298 49.7376 41.1207 49.3327 40.5794 49.0685C40.0425 48.8 39.384 48.6658 38.6042 48.6658H37.038V56.1513H38.3613C39.6483 56.1513 40.6135 55.8338 41.257 55.1988C41.9048 54.5639 42.2287 53.6178 42.2287 52.3606ZM51.3314 53.5688C51.3314 54.1441 51.2569 54.6576 51.1077 55.1093C50.9586 55.5611 50.7433 55.9425 50.4621 56.2536C50.1808 56.5647 49.8399 56.8033 49.4393 56.9695C49.043 57.1315 48.5934 57.2124 48.0905 57.2124C47.6217 57.2124 47.1913 57.1315 46.7992 56.9695C46.4114 56.8033 46.0748 56.5647 45.7892 56.2536C45.508 55.9425 45.2885 55.5611 45.1308 55.1093C44.9774 54.6576 44.9007 54.1441 44.9007 53.5688C44.9007 52.8017 45.0307 52.1497 45.2906 51.6127C45.5506 51.0715 45.9213 50.6602 46.4029 50.379C46.8887 50.0934 47.4662 49.9507 48.1352 49.9507C48.7745 49.9507 49.3328 50.0934 49.8101 50.379C50.2916 50.6645 50.6645 51.0779 50.9287 51.6191C51.1972 52.1561 51.3314 52.8059 51.3314 53.5688ZM46.0002 53.5688C46.0002 54.1313 46.0748 54.6193 46.2239 55.0326C46.3731 55.446 46.6032 55.7656 46.9143 55.9915C47.2254 56.2174 47.626 56.3303 48.1161 56.3303C48.6019 56.3303 49.0003 56.2174 49.3114 55.9915C49.6268 55.7656 49.8591 55.446 50.0082 55.0326C50.1574 54.6193 50.232 54.1313 50.232 53.5688C50.232 53.0105 50.1574 52.5289 50.0082 52.1241C49.8591 51.715 49.6289 51.3996 49.3178 51.178C49.0067 50.9564 48.604 50.8456 48.1097 50.8456C47.3809 50.8456 46.8461 51.0864 46.5052 51.568C46.1685 52.0495 46.0002 52.7165 46.0002 53.5688ZM56.4837 49.9507C57.3147 49.9507 57.9433 50.1552 58.3695 50.5643C58.7956 50.9692 59.0087 51.6212 59.0087 52.5204V57.0846H57.9604V52.5907C57.9604 52.0069 57.8261 51.5701 57.5576 51.2803C57.2934 50.9905 56.8864 50.8456 56.3367 50.8456C55.5611 50.8456 55.0156 51.0651 54.7002 51.504C54.3849 51.943 54.2272 52.5801 54.2272 53.4154V57.0846H53.1661V50.0785H54.0226L54.1825 51.0885H54.24C54.3891 50.8414 54.5788 50.6347 54.8089 50.4685C55.039 50.298 55.2969 50.1701 55.5824 50.0849C55.8679 49.9954 56.1684 49.9507 56.4837 49.9507ZM62.0323 47.7389L62.1282 47.8795C62.0515 48.1906 61.9535 48.5252 61.8342 48.8831C61.7148 49.2369 61.5849 49.5906 61.4442 49.9443C61.3036 50.298 61.163 50.6304 61.0223 50.9415H60.2424C60.3064 50.6986 60.3703 50.4386 60.4342 50.1616C60.5024 49.8846 60.5663 49.6034 60.626 49.3178C60.6857 49.0323 60.7389 48.7553 60.7858 48.4868C60.8369 48.2183 60.8796 47.969 60.9137 47.7389H62.0323ZM65.6824 56.3431C65.8571 56.3431 66.0361 56.3282 66.2193 56.2983C66.4026 56.2685 66.5517 56.2323 66.6668 56.1897V57.0143C66.5432 57.0697 66.3706 57.1166 66.149 57.1549C65.9317 57.1933 65.7186 57.2124 65.5098 57.2124C65.139 57.2124 64.8024 57.1485 64.4998 57.0207C64.1972 56.8886 63.9543 56.667 63.7711 56.3559C63.5921 56.0448 63.5026 55.6143 63.5026 55.0646V50.9095H62.5054V50.3918L63.509 49.9762L63.9309 48.4549H64.5701V50.0785H66.6221V50.9095H64.5701V55.0326C64.5701 55.4716 64.6702 55.7997 64.8705 56.0171C65.0751 56.2344 65.3457 56.3431 65.6824 56.3431ZM78.7165 47.7389V53.7861C78.7165 54.4467 78.5822 55.0348 78.3138 55.5504C78.0495 56.0661 77.649 56.4731 77.112 56.7714C76.575 57.0654 75.9017 57.2124 75.092 57.2124C73.9371 57.2124 73.0571 56.8992 72.4519 56.2728C71.851 55.6463 71.5506 54.8089 71.5506 53.7605V47.7389H72.6437V53.7925C72.6437 54.5852 72.8525 55.1967 73.2702 55.6271C73.6921 56.0575 74.3206 56.2728 75.1559 56.2728C75.727 56.2728 76.1936 56.1705 76.5559 55.9659C76.9223 55.7571 77.193 55.4673 77.3677 55.0966C77.5467 54.7215 77.6362 54.289 77.6362 53.7989V47.7389H78.7165ZM85.5691 55.1669C85.5691 55.6143 85.4562 55.9915 85.2303 56.2983C85.0087 56.6009 84.6891 56.8289 84.2715 56.9823C83.8581 57.1357 83.3638 57.2124 82.7884 57.2124C82.2984 57.2124 81.8743 57.1741 81.5164 57.0974C81.1584 57.0207 80.8452 56.912 80.5767 56.7714V55.7933C80.8622 55.934 81.2031 56.0618 81.5995 56.1769C81.9958 56.2919 82.4006 56.3495 82.814 56.3495C83.4192 56.3495 83.8581 56.2515 84.1308 56.0554C84.4036 55.8594 84.54 55.593 84.54 55.2564C84.54 55.0646 84.4846 54.8963 84.3738 54.7514C84.2672 54.6022 84.0861 54.4594 83.8304 54.3231C83.5747 54.1824 83.221 54.029 82.7693 53.8628C82.3218 53.6924 81.934 53.524 81.6058 53.3578C81.282 53.1874 81.0305 52.9807 80.8515 52.7378C80.6768 52.4949 80.5895 52.1795 80.5895 51.7917C80.5895 51.1993 80.8281 50.7455 81.3054 50.4301C81.787 50.1105 82.4177 49.9507 83.1976 49.9507C83.6195 49.9507 84.0137 49.9933 84.3801 50.0785C84.7509 50.1595 85.0961 50.2703 85.4157 50.4109L85.0577 51.2611C84.768 51.1375 84.459 51.0331 84.1308 50.9479C83.8027 50.8627 83.4682 50.82 83.1272 50.82C82.6372 50.82 82.26 50.901 81.9958 51.063C81.7358 51.2249 81.6058 51.4465 81.6058 51.7278C81.6058 51.9451 81.6655 52.1241 81.7848 52.2647C81.9084 52.4054 82.1045 52.5375 82.3729 52.6611C82.6414 52.7846 82.9951 52.9295 83.4341 53.0957C83.873 53.2577 84.2523 53.426 84.5719 53.6007C84.8915 53.7712 85.1366 53.98 85.307 54.2272C85.4818 54.4701 85.5691 54.7833 85.5691 55.1669ZM89.9735 49.9507C90.5701 49.9507 91.0815 50.0828 91.5077 50.347C91.9338 50.6112 92.2598 50.982 92.4857 51.4593C92.7116 51.9323 92.8245 52.4863 92.8245 53.1213V53.7797H87.9855C87.9982 54.6022 88.2028 55.2287 88.5991 55.6591C88.9955 56.0895 89.5537 56.3047 90.2739 56.3047C90.7171 56.3047 91.1092 56.2642 91.4501 56.1833C91.7911 56.1023 92.1448 55.983 92.5113 55.8253V56.7586C92.1576 56.9163 91.806 57.0313 91.4565 57.1038C91.1113 57.1762 90.7022 57.2124 90.2292 57.2124C89.5559 57.2124 88.9678 57.0761 88.4649 56.8033C87.9663 56.5263 87.5785 56.1215 87.3015 55.5888C87.0245 55.0561 86.886 54.404 86.886 53.6327C86.886 52.8784 87.0117 52.2264 87.2631 51.6766C87.5188 51.1226 87.8768 50.6965 88.337 50.3981C88.8016 50.0998 89.347 49.9507 89.9735 49.9507ZM89.9607 50.82C89.3939 50.82 88.9422 51.0054 88.6055 51.3762C88.2689 51.7469 88.0686 52.2647 88.0046 52.9295H91.7122C91.708 52.5119 91.6419 52.1454 91.5141 51.83C91.3905 51.5104 91.2008 51.2632 90.9451 51.0885C90.6894 50.9095 90.3613 50.82 89.9607 50.82Z" fill="#F8FAFC"/>
<path fill-rule="evenodd" clip-rule="evenodd" d="M119.135 51.3903L114.912 47.1672L113.718 48.3617L117.941 52.5848L113.718 56.8079L114.912 58.0023L119.135 53.7792L123.359 58.0023L124.553 56.8079L120.33 52.5848L124.553 48.3617L123.359 47.1672L119.135 51.3903Z" fill="#D62934"/>
<path d="M139.659 52.3223C139.659 53.3749 139.467 54.2549 139.084 54.9623C138.7 55.6655 138.144 56.1961 137.415 56.554C136.691 56.9077 135.811 57.0846 134.775 57.0846H132.237V47.7389H135.057C136.007 47.7389 136.825 47.9136 137.511 48.2631C138.197 48.6083 138.726 49.1218 139.097 49.8037C139.472 50.4812 139.659 51.3208 139.659 52.3223ZM138.515 52.3606C138.515 51.5211 138.374 50.8286 138.093 50.2831C137.816 49.7376 137.407 49.3327 136.866 49.0685C136.329 48.8 135.67 48.6658 134.89 48.6658H133.324V56.1513H134.647C135.934 56.1513 136.9 55.8338 137.543 55.1988C138.191 54.5639 138.515 53.6178 138.515 52.3606ZM147.618 53.5688C147.618 54.1441 147.543 54.6576 147.394 55.1093C147.245 55.5611 147.029 55.9425 146.748 56.2536C146.467 56.5647 146.126 56.8033 145.725 56.9695C145.329 57.1315 144.879 57.2124 144.377 57.2124C143.908 57.2124 143.477 57.1315 143.085 56.9695C142.698 56.8033 142.361 56.5647 142.075 56.2536C141.794 55.9425 141.575 55.5611 141.417 55.1093C141.264 54.6576 141.187 54.1441 141.187 53.5688C141.187 52.8017 141.317 52.1497 141.577 51.6127C141.837 51.0715 142.207 50.6602 142.689 50.379C143.175 50.0934 143.752 49.9507 144.421 49.9507C145.061 49.9507 145.619 50.0934 146.096 50.379C146.578 50.6645 146.951 51.0779 147.215 51.6191C147.483 52.1561 147.618 52.8059 147.618 53.5688ZM142.286 53.5688C142.286 54.1313 142.361 54.6193 142.51 55.0326C142.659 55.446 142.889 55.7656 143.2 55.9915C143.512 56.2174 143.912 56.3303 144.402 56.3303C144.888 56.3303 145.286 56.2174 145.598 55.9915C145.913 55.7656 146.145 55.446 146.294 55.0326C146.444 54.6193 146.518 54.1313 146.518 53.5688C146.518 53.0105 146.444 52.5289 146.294 52.1241C146.145 51.715 145.915 51.3996 145.604 51.178C145.293 50.9564 144.89 50.8456 144.396 50.8456C143.667 50.8456 143.132 51.0864 142.791 51.568C142.455 52.0495 142.286 52.7165 142.286 53.5688ZM152.77 49.9507C153.601 49.9507 154.229 50.1552 154.656 50.5643C155.082 50.9692 155.295 51.6212 155.295 52.5204V57.0846H154.246V52.5907C154.246 52.0069 154.112 51.5701 153.844 51.2803C153.58 50.9905 153.173 50.8456 152.623 50.8456C151.847 50.8456 151.302 51.0651 150.986 51.504C150.671 51.943 150.513 52.5801 150.513 53.4154V57.0846H149.452V50.0785H150.309L150.469 51.0885H150.526C150.675 50.8414 150.865 50.6347 151.095 50.4685C151.325 50.298 151.583 50.1701 151.869 50.0849C152.154 49.9954 152.454 49.9507 152.77 49.9507ZM158.318 47.7389L158.414 47.8795C158.338 48.1906 158.24 48.5252 158.12 48.8831C158.001 49.2369 157.871 49.5906 157.73 49.9443C157.59 50.298 157.449 50.6304 157.308 50.9415H156.529C156.593 50.6986 156.656 50.4386 156.72 50.1616C156.789 49.8846 156.852 49.6034 156.912 49.3178C156.972 49.0323 157.025 48.7553 157.072 48.4868C157.123 48.2183 157.166 47.969 157.2 47.7389H158.318ZM161.969 56.3431C162.143 56.3431 162.322 56.3282 162.505 56.2983C162.689 56.2685 162.838 56.2323 162.953 56.1897V57.0143C162.829 57.0697 162.657 57.1166 162.435 57.1549C162.218 57.1933 162.005 57.2124 161.796 57.2124C161.425 57.2124 161.088 57.1485 160.786 57.0207C160.483 56.8886 160.24 56.667 160.057 56.3559C159.878 56.0448 159.789 55.6143 159.789 55.0646V50.9095H158.791V50.3918L159.795 49.9762L160.217 48.4549H160.856V50.0785H162.908V50.9095H160.856V55.0326C160.856 55.4716 160.956 55.7997 161.157 56.0171C161.361 56.2344 161.632 56.3431 161.969 56.3431ZM170.036 56.3431C170.21 56.3431 170.389 56.3282 170.573 56.2983C170.756 56.2685 170.905 56.2323 171.02 56.1897V57.0143C170.897 57.0697 170.724 57.1166 170.502 57.1549C170.285 57.1933 170.072 57.2124 169.863 57.2124C169.492 57.2124 169.156 57.1485 168.853 57.0207C168.551 56.8886 168.308 56.667 168.124 56.3559C167.945 56.0448 167.856 55.6143 167.856 55.0646V50.9095H166.859V50.3918L167.862 49.9762L168.284 48.4549H168.923V50.0785H170.975V50.9095H168.923V55.0326C168.923 55.4716 169.024 55.7997 169.224 56.0171C169.428 56.2344 169.699 56.3431 170.036 56.3431ZM175.06 49.9635C175.895 49.9635 176.515 50.151 176.92 50.526C177.325 50.901 177.528 51.4998 177.528 52.3223V57.0846H176.754L176.55 56.049H176.498C176.302 56.3047 176.098 56.5199 175.885 56.6947C175.672 56.8651 175.425 56.9951 175.143 57.0846C174.866 57.1698 174.525 57.2124 174.12 57.2124C173.694 57.2124 173.315 57.1379 172.983 56.9887C172.654 56.8396 172.395 56.6137 172.203 56.3111C172.015 56.0085 171.921 55.625 171.921 55.1605C171.921 54.4616 172.198 53.9246 172.752 53.5496C173.307 53.1746 174.15 52.97 175.284 52.9359L176.492 52.8848V52.4565C176.492 51.8514 176.362 51.4273 176.102 51.1844C175.842 50.9415 175.476 50.82 175.003 50.82C174.636 50.82 174.287 50.8733 173.954 50.9799C173.622 51.0864 173.307 51.2121 173.008 51.357L172.682 50.5516C172.998 50.3896 173.36 50.2511 173.769 50.1361C174.178 50.021 174.608 49.9635 175.06 49.9635ZM176.479 53.6327L175.412 53.6774C174.538 53.7115 173.922 53.8543 173.564 54.1057C173.206 54.3572 173.027 54.713 173.027 55.1733C173.027 55.5739 173.149 55.87 173.392 56.0618C173.635 56.2536 173.956 56.3495 174.357 56.3495C174.979 56.3495 175.488 56.1769 175.885 55.8317C176.281 55.4865 176.479 54.9687 176.479 54.2783V53.6327ZM180.769 47.138V52.3031C180.769 52.4735 180.762 52.6824 180.749 52.9295C180.737 53.1724 180.726 53.3877 180.717 53.5752H180.762C180.852 53.4644 180.982 53.3003 181.152 53.083C181.327 52.8656 181.474 52.6909 181.593 52.5588L183.92 50.0785H185.167L182.347 53.0702L185.371 57.0846H184.093L181.619 53.7669L180.769 54.5468V57.0846H179.714V47.138H180.769ZM189.29 49.9507C189.886 49.9507 190.398 50.0828 190.824 50.347C191.25 50.6112 191.576 50.982 191.802 51.4593C192.028 51.9323 192.141 52.4863 192.141 53.1213V53.7797H187.302C187.314 54.6022 187.519 55.2287 187.915 55.6591C188.312 56.0895 188.87 56.3047 189.59 56.3047C190.033 56.3047 190.425 56.2642 190.766 56.1833C191.107 56.1023 191.461 55.983 191.827 55.8253V56.7586C191.474 56.9163 191.122 57.0313 190.773 57.1038C190.427 57.1762 190.018 57.2124 189.545 57.2124C188.872 57.2124 188.284 57.0761 187.781 56.8033C187.282 56.5263 186.895 56.1215 186.618 55.5888C186.341 55.0561 186.202 54.404 186.202 53.6327C186.202 52.8784 186.328 52.2264 186.579 51.6766C186.835 51.1226 187.193 50.6965 187.653 50.3981C188.118 50.0998 188.663 49.9507 189.29 49.9507ZM189.277 50.82C188.71 50.82 188.258 51.0054 187.922 51.3762C187.585 51.7469 187.385 52.2647 187.321 52.9295H191.028C191.024 52.5119 190.958 52.1454 190.83 51.83C190.707 51.5104 190.517 51.2632 190.261 51.0885C190.006 50.9095 189.677 50.82 189.277 50.82ZM201.876 55.1669C201.876 55.6143 201.763 55.9915 201.537 56.2983C201.316 56.6009 200.996 56.8289 200.579 56.9823C200.165 57.1357 199.671 57.2124 199.096 57.2124C198.605 57.2124 198.181 57.1741 197.823 57.0974C197.466 57.0207 197.152 56.912 196.884 56.7714V55.7933C197.169 55.934 197.51 56.0618 197.907 56.1769C198.303 56.2919 198.708 56.3495 199.121 56.3495C199.726 56.3495 200.165 56.2515 200.438 56.0554C200.711 55.8594 200.847 55.593 200.847 55.2564C200.847 55.0646 200.792 54.8963 200.681 54.7514C200.574 54.6022 200.393 54.4594 200.138 54.3231C199.882 54.1824 199.528 54.029 199.076 53.8628C198.629 53.6924 198.241 53.524 197.913 53.3578C197.589 53.1874 197.338 52.9807 197.159 52.7378C196.984 52.4949 196.897 52.1795 196.897 51.7917C196.897 51.1993 197.135 50.7455 197.613 50.4301C198.094 50.1105 198.725 49.9507 199.505 49.9507C199.927 49.9507 200.321 49.9933 200.687 50.0785C201.058 50.1595 201.403 50.2703 201.723 50.4109L201.365 51.2611C201.075 51.1375 200.766 51.0331 200.438 50.9479C200.11 50.8627 199.775 50.82 199.434 50.82C198.944 50.82 198.567 50.901 198.303 51.063C198.043 51.2249 197.913 51.4465 197.913 51.7278C197.913 51.9451 197.973 52.1241 198.092 52.2647C198.216 52.4054 198.412 52.5375 198.68 52.6611C198.949 52.7846 199.302 52.9295 199.741 53.0957C200.18 53.2577 200.559 53.426 200.879 53.6007C201.199 53.7712 201.444 53.98 201.614 54.2272C201.789 54.4701 201.876 54.7833 201.876 55.1669ZM206.389 57.2124C205.759 57.2124 205.202 57.0825 204.721 56.8225C204.239 56.5625 203.864 56.1662 203.596 55.6335C203.327 55.1008 203.193 54.4296 203.193 53.6199C203.193 52.7719 203.334 52.0793 203.615 51.5424C203.901 51.0012 204.293 50.6006 204.791 50.3406C205.29 50.0807 205.857 49.9507 206.492 49.9507C206.841 49.9507 207.178 49.9869 207.502 50.0593C207.83 50.1275 208.098 50.2149 208.307 50.3214L207.987 51.21C207.774 51.1247 207.527 51.048 207.246 50.9799C206.969 50.9117 206.709 50.8776 206.466 50.8776C205.98 50.8776 205.575 50.982 205.251 51.1908C204.932 51.3996 204.691 51.7065 204.529 52.1113C204.371 52.5162 204.293 53.0148 204.293 53.6071C204.293 54.1739 204.369 54.6576 204.523 55.0582C204.68 55.4588 204.913 55.7656 205.219 55.9787C205.531 56.1875 205.918 56.2919 206.383 56.2919C206.754 56.2919 207.088 56.2536 207.387 56.1769C207.685 56.0959 207.955 56.0021 208.198 55.8956V56.8417C207.964 56.961 207.702 57.0526 207.412 57.1166C207.127 57.1805 206.786 57.2124 206.389 57.2124ZM213.044 49.9507C213.184 49.9507 213.331 49.9592 213.485 49.9762C213.638 49.989 213.775 50.0082 213.894 50.0338L213.76 51.0182C213.645 50.9884 213.517 50.9649 213.376 50.9479C213.236 50.9308 213.103 50.9223 212.98 50.9223C212.699 50.9223 212.432 50.9799 212.181 51.0949C211.934 51.2057 211.716 51.3677 211.529 51.5807C211.341 51.7896 211.194 52.0431 211.088 52.3414C210.981 52.6355 210.928 52.9636 210.928 53.3259V57.0846H209.86V50.0785H210.743L210.858 51.3698H210.902C211.047 51.1098 211.222 50.8733 211.427 50.6602C211.631 50.4429 211.868 50.2703 212.136 50.1424C212.409 50.0146 212.711 49.9507 213.044 49.9507ZM217.915 49.9507C218.511 49.9507 219.023 50.0828 219.449 50.347C219.875 50.6112 220.201 50.982 220.427 51.4593C220.653 51.9323 220.766 52.4863 220.766 53.1213V53.7797H215.927C215.94 54.6022 216.144 55.2287 216.54 55.6591C216.937 56.0895 217.495 56.3047 218.215 56.3047C218.658 56.3047 219.051 56.2642 219.391 56.1833C219.732 56.1023 220.086 55.983 220.453 55.8253V56.7586C220.099 56.9163 219.747 57.0313 219.398 57.1038C219.053 57.1762 218.644 57.2124 218.17 57.2124C217.497 57.2124 216.909 57.0761 216.406 56.8033C215.908 56.5263 215.52 56.1215 215.243 55.5888C214.966 55.0561 214.827 54.404 214.827 53.6327C214.827 52.8784 214.953 52.2264 215.204 51.6766C215.46 51.1226 215.818 50.6965 216.278 50.3981C216.743 50.0998 217.288 49.9507 217.915 49.9507ZM217.902 50.82C217.335 50.82 216.883 51.0054 216.547 51.3762C216.21 51.7469 216.01 52.2647 215.946 52.9295H219.654C219.649 52.5119 219.583 52.1454 219.455 51.83C219.332 51.5104 219.142 51.2632 218.886 51.0885C218.631 50.9095 218.303 50.82 217.902 50.82ZM225.266 49.9507C225.863 49.9507 226.374 50.0828 226.8 50.347C227.226 50.6112 227.552 50.982 227.778 51.4593C228.004 51.9323 228.117 52.4863 228.117 53.1213V53.7797H223.278C223.291 54.6022 223.495 55.2287 223.892 55.6591C224.288 56.0895 224.846 56.3047 225.566 56.3047C226.01 56.3047 226.402 56.2642 226.743 56.1833C227.084 56.1023 227.437 55.983 227.804 55.8253V56.7586C227.45 56.9163 227.099 57.0313 226.749 57.1038C226.404 57.1762 225.995 57.2124 225.522 57.2124C224.848 57.2124 224.26 57.0761 223.757 56.8033C223.259 56.5263 222.871 56.1215 222.594 55.5888C222.317 55.0561 222.179 54.404 222.179 53.6327C222.179 52.8784 222.304 52.2264 222.556 51.6766C222.811 51.1226 223.169 50.6965 223.63 50.3981C224.094 50.0998 224.64 49.9507 225.266 49.9507ZM225.253 50.82C224.686 50.82 224.235 51.0054 223.898 51.3762C223.561 51.7469 223.361 52.2647 223.297 52.9295H227.005C227.001 52.5119 226.934 52.1454 226.807 51.83C226.683 51.5104 226.493 51.2632 226.238 51.0885C225.982 50.9095 225.654 50.82 225.253 50.82ZM233.237 49.9507C234.068 49.9507 234.697 50.1552 235.123 50.5643C235.549 50.9692 235.762 51.6212 235.762 52.5204V57.0846H234.714V52.5907C234.714 52.0069 234.58 51.5701 234.311 51.2803C234.047 50.9905 233.64 50.8456 233.09 50.8456C232.315 50.8456 231.769 51.0651 231.454 51.504C231.139 51.943 230.981 52.5801 230.981 53.4154V57.0846H229.92V50.0785H230.776L230.936 51.0885H230.994C231.143 50.8414 231.332 50.6347 231.563 50.4685C231.793 50.298 232.051 50.1701 232.336 50.0849C232.622 49.9954 232.922 49.9507 233.237 49.9507ZM242.481 55.1669C242.481 55.6143 242.368 55.9915 242.142 56.2983C241.92 56.6009 241.601 56.8289 241.183 56.9823C240.77 57.1357 240.275 57.2124 239.7 57.2124C239.21 57.2124 238.786 57.1741 238.428 57.0974C238.07 57.0207 237.757 56.912 237.488 56.7714V55.7933C237.774 55.934 238.115 56.0618 238.511 56.1769C238.907 56.2919 239.312 56.3495 239.726 56.3495C240.331 56.3495 240.77 56.2515 241.042 56.0554C241.315 55.8594 241.452 55.593 241.452 55.2564C241.452 55.0646 241.396 54.8963 241.285 54.7514C241.179 54.6022 240.998 54.4594 240.742 54.3231C240.486 54.1824 240.133 54.029 239.681 53.8628C239.233 53.6924 238.846 53.524 238.517 53.3578C238.194 53.1874 237.942 52.9807 237.763 52.7378C237.588 52.4949 237.501 52.1795 237.501 51.7917C237.501 51.1993 237.74 50.7455 238.217 50.4301C238.699 50.1105 239.329 49.9507 240.109 49.9507C240.531 49.9507 240.925 49.9933 241.292 50.0785C241.663 50.1595 242.008 50.2703 242.327 50.4109L241.969 51.2611C241.68 51.1375 241.371 51.0331 241.042 50.9479C240.714 50.8627 240.38 50.82 240.039 50.82C239.549 50.82 239.172 50.901 238.907 51.063C238.647 51.2249 238.517 51.4465 238.517 51.7278C238.517 51.9451 238.577 52.1241 238.696 52.2647C238.82 52.4054 239.016 52.5375 239.285 52.6611C239.553 52.7846 239.907 52.9295 240.346 53.0957C240.785 53.2577 241.164 53.426 241.484 53.6007C241.803 53.7712 242.048 53.98 242.219 54.2272C242.393 54.4701 242.481 54.7833 242.481 55.1669ZM245.249 47.138V50.1105C245.249 50.281 245.244 50.4535 245.236 50.6283C245.227 50.7987 245.212 50.9564 245.191 51.1013H245.261C245.406 50.8541 245.59 50.6474 245.811 50.4812C246.037 50.3108 246.293 50.1829 246.578 50.0977C246.864 50.0082 247.166 49.9635 247.486 49.9635C248.049 49.9635 248.517 50.053 248.892 50.2319C249.272 50.4109 249.555 50.6879 249.743 51.063C249.934 51.438 250.03 51.9238 250.03 52.5204V57.0846H248.982V52.5907C248.982 52.0069 248.848 51.5701 248.579 51.2803C248.315 50.9905 247.908 50.8456 247.358 50.8456C246.838 50.8456 246.423 50.9458 246.112 51.1461C245.805 51.3421 245.583 51.6319 245.447 52.0154C245.315 52.399 245.249 52.8677 245.249 53.4217V57.0846H244.188V47.138H245.249ZM258.257 53.5688C258.257 54.1441 258.183 54.6576 258.033 55.1093C257.884 55.5611 257.669 55.9425 257.388 56.2536C257.107 56.5647 256.766 56.8033 256.365 56.9695C255.969 57.1315 255.519 57.2124 255.016 57.2124C254.547 57.2124 254.117 57.1315 253.725 56.9695C253.337 56.8033 253.001 56.5647 252.715 56.2536C252.434 55.9425 252.214 55.5611 252.057 55.1093C251.903 54.6576 251.826 54.1441 251.826 53.5688C251.826 52.8017 251.956 52.1497 252.216 51.6127C252.476 51.0715 252.847 50.6602 253.329 50.379C253.815 50.0934 254.392 49.9507 255.061 49.9507C255.7 49.9507 256.259 50.0934 256.736 50.379C257.217 50.6645 257.59 51.0779 257.854 51.6191C258.123 52.1561 258.257 52.8059 258.257 53.5688ZM252.926 53.5688C252.926 54.1313 253.001 54.6193 253.15 55.0326C253.299 55.446 253.529 55.7656 253.84 55.9915C254.151 56.2174 254.552 56.3303 255.042 56.3303C255.528 56.3303 255.926 56.2174 256.237 55.9915C256.553 55.7656 256.785 55.446 256.934 55.0326C257.083 54.6193 257.158 54.1313 257.158 53.5688C257.158 53.0105 257.083 52.5289 256.934 52.1241C256.785 51.715 256.555 51.3996 256.244 51.178C255.933 50.9564 255.53 50.8456 255.035 50.8456C254.307 50.8456 253.772 51.0864 253.431 51.568C253.094 52.0495 252.926 52.7165 252.926 53.5688ZM262.355 56.3431C262.529 56.3431 262.708 56.3282 262.892 56.2983C263.075 56.2685 263.224 56.2323 263.339 56.1897V57.0143C263.216 57.0697 263.043 57.1166 262.821 57.1549C262.604 57.1933 262.391 57.2124 262.182 57.2124C261.811 57.2124 261.475 57.1485 261.172 57.0207C260.87 56.8886 260.627 56.667 260.443 56.3559C260.264 56.0448 260.175 55.6143 260.175 55.0646V50.9095H259.178V50.3918L260.181 49.9762L260.603 48.4549H261.242V50.0785H263.294V50.9095H261.242V55.0326C261.242 55.4716 261.343 55.7997 261.543 56.0171C261.747 56.2344 262.018 56.3431 262.355 56.3431ZM269.29 55.1669C269.29 55.6143 269.178 55.9915 268.952 56.2983C268.73 56.6009 268.41 56.8289 267.993 56.9823C267.579 57.1357 267.085 57.2124 266.51 57.2124C266.02 57.2124 265.596 57.1741 265.238 57.0974C264.88 57.0207 264.567 56.912 264.298 56.7714V55.7933C264.584 55.934 264.924 56.0618 265.321 56.1769C265.717 56.2919 266.122 56.3495 266.535 56.3495C267.141 56.3495 267.579 56.2515 267.852 56.0554C268.125 55.8594 268.261 55.593 268.261 55.2564C268.261 55.0646 268.206 54.8963 268.095 54.7514C267.989 54.6022 267.807 54.4594 267.552 54.3231C267.296 54.1824 266.942 54.029 266.491 53.8628C266.043 53.6924 265.655 53.524 265.327 53.3578C265.003 53.1874 264.752 52.9807 264.573 52.7378C264.398 52.4949 264.311 52.1795 264.311 51.7917C264.311 51.1993 264.549 50.7455 265.027 50.4301C265.508 50.1105 266.139 49.9507 266.919 49.9507C267.341 49.9507 267.735 49.9933 268.102 50.0785C268.472 50.1595 268.817 50.2703 269.137 50.4109L268.779 51.2611C268.489 51.1375 268.18 51.0331 267.852 50.9479C267.524 50.8627 267.19 50.82 266.849 50.82C266.359 50.82 265.981 50.901 265.717 51.063C265.457 51.2249 265.327 51.4465 265.327 51.7278C265.327 51.9451 265.387 52.1241 265.506 52.2647C265.63 52.4054 265.826 52.5375 266.094 52.6611C266.363 52.7846 266.716 52.9295 267.155 53.0957C267.594 53.2577 267.974 53.426 268.293 53.6007C268.613 53.7712 268.858 53.98 269.028 54.2272C269.203 54.4701 269.29 54.7833 269.29 55.1669Z" fill="#F8FAFC"/>
<g clip-path="url(#clip1_1_255)">
<path fill-rule="evenodd" clip-rule="evenodd" d="M22.8493 81.7947L18.6261 77.5716L17.4316 78.7661L21.6547 82.9892L17.4316 87.2123L18.6261 88.4068L22.8493 84.1836L27.0724 88.4068L28.2668 87.2123L24.0437 82.9892L28.2668 78.7661L27.0724 77.5716L22.8493 81.7947Z" fill="#D62934"/>
</g>
<path d="M35.9513 78.1442H38.5978C39.7655 78.1442 40.6434 78.319 41.2315 78.6684C41.8196 79.0179 42.1136 79.6124 42.1136 80.4519C42.1136 80.8141 42.0433 81.1401 41.9027 81.4299C41.7663 81.7155 41.566 81.952 41.3018 82.1395C41.0376 82.327 40.7115 82.457 40.3237 82.5294V82.5934C40.7328 82.6573 41.0951 82.7745 41.4104 82.9449C41.7258 83.1154 41.973 83.354 42.152 83.6609C42.3309 83.9677 42.4204 84.3577 42.4204 84.8307C42.4204 85.406 42.2862 85.8918 42.0177 86.2882C41.7535 86.6845 41.3785 86.9849 40.8927 87.1895C40.4068 87.3898 39.8315 87.4899 39.1667 87.4899H35.9513V78.1442ZM37.038 82.1523H38.8279C39.6419 82.1523 40.2044 82.018 40.5155 81.7496C40.8309 81.4811 40.9885 81.089 40.9885 80.5734C40.9885 80.0407 40.801 79.6571 40.426 79.4227C40.0553 79.1883 39.4629 79.0711 38.6489 79.0711H37.038V82.1523ZM37.038 83.0664V86.563H38.9813C39.8123 86.563 40.4004 86.4011 40.7456 86.0772C41.0908 85.7491 41.2634 85.308 41.2634 84.754C41.2634 84.4003 41.1846 84.0977 41.0269 83.8463C40.8735 83.5948 40.622 83.4031 40.2726 83.2709C39.9274 83.1346 39.465 83.0664 38.8854 83.0664H37.038ZM50.0402 80.4839V87.4899H49.1708L49.0174 86.5055H48.9599C48.815 86.7484 48.6275 86.953 48.3973 87.1192C48.1672 87.2854 47.9072 87.409 47.6175 87.4899C47.3319 87.5752 47.0272 87.6178 46.7033 87.6178C46.1493 87.6178 45.6848 87.5283 45.3098 87.3493C44.9348 87.1703 44.6514 86.8933 44.4596 86.5183C44.2721 86.1433 44.1783 85.6617 44.1783 85.0736V80.4839H45.2523V84.9969C45.2523 85.5807 45.3844 86.0175 45.6486 86.3073C45.9128 86.5929 46.3155 86.7356 46.8568 86.7356C47.3767 86.7356 47.7901 86.6376 48.0969 86.4416C48.408 86.2455 48.6317 85.9579 48.7681 85.5786C48.9045 85.1951 48.9726 84.7263 48.9726 84.1723V80.4839H50.0402ZM53.345 80.4839V87.4899H52.2839V80.4839H53.345ZM52.8273 77.863C53.002 77.863 53.1511 77.9205 53.2747 78.0356C53.4026 78.1464 53.4665 78.3211 53.4665 78.5597C53.4665 78.7941 53.4026 78.9689 53.2747 79.0839C53.1511 79.199 53.002 79.2565 52.8273 79.2565C52.644 79.2565 52.4906 79.199 52.367 79.0839C52.2477 78.9689 52.188 78.7941 52.188 78.5597C52.188 78.3211 52.2477 78.1464 52.367 78.0356C52.4906 77.9205 52.644 77.863 52.8273 77.863ZM56.6627 87.4899H55.5952V77.5434H56.6627V87.4899ZM61.3995 87.6178C60.5131 87.6178 59.8099 87.3152 59.29 86.7101C58.7743 86.1049 58.5165 85.2057 58.5165 84.0125C58.5165 82.8064 58.7807 81.8966 59.3092 81.2829C59.8376 80.665 60.5408 80.356 61.4187 80.356C61.7894 80.356 62.1133 80.405 62.3903 80.503C62.6673 80.6011 62.9059 80.7332 63.1062 80.8994C63.3065 81.0613 63.4749 81.2467 63.6112 81.4555H63.688C63.6709 81.3234 63.6539 81.1423 63.6368 80.9122C63.6198 80.682 63.6112 80.4945 63.6112 80.3496V77.5434H64.6724V87.4899H63.8158L63.656 86.4927H63.6112C63.4791 86.7015 63.3108 86.8912 63.1062 87.0616C62.9059 87.2321 62.6652 87.3685 62.3839 87.4708C62.1069 87.5688 61.7788 87.6178 61.3995 87.6178ZM61.5657 86.7356C62.3157 86.7356 62.8463 86.5225 63.1574 86.0964C63.4685 85.6702 63.624 85.0374 63.624 84.1978V84.0061C63.624 83.1154 63.4749 82.4314 63.1766 81.9541C62.8825 81.4768 62.3455 81.2382 61.5657 81.2382C60.9137 81.2382 60.4257 81.4896 60.1018 81.9925C59.7779 82.4911 59.616 83.1729 59.616 84.038C59.616 84.8989 59.7758 85.5637 60.0954 86.0325C60.4193 86.5012 60.9094 86.7356 61.5657 86.7356ZM67.9836 80.4839V87.4899H66.9225V80.4839H67.9836ZM67.4659 77.863C67.6406 77.863 67.7897 77.9205 67.9133 78.0356C68.0412 78.1464 68.1051 78.3211 68.1051 78.5597C68.1051 78.7941 68.0412 78.9689 67.9133 79.0839C67.7897 79.199 67.6406 79.2565 67.4659 79.2565C67.2826 79.2565 67.1292 79.199 67.0056 79.0839C66.8863 78.9689 66.8266 78.7941 66.8266 78.5597C66.8266 78.3211 66.8863 78.1464 67.0056 78.0356C67.1292 77.9205 67.2826 77.863 67.4659 77.863ZM73.5514 80.356C74.3824 80.356 75.011 80.5606 75.4372 80.9697C75.8633 81.3745 76.0764 82.0266 76.0764 82.9258V87.4899H75.0281V82.9961C75.0281 82.4122 74.8938 81.9754 74.6253 81.6856C74.3611 81.3958 73.9541 81.2509 73.4044 81.2509C72.6288 81.2509 72.0833 81.4704 71.7679 81.9094C71.4526 82.3483 71.2949 82.9854 71.2949 83.8207V87.4899H70.2338V80.4839H71.0903L71.2502 81.4939H71.3077C71.4568 81.2467 71.6465 81.04 71.8766 80.8738C72.1067 80.7033 72.3646 80.5755 72.6501 80.4903C72.9356 80.4008 73.2361 80.356 73.5514 80.356ZM80.2187 90.635C79.2982 90.635 78.5886 90.4624 78.09 90.1172C77.5914 89.7763 77.3421 89.2968 77.3421 88.6789C77.3421 88.24 77.4806 87.8649 77.7576 87.5539C78.0389 87.2428 78.4267 87.0361 78.921 86.9338C78.7378 86.8486 78.5801 86.7207 78.448 86.5502C78.3202 86.3798 78.2562 86.1837 78.2562 85.9621C78.2562 85.7064 78.3265 85.4827 78.4672 85.2909C78.6121 85.0949 78.8315 84.9074 79.1256 84.7284C78.7591 84.5793 78.4608 84.3278 78.2307 83.9741C78.0048 83.6161 77.8919 83.2006 77.8919 82.7276C77.8919 82.2247 77.9963 81.7964 78.2051 81.4427C78.4139 81.0847 78.7165 80.812 79.1128 80.6245C79.5091 80.437 79.9886 80.3432 80.5511 80.3432C80.6747 80.3432 80.7983 80.3496 80.9219 80.3624C81.0497 80.3709 81.1712 80.3858 81.2862 80.4072C81.4013 80.4242 81.5014 80.4455 81.5867 80.4711H83.9902V81.1551L82.6989 81.3149C82.8268 81.4811 82.9333 81.6814 83.0186 81.9158C83.1038 82.1501 83.1464 82.4101 83.1464 82.6956C83.1464 83.3945 82.9099 83.9507 82.4369 84.364C81.9638 84.7732 81.3139 84.9777 80.4872 84.9777C80.2911 84.9777 80.0908 84.9607 79.8863 84.9266C79.6775 85.0416 79.5177 85.1695 79.4069 85.3101C79.3003 85.4508 79.2471 85.6127 79.2471 85.7959C79.2471 85.9323 79.2875 86.041 79.3685 86.122C79.4537 86.2029 79.5752 86.2626 79.7329 86.3009C79.8906 86.335 80.0802 86.3521 80.3018 86.3521H81.5355C82.2984 86.3521 82.8822 86.5119 83.287 86.8315C83.6962 87.1511 83.9007 87.6178 83.9007 88.2314C83.9007 89.0071 83.5854 89.6016 82.9546 90.0149C82.3239 90.4283 81.4119 90.635 80.2187 90.635ZM80.2507 89.804C80.8302 89.804 81.3097 89.7443 81.6889 89.625C82.0725 89.5099 82.358 89.3416 82.5455 89.12C82.7373 88.9026 82.8332 88.6427 82.8332 88.3401C82.8332 88.0589 82.7693 87.8458 82.6414 87.7009C82.5136 87.5602 82.3261 87.4665 82.0789 87.4196C81.8317 87.3685 81.5291 87.3429 81.1712 87.3429H79.9566C79.6412 87.3429 79.3664 87.3919 79.132 87.4899C78.8976 87.5879 78.7165 87.7328 78.5886 87.9246C78.465 88.1164 78.4033 88.355 78.4033 88.6406C78.4033 89.0198 78.5631 89.3075 78.8827 89.5035C79.2023 89.7038 79.6583 89.804 80.2507 89.804ZM80.5255 84.2042C81.0327 84.2042 81.4141 84.0764 81.6698 83.8207C81.9255 83.565 82.0533 83.1921 82.0533 82.702C82.0533 82.1778 81.9233 81.7858 81.6634 81.5258C81.4034 81.2616 81.0199 81.1295 80.5127 81.1295C80.0269 81.1295 79.6519 81.2659 79.3877 81.5386C79.1277 81.8071 78.9977 82.2013 78.9977 82.7212C78.9977 83.1985 79.1299 83.565 79.3941 83.8207C79.6583 84.0764 80.0354 84.2042 80.5255 84.2042ZM91.3926 80.3688C92.2279 80.3688 92.8479 80.5563 93.2528 80.9313C93.6577 81.3063 93.8601 81.9051 93.8601 82.7276V87.4899H93.0866L92.882 86.4544H92.8309C92.6349 86.7101 92.4303 86.9253 92.2172 87.1C92.0042 87.2705 91.757 87.4004 91.4757 87.4899C91.1987 87.5752 90.8578 87.6178 90.4529 87.6178C90.0268 87.6178 89.6475 87.5432 89.3151 87.394C88.9869 87.2449 88.727 87.019 88.5352 86.7164C88.3477 86.4139 88.2539 86.0303 88.2539 85.5658C88.2539 84.8669 88.5309 84.33 89.085 83.9549C89.639 83.5799 90.4828 83.3754 91.6163 83.3413L92.8245 83.2901V82.8618C92.8245 82.2567 92.6945 81.8327 92.4346 81.5897C92.1746 81.3468 91.8081 81.2254 91.3351 81.2254C90.9686 81.2254 90.6191 81.2786 90.2867 81.3852C89.9543 81.4917 89.639 81.6174 89.3407 81.7623L89.0146 80.9569C89.33 80.795 89.6922 80.6565 90.1013 80.5414C90.5105 80.4263 90.9409 80.3688 91.3926 80.3688ZM92.8117 84.038L91.7442 84.0828C90.8706 84.1169 90.2548 84.2596 89.8968 84.5111C89.5388 84.7625 89.3598 85.1183 89.3598 85.5786C89.3598 85.9792 89.4813 86.2754 89.7242 86.4671C89.9671 86.6589 90.2889 86.7548 90.6894 86.7548C91.3116 86.7548 91.8209 86.5822 92.2172 86.237C92.6136 85.8918 92.8117 85.374 92.8117 84.6837V84.038ZM101.71 86.7484C101.885 86.7484 102.064 86.7335 102.247 86.7037C102.43 86.6738 102.579 86.6376 102.694 86.595V87.4196C102.571 87.475 102.398 87.5219 102.177 87.5602C101.959 87.5986 101.746 87.6178 101.537 87.6178C101.167 87.6178 100.83 87.5539 100.527 87.426C100.225 87.2939 99.9819 87.0723 99.7986 86.7612C99.6196 86.4501 99.5301 86.0197 99.5301 85.4699V81.3149H98.5329V80.7971L99.5365 80.3816L99.9584 78.8602H100.598V80.4839H102.65V81.3149H100.598V85.438C100.598 85.8769 100.698 86.2051 100.898 86.4224C101.103 86.6397 101.373 86.7484 101.71 86.7484ZM105.175 80.4839V87.4899H104.113V80.4839H105.175ZM104.657 77.863C104.832 77.863 104.981 77.9205 105.104 78.0356C105.232 78.1464 105.296 78.3211 105.296 78.5597C105.296 78.7941 105.232 78.9689 105.104 79.0839C104.981 79.199 104.832 79.2565 104.657 79.2565C104.474 79.2565 104.32 79.199 104.197 79.0839C104.077 78.9689 104.018 78.7941 104.018 78.5597C104.018 78.3211 104.077 78.1464 104.197 78.0356C104.32 77.9205 104.474 77.863 104.657 77.863ZM115.032 80.356C115.803 80.356 116.385 80.5584 116.777 80.9633C117.169 81.3639 117.365 82.0095 117.365 82.9002V87.4899H116.317V82.9513C116.317 82.3845 116.193 81.9605 115.946 81.6792C115.703 81.3937 115.341 81.2509 114.859 81.2509C114.182 81.2509 113.689 81.447 113.382 81.839C113.076 82.2311 112.922 82.8086 112.922 83.5714V87.4899H111.867V82.9513C111.867 82.572 111.812 82.2567 111.701 82.0053C111.595 81.7538 111.433 81.5663 111.215 81.4427C111.002 81.3149 110.732 81.2509 110.404 81.2509C109.939 81.2509 109.566 81.3468 109.285 81.5386C109.004 81.7304 108.799 82.0159 108.671 82.3952C108.548 82.7702 108.486 83.2326 108.486 83.7823V87.4899H107.425V80.4839H108.281L108.441 81.4747H108.499C108.639 81.2318 108.816 81.0272 109.029 80.861C109.242 80.6948 109.481 80.5691 109.745 80.4839C110.009 80.3986 110.291 80.356 110.589 80.356C111.122 80.356 111.567 80.4562 111.925 80.6565C112.287 80.8525 112.549 81.1529 112.711 81.5578H112.769C112.999 81.1529 113.314 80.8525 113.715 80.6565C114.115 80.4562 114.554 80.356 115.032 80.356ZM122.242 80.356C122.839 80.356 123.35 80.4881 123.777 80.7523C124.203 81.0166 124.529 81.3873 124.755 81.8646C124.98 82.3377 125.093 82.8917 125.093 83.5266V84.1851H120.254C120.267 85.0075 120.472 85.634 120.868 86.0644C121.264 86.4948 121.823 86.7101 122.543 86.7101C122.986 86.7101 123.378 86.6696 123.719 86.5886C124.06 86.5076 124.414 86.3883 124.78 86.2306V87.1639C124.426 87.3216 124.075 87.4367 123.725 87.5091C123.38 87.5816 122.971 87.6178 122.498 87.6178C121.825 87.6178 121.237 87.4814 120.734 87.2087C120.235 86.9317 119.847 86.5268 119.57 85.9941C119.293 85.4614 119.155 84.8094 119.155 84.038C119.155 83.2837 119.281 82.6317 119.532 82.082C119.788 81.528 120.146 81.1018 120.606 80.8035C121.07 80.5052 121.616 80.356 122.242 80.356ZM122.23 81.2254C121.663 81.2254 121.211 81.4108 120.874 81.7815C120.538 82.1523 120.337 82.6701 120.273 83.3349H123.981C123.977 82.9172 123.911 82.5507 123.783 82.2354C123.659 81.9158 123.47 81.6686 123.214 81.4939C122.958 81.3149 122.63 81.2254 122.23 81.2254ZM137.904 80.356C138.675 80.356 139.257 80.5584 139.649 80.9633C140.041 81.3639 140.237 82.0095 140.237 82.9002V87.4899H139.189V82.9513C139.189 82.3845 139.065 81.9605 138.818 81.6792C138.575 81.3937 138.213 81.2509 137.731 81.2509C137.054 81.2509 136.561 81.447 136.254 81.839C135.948 82.2311 135.794 82.8086 135.794 83.5714V87.4899H134.739V82.9513C134.739 82.572 134.684 82.2567 134.573 82.0053C134.467 81.7538 134.305 81.5663 134.087 81.4427C133.874 81.3149 133.604 81.2509 133.276 81.2509C132.811 81.2509 132.438 81.3468 132.157 81.5386C131.876 81.7304 131.671 82.0159 131.543 82.3952C131.42 82.7702 131.358 83.2326 131.358 83.7823V87.4899H130.297V80.4839H131.153L131.313 81.4747H131.371C131.511 81.2318 131.688 81.0272 131.901 80.861C132.114 80.6948 132.353 80.5691 132.617 80.4839C132.881 80.3986 133.163 80.356 133.461 80.356C133.994 80.356 134.439 80.4562 134.797 80.6565C135.159 80.8525 135.421 81.1529 135.583 81.5578H135.641C135.871 81.1529 136.186 80.8525 136.587 80.6565C136.987 80.4562 137.426 80.356 137.904 80.356ZM145.038 80.3688C145.873 80.3688 146.493 80.5563 146.898 80.9313C147.303 81.3063 147.505 81.9051 147.505 82.7276V87.4899H146.732L146.527 86.4544H146.476C146.28 86.7101 146.075 86.9253 145.862 87.1C145.649 87.2705 145.402 87.4004 145.121 87.4899C144.844 87.5752 144.503 87.6178 144.098 87.6178C143.672 87.6178 143.293 87.5432 142.96 87.394C142.632 87.2449 142.372 87.019 142.18 86.7164C141.993 86.4139 141.899 86.0303 141.899 85.5658C141.899 84.8669 142.176 84.33 142.73 83.9549C143.284 83.5799 144.128 83.3754 145.261 83.3413L146.47 83.2901V82.8618C146.47 82.2567 146.34 81.8327 146.08 81.5897C145.82 81.3468 145.453 81.2254 144.98 81.2254C144.614 81.2254 144.264 81.2786 143.932 81.3852C143.599 81.4917 143.284 81.6174 142.986 81.7623L142.66 80.9569C142.975 80.795 143.337 80.6565 143.746 80.5414C144.155 80.4263 144.586 80.3688 145.038 80.3688ZM146.457 84.038L145.389 84.0828C144.516 84.1169 143.9 84.2596 143.542 84.5111C143.184 84.7625 143.005 85.1183 143.005 85.5786C143.005 85.9792 143.126 86.2754 143.369 86.4671C143.612 86.6589 143.934 86.7548 144.334 86.7548C144.957 86.7548 145.466 86.5822 145.862 86.237C146.259 85.8918 146.457 85.374 146.457 84.6837V84.038ZM152.498 87.6178C151.867 87.6178 151.311 87.4878 150.829 87.2278C150.348 86.9679 149.973 86.5716 149.704 86.0389C149.436 85.5062 149.301 84.835 149.301 84.0252C149.301 83.1772 149.442 82.4847 149.723 81.9477C150.009 81.4065 150.401 81.0059 150.899 80.7459C151.398 80.486 151.965 80.356 152.6 80.356C152.949 80.356 153.286 80.3922 153.61 80.4647C153.938 80.5329 154.206 80.6202 154.415 80.7268L154.096 81.6153C153.883 81.5301 153.635 81.4534 153.354 81.3852C153.077 81.317 152.817 81.2829 152.574 81.2829C152.088 81.2829 151.684 81.3873 151.36 81.5961C151.04 81.805 150.799 82.1118 150.637 82.5166C150.48 82.9215 150.401 83.4201 150.401 84.0125C150.401 84.5793 150.478 85.0629 150.631 85.4635C150.789 85.8641 151.021 86.171 151.328 86.384C151.639 86.5929 152.027 86.6973 152.491 86.6973C152.862 86.6973 153.196 86.6589 153.495 86.5822C153.793 86.5012 154.064 86.4075 154.307 86.3009V87.247C154.072 87.3663 153.81 87.458 153.52 87.5219C153.235 87.5858 152.894 87.6178 152.498 87.6178ZM157.03 77.5434V80.5158C157.03 80.6863 157.026 80.8589 157.017 81.0336C157.008 81.2041 156.994 81.3617 156.972 81.5066H157.043C157.187 81.2595 157.371 81.0528 157.592 80.8866C157.818 80.7161 158.074 80.5883 158.359 80.503C158.645 80.4135 158.947 80.3688 159.267 80.3688C159.83 80.3688 160.298 80.4583 160.673 80.6373C161.053 80.8163 161.336 81.0933 161.524 81.4683C161.715 81.8433 161.811 82.3291 161.811 82.9258V87.4899H160.763V82.9961C160.763 82.4122 160.629 81.9754 160.36 81.6856C160.096 81.3958 159.689 81.2509 159.139 81.2509C158.619 81.2509 158.204 81.3511 157.893 81.5514C157.586 81.7474 157.364 82.0372 157.228 82.4208C157.096 82.8043 157.03 83.2731 157.03 83.8271V87.4899H155.969V77.5434H157.03ZM165.059 80.4839V87.4899H163.997V80.4839H165.059ZM164.541 77.863C164.716 77.863 164.865 77.9205 164.988 78.0356C165.116 78.1464 165.18 78.3211 165.18 78.5597C165.18 78.7941 165.116 78.9689 164.988 79.0839C164.865 79.199 164.716 79.2565 164.541 79.2565C164.358 79.2565 164.204 79.199 164.081 79.0839C163.961 78.9689 163.902 78.7941 163.902 78.5597C163.902 78.3211 163.961 78.1464 164.081 78.0356C164.204 77.9205 164.358 77.863 164.541 77.863ZM170.626 80.356C171.457 80.356 172.086 80.5606 172.512 80.9697C172.938 81.3745 173.151 82.0266 173.151 82.9258V87.4899H172.103V82.9961C172.103 82.4122 171.969 81.9754 171.7 81.6856C171.436 81.3958 171.029 81.2509 170.479 81.2509C169.704 81.2509 169.158 81.4704 168.843 81.9094C168.528 82.3483 168.37 82.9854 168.37 83.8207V87.4899H167.309V80.4839H168.165L168.325 81.4939H168.383C168.532 81.2467 168.721 81.04 168.952 80.8738C169.182 80.7033 169.44 80.5755 169.725 80.4903C170.011 80.4008 170.311 80.356 170.626 80.356ZM178.035 80.356C178.632 80.356 179.143 80.4881 179.569 80.7523C179.996 81.0166 180.322 81.3873 180.547 81.8646C180.773 82.3377 180.886 82.8917 180.886 83.5266V84.1851H176.047C176.06 85.0075 176.265 85.634 176.661 86.0644C177.057 86.4948 177.615 86.7101 178.336 86.7101C178.779 86.7101 179.171 86.6696 179.512 86.5886C179.853 86.5076 180.206 86.3883 180.573 86.2306V87.1639C180.219 87.3216 179.868 87.4367 179.518 87.5091C179.173 87.5816 178.764 87.6178 178.291 87.6178C177.618 87.6178 177.029 87.4814 176.527 87.2087C176.028 86.9317 175.64 86.5268 175.363 85.9941C175.086 85.4614 174.948 84.8094 174.948 84.038C174.948 83.2837 175.073 82.6317 175.325 82.082C175.581 81.528 175.938 81.1018 176.399 80.8035C176.863 80.5052 177.409 80.356 178.035 80.356ZM178.022 81.2254C177.456 81.2254 177.004 81.4108 176.667 81.7815C176.331 82.1523 176.13 82.6701 176.066 83.3349H179.774C179.77 82.9172 179.704 82.5507 179.576 82.2354C179.452 81.9158 179.263 81.6686 179.007 81.4939C178.751 81.3149 178.423 81.2254 178.022 81.2254ZM185.495 83.9038C185.495 83.1836 185.563 82.4825 185.7 81.8007C185.84 81.1188 186.053 80.4689 186.339 79.851C186.624 79.2331 186.985 78.6642 187.419 78.1442H188.436C187.818 78.9539 187.353 79.8531 187.042 80.8418C186.731 81.8305 186.575 82.8469 186.575 83.891C186.575 84.5729 186.644 85.2462 186.78 85.911C186.921 86.5716 187.127 87.2087 187.4 87.8223C187.677 88.436 188.018 89.0156 188.423 89.5611H187.419C186.985 89.0497 186.624 88.4914 186.339 87.8863C186.053 87.2854 185.84 86.6483 185.7 85.9749C185.563 85.3016 185.495 84.6112 185.495 83.9038ZM195.736 80.4839V87.4899H194.866L194.713 86.5055H194.655C194.511 86.7484 194.323 86.953 194.093 87.1192C193.863 87.2854 193.603 87.409 193.313 87.4899C193.027 87.5752 192.723 87.6178 192.399 87.6178C191.845 87.6178 191.38 87.5283 191.005 87.3493C190.63 87.1703 190.347 86.8933 190.155 86.5183C189.968 86.1433 189.874 85.6617 189.874 85.0736V80.4839H190.948V84.9969C190.948 85.5807 191.08 86.0175 191.344 86.3073C191.608 86.5929 192.011 86.7356 192.552 86.7356C193.072 86.7356 193.486 86.6376 193.792 86.4416C194.104 86.2455 194.327 85.9579 194.464 85.5786C194.6 85.1951 194.668 84.7263 194.668 84.1723V80.4839H195.736ZM201.297 80.356C202.128 80.356 202.757 80.5606 203.183 80.9697C203.609 81.3745 203.822 82.0266 203.822 82.9258V87.4899H202.774V82.9961C202.774 82.4122 202.64 81.9754 202.371 81.6856C202.107 81.3958 201.7 81.2509 201.15 81.2509C200.374 81.2509 199.829 81.4704 199.514 81.9094C199.198 82.3483 199.041 82.9854 199.041 83.8207V87.4899H197.979V80.4839H198.836L198.996 81.4939H199.053C199.203 81.2467 199.392 81.04 199.622 80.8738C199.852 80.7033 200.11 80.5755 200.396 80.4903C200.681 80.4008 200.982 80.356 201.297 80.356ZM207.076 87.4899H206.008V77.5434H207.076V87.4899ZM212.017 80.356C212.614 80.356 213.125 80.4881 213.551 80.7523C213.978 81.0166 214.304 81.3873 214.529 81.8646C214.755 82.3377 214.868 82.8917 214.868 83.5266V84.1851H210.029C210.042 85.0075 210.246 85.634 210.643 86.0644C211.039 86.4948 211.597 86.7101 212.318 86.7101C212.761 86.7101 213.153 86.6696 213.494 86.5886C213.835 86.5076 214.188 86.3883 214.555 86.2306V87.1639C214.201 87.3216 213.85 87.4367 213.5 87.5091C213.155 87.5816 212.746 87.6178 212.273 87.6178C211.6 87.6178 211.011 87.4814 210.509 87.2087C210.01 86.9317 209.622 86.5268 209.345 85.9941C209.068 85.4614 208.93 84.8094 208.93 84.038C208.93 83.2837 209.055 82.6317 209.307 82.082C209.563 81.528 209.92 81.1018 210.381 80.8035C210.845 80.5052 211.391 80.356 212.017 80.356ZM212.004 81.2254C211.438 81.2254 210.986 81.4108 210.649 81.7815C210.313 82.1523 210.112 82.6701 210.048 83.3349H213.756C213.752 82.9172 213.686 82.5507 213.558 82.2354C213.434 81.9158 213.245 81.6686 212.989 81.4939C212.733 81.3149 212.405 81.2254 212.004 81.2254ZM221.203 85.5722C221.203 86.0197 221.09 86.3968 220.864 86.7037C220.643 87.0062 220.323 87.2342 219.905 87.3877C219.492 87.5411 218.998 87.6178 218.422 87.6178C217.932 87.6178 217.508 87.5794 217.15 87.5027C216.792 87.426 216.479 87.3173 216.211 87.1767V86.1987C216.496 86.3393 216.837 86.4671 217.233 86.5822C217.63 86.6973 218.035 86.7548 218.448 86.7548C219.053 86.7548 219.492 86.6568 219.765 86.4608C220.038 86.2647 220.174 85.9984 220.174 85.6617C220.174 85.4699 220.118 85.3016 220.008 85.1567C219.901 85.0075 219.72 84.8648 219.464 84.7284C219.209 84.5878 218.855 84.4344 218.403 84.2682C217.956 84.0977 217.568 83.9294 217.24 83.7632C216.916 83.5927 216.664 83.386 216.485 83.1431C216.311 82.9002 216.223 82.5848 216.223 82.197C216.223 81.6047 216.462 81.1508 216.939 80.8354C217.421 80.5158 218.052 80.356 218.831 80.356C219.253 80.356 219.648 80.3986 220.014 80.4839C220.385 80.5648 220.73 80.6756 221.05 80.8163L220.692 81.6665C220.402 81.5429 220.093 81.4385 219.765 81.3532C219.437 81.268 219.102 81.2254 218.761 81.2254C218.271 81.2254 217.894 81.3063 217.63 81.4683C217.37 81.6302 217.24 81.8518 217.24 82.1331C217.24 82.3504 217.299 82.5294 217.419 82.6701C217.542 82.8107 217.738 82.9428 218.007 83.0664C218.275 83.19 218.629 83.3349 219.068 83.5011C219.507 83.663 219.886 83.8313 220.206 84.0061C220.525 84.1765 220.771 84.3854 220.941 84.6325C221.116 84.8754 221.203 85.1887 221.203 85.5722ZM227.442 85.5722C227.442 86.0197 227.329 86.3968 227.103 86.7037C226.882 87.0062 226.562 87.2342 226.144 87.3877C225.731 87.5411 225.237 87.6178 224.661 87.6178C224.171 87.6178 223.747 87.5794 223.389 87.5027C223.031 87.426 222.718 87.3173 222.45 87.1767V86.1987C222.735 86.3393 223.076 86.4671 223.472 86.5822C223.869 86.6973 224.274 86.7548 224.687 86.7548C225.292 86.7548 225.731 86.6568 226.004 86.4608C226.277 86.2647 226.413 85.9984 226.413 85.6617C226.413 85.4699 226.357 85.3016 226.247 85.1567C226.14 85.0075 225.959 84.8648 225.703 84.7284C225.448 84.5878 225.094 84.4344 224.642 84.2682C224.195 84.0977 223.807 83.9294 223.479 83.7632C223.155 83.5927 222.903 83.386 222.724 83.1431C222.55 82.9002 222.462 82.5848 222.462 82.197C222.462 81.6047 222.701 81.1508 223.178 80.8354C223.66 80.5158 224.291 80.356 225.07 80.356C225.492 80.356 225.887 80.3986 226.253 80.4839C226.624 80.5648 226.969 80.6756 227.289 80.8163L226.931 81.6665C226.641 81.5429 226.332 81.4385 226.004 81.3532C225.676 81.268 225.341 81.2254 225 81.2254C224.51 81.2254 224.133 81.3063 223.869 81.4683C223.609 81.6302 223.479 81.8518 223.479 82.1331C223.479 82.3504 223.538 82.5294 223.658 82.6701C223.781 82.8107 223.977 82.9428 224.246 83.0664C224.514 83.19 224.868 83.3349 225.307 83.5011C225.746 83.663 226.125 83.8313 226.445 84.0061C226.764 84.1765 227.009 84.3854 227.18 84.6325C227.355 84.8754 227.442 85.1887 227.442 85.5722ZM235.17 80.3688C236.006 80.3688 236.626 80.5563 237.031 80.9313C237.436 81.3063 237.638 81.9051 237.638 82.7276V87.4899H236.864L236.66 86.4544H236.609C236.413 86.7101 236.208 86.9253 235.995 87.1C235.782 87.2705 235.535 87.4004 235.254 87.4899C234.977 87.5752 234.636 87.6178 234.231 87.6178C233.805 87.6178 233.425 87.5432 233.093 87.394C232.765 87.2449 232.505 87.019 232.313 86.7164C232.126 86.4139 232.032 86.0303 232.032 85.5658C232.032 84.8669 232.309 84.33 232.863 83.9549C233.417 83.5799 234.261 83.3754 235.394 83.3413L236.602 83.2901V82.8618C236.602 82.2567 236.472 81.8327 236.212 81.5897C235.952 81.3468 235.586 81.2254 235.113 81.2254C234.746 81.2254 234.397 81.2786 234.065 81.3852C233.732 81.4917 233.417 81.6174 233.119 81.7623L232.792 80.9569C233.108 80.795 233.47 80.6565 233.879 80.5414C234.288 80.4263 234.719 80.3688 235.17 80.3688ZM236.59 84.038L235.522 84.0828C234.648 84.1169 234.033 84.2596 233.675 84.5111C233.317 84.7625 233.138 85.1183 233.138 85.5786C233.138 85.9792 233.259 86.2754 233.502 86.4671C233.745 86.6589 234.067 86.7548 234.467 86.7548C235.089 86.7548 235.599 86.5822 235.995 86.237C236.391 85.8918 236.59 85.374 236.59 84.6837V84.038ZM244.356 85.5722C244.356 86.0197 244.243 86.3968 244.018 86.7037C243.796 87.0062 243.476 87.2342 243.059 87.3877C242.645 87.5411 242.151 87.6178 241.576 87.6178C241.086 87.6178 240.662 87.5794 240.304 87.5027C239.946 87.426 239.632 87.3173 239.364 87.1767V86.1987C239.649 86.3393 239.99 86.4671 240.387 86.5822C240.783 86.6973 241.188 86.7548 241.601 86.7548C242.206 86.7548 242.645 86.6568 242.918 86.4608C243.191 86.2647 243.327 85.9984 243.327 85.6617C243.327 85.4699 243.272 85.3016 243.161 85.1567C243.054 85.0075 242.873 84.8648 242.618 84.7284C242.362 84.5878 242.008 84.4344 241.556 84.2682C241.109 84.0977 240.721 83.9294 240.393 83.7632C240.069 83.5927 239.818 83.386 239.639 83.1431C239.464 82.9002 239.377 82.5848 239.377 82.197C239.377 81.6047 239.615 81.1508 240.093 80.8354C240.574 80.5158 241.205 80.356 241.985 80.356C242.407 80.356 242.801 80.3986 243.167 80.4839C243.538 80.5648 243.883 80.6756 244.203 80.8163L243.845 81.6665C243.555 81.5429 243.246 81.4385 242.918 81.3532C242.59 81.268 242.255 81.2254 241.914 81.2254C241.424 81.2254 241.047 81.3063 240.783 81.4683C240.523 81.6302 240.393 81.8518 240.393 82.1331C240.393 82.3504 240.453 82.5294 240.572 82.6701C240.696 82.8107 240.892 82.9428 241.16 83.0664C241.429 83.19 241.782 83.3349 242.221 83.5011C242.66 83.663 243.039 83.8313 243.359 84.0061C243.679 84.1765 243.924 84.3854 244.094 84.6325C244.269 84.8754 244.356 85.1887 244.356 85.5722ZM247.118 77.5434V82.7084C247.118 82.8789 247.111 83.0877 247.099 83.3349C247.086 83.5778 247.075 83.793 247.067 83.9805H247.111C247.201 83.8697 247.331 83.7056 247.501 83.4883C247.676 83.2709 247.823 83.0962 247.942 82.9641L250.269 80.4839H251.516L248.697 83.4755L251.72 87.4899H250.442L247.968 84.1723L247.118 84.9521V87.4899H246.063V77.5434H247.118ZM255.639 80.356C256.236 80.356 256.747 80.4881 257.173 80.7523C257.599 81.0166 257.925 81.3873 258.151 81.8646C258.377 82.3377 258.49 82.8917 258.49 83.5266V84.1851H253.651C253.664 85.0075 253.868 85.634 254.265 86.0644C254.661 86.4948 255.219 86.7101 255.939 86.7101C256.383 86.7101 256.775 86.6696 257.116 86.5886C257.456 86.5076 257.81 86.3883 258.177 86.2306V87.1639C257.823 87.3216 257.471 87.4367 257.122 87.5091C256.777 87.5816 256.368 87.6178 255.895 87.6178C255.221 87.6178 254.633 87.4814 254.13 87.2087C253.632 86.9317 253.244 86.5268 252.967 85.9941C252.69 85.4614 252.551 84.8094 252.551 84.038C252.551 83.2837 252.677 82.6317 252.929 82.082C253.184 81.528 253.542 81.1018 254.002 80.8035C254.467 80.5052 255.012 80.356 255.639 80.356ZM255.626 81.2254C255.059 81.2254 254.608 81.4108 254.271 81.7815C253.934 82.1523 253.734 82.6701 253.67 83.3349H257.378C257.373 82.9172 257.307 82.5507 257.179 82.2354C257.056 81.9158 256.866 81.6686 256.611 81.4939C256.355 81.3149 256.027 81.2254 255.626 81.2254ZM262.786 87.6178C261.899 87.6178 261.196 87.3152 260.676 86.7101C260.16 86.1049 259.903 85.2057 259.903 84.0125C259.903 82.8064 260.167 81.8966 260.695 81.2829C261.224 80.665 261.927 80.356 262.805 80.356C263.176 80.356 263.499 80.405 263.776 80.503C264.053 80.6011 264.292 80.7332 264.492 80.8994C264.693 81.0613 264.861 81.2467 264.997 81.4555H265.074C265.057 81.3234 265.04 81.1423 265.023 80.9122C265.006 80.682 264.997 80.4945 264.997 80.3496V77.5434H266.059V87.4899H265.202L265.042 86.4927H264.997C264.865 86.7015 264.697 86.8912 264.492 87.0616C264.292 87.2321 264.051 87.3685 263.77 87.4708C263.493 87.5688 263.165 87.6178 262.786 87.6178ZM262.952 86.7356C263.702 86.7356 264.232 86.5225 264.544 86.0964C264.855 85.6702 265.01 85.0374 265.01 84.1978V84.0061C265.01 83.1154 264.861 82.4314 264.563 81.9541C264.269 81.4768 263.732 81.2382 262.952 81.2382C262.3 81.2382 261.812 81.4896 261.488 81.9925C261.164 82.4911 261.002 83.1729 261.002 84.038C261.002 84.8989 261.162 85.5637 261.482 86.0325C261.805 86.5012 262.296 86.7356 262.952 86.7356ZM275.027 80.356C275.858 80.356 276.487 80.5606 276.913 80.9697C277.339 81.3745 277.552 82.0266 277.552 82.9258V87.4899H276.504V82.9961C276.504 82.4122 276.369 81.9754 276.101 81.6856C275.837 81.3958 275.43 81.2509 274.88 81.2509C274.104 81.2509 273.559 81.4704 273.244 81.9094C272.928 82.3483 272.771 82.9854 272.771 83.8207V87.4899H271.709V80.4839H272.566L272.726 81.4939H272.783C272.932 81.2467 273.122 81.04 273.352 80.8738C273.582 80.7033 273.84 80.5755 274.126 80.4903C274.411 80.4008 274.712 80.356 275.027 80.356ZM280.799 80.4839V87.4899H279.738V80.4839H280.799ZM280.282 77.863C280.456 77.863 280.606 77.9205 280.729 78.0356C280.857 78.1464 280.921 78.3211 280.921 78.5597C280.921 78.7941 280.857 78.9689 280.729 79.0839C280.606 79.199 280.456 79.2565 280.282 79.2565C280.098 79.2565 279.945 79.199 279.821 79.0839C279.702 78.9689 279.642 78.7941 279.642 78.5597C279.642 78.3211 279.702 78.1464 279.821 78.0356C279.945 77.9205 280.098 77.863 280.282 77.863ZM285.856 87.6178C285.225 87.6178 284.669 87.4878 284.187 87.2278C283.706 86.9679 283.331 86.5716 283.062 86.0389C282.794 85.5062 282.66 84.835 282.66 84.0252C282.66 83.1772 282.8 82.4847 283.081 81.9477C283.367 81.4065 283.759 81.0059 284.258 80.7459C284.756 80.486 285.323 80.356 285.958 80.356C286.308 80.356 286.644 80.3922 286.968 80.4647C287.296 80.5329 287.565 80.6202 287.774 80.7268L287.454 81.6153C287.241 81.5301 286.994 81.4534 286.712 81.3852C286.435 81.317 286.175 81.2829 285.933 81.2829C285.447 81.2829 285.042 81.3873 284.718 81.5961C284.398 81.805 284.158 82.1118 283.996 82.5166C283.838 82.9215 283.759 83.4201 283.759 84.0125C283.759 84.5793 283.836 85.0629 283.989 85.4635C284.147 85.8641 284.379 86.171 284.686 86.384C284.997 86.5929 285.385 86.6973 285.849 86.6973C286.22 86.6973 286.555 86.6589 286.853 86.5822C287.151 86.5012 287.422 86.4075 287.665 86.3009V87.247C287.43 87.3663 287.168 87.458 286.879 87.5219C286.593 87.5858 286.252 87.6178 285.856 87.6178ZM292.024 80.356C292.621 80.356 293.132 80.4881 293.559 80.7523C293.985 81.0166 294.311 81.3873 294.537 81.8646C294.763 82.3377 294.875 82.8917 294.875 83.5266V84.1851H290.036C290.049 85.0075 290.254 85.634 290.65 86.0644C291.046 86.4948 291.605 86.7101 292.325 86.7101C292.768 86.7101 293.16 86.6696 293.501 86.5886C293.842 86.5076 294.196 86.3883 294.562 86.2306V87.1639C294.209 87.3216 293.857 87.4367 293.507 87.5091C293.162 87.5816 292.753 87.6178 292.28 87.6178C291.607 87.6178 291.019 87.4814 290.516 87.2087C290.017 86.9317 289.629 86.5268 289.352 85.9941C289.075 85.4614 288.937 84.8094 288.937 84.038C288.937 83.2837 289.063 82.6317 289.314 82.082C289.57 81.528 289.928 81.1018 290.388 80.8035C290.853 80.5052 291.398 80.356 292.024 80.356ZM292.012 81.2254C291.445 81.2254 290.993 81.4108 290.656 81.7815C290.32 82.1523 290.12 82.6701 290.056 83.3349H293.763C293.759 82.9172 293.693 82.5507 293.565 82.2354C293.441 81.9158 293.252 81.6686 292.996 81.4939C292.74 81.3149 292.412 81.2254 292.012 81.2254ZM297.746 87.4899H296.678V77.5434H297.746V87.4899ZM298.884 80.4839H300.021L301.568 84.5494C301.658 84.7881 301.741 85.0182 301.818 85.2398C301.894 85.4571 301.963 85.666 302.022 85.8663C302.082 86.0666 302.129 86.2605 302.163 86.448H302.208C302.267 86.2349 302.352 85.9558 302.463 85.6106C302.574 85.2611 302.693 84.9053 302.821 84.543L304.285 80.4839H305.429L302.38 88.5191C302.218 88.9495 302.029 89.3245 301.811 89.6442C301.598 89.9638 301.338 90.2088 301.031 90.3793C300.725 90.554 300.354 90.6414 299.919 90.6414C299.719 90.6414 299.542 90.6286 299.389 90.603C299.235 90.5817 299.103 90.5562 298.992 90.5263V89.6761C299.086 89.6974 299.199 89.7166 299.331 89.7337C299.467 89.7507 299.608 89.7592 299.753 89.7592C300.017 89.7592 300.245 89.7081 300.437 89.6058C300.633 89.5078 300.801 89.3629 300.942 89.1711C301.082 88.9794 301.204 88.7514 301.306 88.4871L301.69 87.5027L298.884 80.4839ZM308.766 83.891C308.766 84.6027 308.696 85.2973 308.555 85.9749C308.419 86.6483 308.208 87.2875 307.922 87.8927C307.641 88.4978 307.281 89.0539 306.842 89.5611H305.838C306.248 89.0198 306.588 88.4403 306.861 87.8223C307.138 87.2044 307.345 86.5652 307.481 85.9046C307.622 85.2398 307.692 84.5665 307.692 83.8846C307.692 83.19 307.622 82.506 307.481 81.8327C307.341 81.1593 307.132 80.5116 306.855 79.8894C306.582 79.2672 306.239 78.6855 305.826 78.1442H306.842C307.281 78.6684 307.641 79.2395 307.922 79.8574C308.208 80.4711 308.419 81.1188 308.555 81.8007C308.696 82.4783 308.766 83.1751 308.766 83.891Z" fill="#F8FAFC"/>
<rect x="1.31098" y="1.23481" width="491.57" height="103.888" stroke="#D62833" stroke-width="0.844622"/>
</g>
<defs>
<clipPath id="clip0_1_255">
<rect width="492.414" height="104.733" fill="white" transform="translate(0.888672 0.8125)"/>
</clipPath>
<clipPath id="clip1_1_255">
<rect width="16.8924" height="16.8924" fill="white" transform="translate(14.4023 74.5437)"/>
</clipPath>
</defs>
</svg>
