<svg width="24" height="24" viewBox="0 0 24 24" fill="none" xmlns="http://www.w3.org/2000/svg">
<g clip-path="url(#clip0_6121_25437)">
<g clip-path="url(#clip1_6121_25437)">
<g clip-path="url(#clip2_6121_25437)">
<path d="M9.62808 6.37109C9.71872 6.35927 9.8108 6.36538 9.89908 6.38909L16.6251 8.19209C16.7157 8.2135 16.8012 8.25288 16.8763 8.30791C16.9515 8.36294 17.0148 8.4325 17.0626 8.51246C17.1104 8.59242 17.1416 8.68116 17.1545 8.77342C17.1674 8.86567 17.1616 8.95957 17.1375 9.04955C17.1134 9.13953 17.0714 9.22375 17.0142 9.29723C16.9569 9.37071 16.8855 9.43195 16.8042 9.47733C16.7228 9.5227 16.6332 9.55128 16.5406 9.56137C16.448 9.57147 16.3543 9.56287 16.2651 9.53609L9.53808 7.73509C9.38248 7.69318 9.24622 7.59864 9.15247 7.46757C9.05872 7.3365 9.01329 7.17699 9.0239 7.0162C9.03451 6.8554 9.10051 6.70325 9.21066 6.58563C9.32082 6.46802 9.46833 6.3922 9.62808 6.37109ZM8.60008 9.38409C8.75573 9.29095 8.94159 9.26224 9.11808 9.30409L15.8451 11.1061C15.9335 11.1297 16.0163 11.1705 16.0889 11.2262C16.1615 11.2819 16.2225 11.3513 16.2682 11.4305C16.314 11.5097 16.3438 11.5971 16.3557 11.6878C16.3677 11.7785 16.3617 11.8707 16.3381 11.9591C16.3144 12.0475 16.2736 12.1303 16.218 12.2029C16.1623 12.2755 16.0929 12.3365 16.0137 12.3823C15.9345 12.428 15.847 12.4578 15.7563 12.4697C15.6656 12.4817 15.5735 12.4757 15.4851 12.4521L8.75608 10.6491C8.62659 10.6103 8.5112 10.5347 8.42399 10.4314C8.33678 10.3281 8.28153 10.2017 8.26499 10.0675C8.24845 9.93338 8.27132 9.79732 8.33083 9.67595C8.39034 9.55458 8.4839 9.45317 8.60008 9.38409ZM7.80808 12.2891C7.68856 12.3578 7.59213 12.4605 7.53104 12.5841C7.46995 12.7077 7.44694 12.8466 7.46494 12.9833C7.48294 13.12 7.54113 13.2483 7.63213 13.3519C7.72313 13.4554 7.84284 13.5297 7.97608 13.5651L12.4611 14.7661C12.5494 14.7901 12.6416 14.7964 12.7324 14.7847C12.8231 14.7729 12.9107 14.7433 12.99 14.6976C13.0692 14.6519 13.1387 14.5909 13.1943 14.5182C13.2499 14.4455 13.2907 14.3626 13.3141 14.2741C13.3612 14.0956 13.3358 13.9058 13.2434 13.746C13.151 13.5862 12.9992 13.4694 12.8211 13.4211L8.33608 12.2191C8.15776 12.1716 7.96788 12.1968 7.80808 12.2891Z" fill="#F8FAFC" style="fill:#F8FAFC;fill:color(display-p3 0.9724 0.9787 0.9876);fill-opacity:1;"/>
<path fill-rule="evenodd" clip-rule="evenodd" d="M5.35303 18.8725L14.323 21.2745C14.9772 21.4495 15.6741 21.3575 16.2604 21.0189C16.8468 20.6802 17.2747 20.1225 17.45 19.4685L20.455 8.25647C20.5418 7.93256 20.564 7.59473 20.5202 7.26227C20.4764 6.92981 20.3675 6.60923 20.1998 6.31885C20.0321 6.02847 19.8088 5.77397 19.5427 5.5699C19.2766 5.36582 18.973 5.21616 18.649 5.12947L9.68003 2.72747C9.02602 2.55243 8.32926 2.64422 7.7429 2.98269C7.15654 3.32115 6.72856 3.87859 6.55303 4.53247L3.54803 15.7445C3.37269 16.3986 3.46433 17.0956 3.80282 17.6822C4.14131 18.2688 4.69893 18.697 5.35303 18.8725ZM4.86303 16.5575C4.84323 16.4063 4.85343 16.2527 4.89303 16.1055L7.89603 4.89047C7.93548 4.74332 8.00354 4.60538 8.0963 4.48453C8.18907 4.36368 8.30473 4.26228 8.43669 4.18614C8.56864 4.10999 8.7143 4.06059 8.86535 4.04074C9.01641 4.02089 9.16989 4.031 9.31703 4.07047L18.288 6.47347C18.4353 6.51293 18.5734 6.58101 18.6944 6.67382C18.8153 6.76664 18.9168 6.88238 18.9931 7.01442C19.0693 7.14647 19.1188 7.29224 19.1387 7.44341C19.1586 7.59458 19.1485 7.74819 19.109 7.89547L16.104 19.1105C16.0243 19.4074 15.83 19.6606 15.5638 19.8144C15.2975 19.9681 14.9811 20.0099 14.684 19.9305L5.71403 17.5265C5.4922 17.467 5.29298 17.3431 5.14151 17.1705C4.99005 16.9978 4.89314 16.7852 4.86303 16.5575Z" fill="#F8FAFC" style="fill:#F8FAFC;fill:color(display-p3 0.9724 0.9787 0.9876);fill-opacity:1;"/>
</g>
</g>
</g>
<defs>
<clipPath id="clip0_6121_25437">
<rect width="24" height="24" fill="white" style="fill:white;fill-opacity:1;"/>
</clipPath>
<clipPath id="clip1_6121_25437">
<rect width="24" height="24" fill="white" style="fill:white;fill-opacity:1;"/>
</clipPath>
<clipPath id="clip2_6121_25437">
<rect width="24" height="24" fill="white" style="fill:white;fill-opacity:1;"/>
</clipPath>
</defs>
</svg>
