<svg width="24" height="24" viewBox="0 0 24 24" fill="none" xmlns="http://www.w3.org/2000/svg">
<g clip-path="url(#clip0_6121_25429)">
<g clip-path="url(#clip1_6121_25429)">
<g clip-path="url(#clip2_6121_25429)">
<path d="M8.29 19.9997C15.837 19.9997 19.965 13.8447 19.965 8.50669C19.965 8.33169 19.965 8.15669 19.953 7.98469C20.7543 7.4142 21.4475 6.70545 22 5.89169C21.25 6.21885 20.4557 6.43317 19.643 6.52769C20.496 6.02721 21.1374 5.23298 21.447 4.29369C20.64 4.76459 19.7593 5.09591 18.842 5.27369C18.2197 4.62419 17.4022 4.19579 16.514 4.05369C15.6233 3.90926 14.7098 4.05806 13.911 4.47769C13.1177 4.89402 12.4839 5.56048 12.108 6.37369C11.7353 7.18224 11.6442 8.09229 11.849 8.95869C10.2198 8.87864 8.62483 8.46152 7.165 7.73369C5.7119 7.00992 4.42661 5.98966 3.392 4.73869C2.86762 5.62479 2.70636 6.67939 2.942 7.68169C3.18112 8.68765 3.79666 9.56373 4.662 10.1297C4.01021 10.1113 3.37207 9.9386 2.8 9.62569V9.67669C2.8 10.6097 3.128 11.5137 3.728 12.2347C4.33214 12.959 5.16667 13.454 6.092 13.6367C5.4874 13.7988 4.85399 13.8224 4.239 13.7057C4.50327 14.5115 5.01398 15.2139 5.699 15.7137C6.38939 16.2175 7.21848 16.4958 8.073 16.5107C7.21968 17.1701 6.24578 17.6566 5.206 17.9427C4.16307 18.2301 3.07426 18.3123 2 18.1847C3.88279 19.372 6.06411 20 8.29 19.9957" fill="#F8FAFC" style="fill:#F8FAFC;fill:color(display-p3 0.9724 0.9787 0.9876);fill-opacity:1;"/>
</g>
</g>
</g>
<defs>
<clipPath id="clip0_6121_25429">
<rect width="24" height="24" fill="white" style="fill:white;fill-opacity:1;"/>
</clipPath>
<clipPath id="clip1_6121_25429">
<rect width="24" height="24" fill="white" style="fill:white;fill-opacity:1;"/>
</clipPath>
<clipPath id="clip2_6121_25429">
<rect width="24" height="24" fill="white" style="fill:white;fill-opacity:1;"/>
</clipPath>
</defs>
</svg>
