<svg width="150" height="151" viewBox="0 0 150 151" fill="none" xmlns="http://www.w3.org/2000/svg">
<path d="M83.478 70.7348H59.9998M91.3041 61.6044H59.9998M91.3041 78.5609H59.9998M83.478 87.6914H59.9998M102.156 45.5087L94.0041 53.6609M45.6519 102.483L53.7911 94.3305M74.3476 34.2131V45.9522M74.3476 113.778V102.039M113.478 73.3435H103.043M33.9128 74.6479H45.6519M103.33 44.4783C103.82 44.9659 104.402 45.3512 105.043 45.6119C105.683 45.8726 106.369 46.0034 107.06 45.9967C107.752 45.99 108.435 45.846 109.07 45.5731C109.705 45.3001 110.28 44.9036 110.76 44.4067C111.241 43.9097 111.618 43.3222 111.87 42.6782C112.121 42.0343 112.242 41.3467 112.226 40.6555C112.209 39.9644 112.056 39.2834 111.774 38.6521C111.492 38.0208 111.087 37.4519 110.584 36.9783C109.585 36.0392 108.256 35.5311 106.886 35.5636C105.515 35.5962 104.213 36.167 103.26 37.1525C102.306 38.1379 101.78 39.459 101.793 40.8299C101.806 42.2008 102.358 43.5114 103.33 44.4783ZM45.365 102.196C44.8715 101.72 44.2892 101.346 43.6512 101.096C43.0133 100.845 42.3323 100.723 41.6471 100.736C40.9618 100.748 40.2858 100.896 39.6576 101.17C39.0293 101.444 38.4612 101.839 37.9856 102.332C37.51 102.825 37.1363 103.408 36.8858 104.046C36.6352 104.684 36.5128 105.365 36.5255 106.05C36.5381 106.735 36.6856 107.411 36.9595 108.039C37.2335 108.668 37.6284 109.236 38.1219 109.711C39.1186 110.672 40.4559 111.197 41.8398 111.172C43.2237 111.146 44.5408 110.572 45.5013 109.575C46.4618 108.578 46.987 107.241 46.9614 105.857C46.9359 104.473 46.3616 103.156 45.365 102.196ZM74.4389 32.9087C75.124 32.8966 75.8001 32.7496 76.4284 32.4762C77.0568 32.2027 77.6251 31.8082 78.101 31.3151C78.5769 30.822 78.951 30.2401 79.202 29.6024C79.4529 28.9647 79.5758 28.2839 79.5637 27.5987C79.5515 26.9136 79.4045 26.2375 79.1311 25.6092C78.8576 24.9808 78.4631 24.4125 77.97 23.9366C77.477 23.4607 76.895 23.0866 76.2573 22.8357C75.6197 22.5847 74.9388 22.4618 74.2537 22.474C72.8699 22.4985 71.5526 23.0718 70.5915 24.0676C69.6305 25.0634 69.1043 26.4002 69.1289 27.784C69.1534 29.1677 69.7267 30.485 70.7225 31.4461C71.7183 32.4072 73.0551 32.9333 74.4389 32.9087ZM74.2563 115.083C73.5651 115.085 72.8813 115.225 72.2447 115.494C71.608 115.764 71.0312 116.157 70.5478 116.651C70.0643 117.145 69.6838 117.73 69.4284 118.372C69.173 119.014 69.0477 119.701 69.0599 120.392C69.0721 121.083 69.2214 121.765 69.4994 122.398C69.7773 123.031 70.1781 123.602 70.6787 124.079C71.1793 124.555 71.7696 124.928 72.4153 125.174C73.0611 125.421 73.7493 125.537 74.4402 125.515C75.8108 125.472 77.1094 124.891 78.055 123.898C79.0006 122.905 79.5172 121.579 79.493 120.208C79.4689 118.837 78.9059 117.53 77.9259 116.571C76.9458 115.612 75.6276 115.077 74.2563 115.083ZM114.782 73.4348C114.785 74.126 114.925 74.8098 115.194 75.4464C115.463 76.0831 115.856 76.6599 116.35 77.1433C116.844 77.6268 117.429 78.0073 118.072 78.2627C118.714 78.5182 119.401 78.6434 120.092 78.6312C120.783 78.619 121.465 78.4697 122.097 78.1918C122.73 77.9139 123.302 77.513 123.778 77.0124C124.255 76.5118 124.627 75.9215 124.874 75.2758C125.12 74.6301 125.236 73.9418 125.215 73.2509C125.172 71.8803 124.591 70.5817 123.597 69.6361C122.604 68.6905 121.279 68.1739 119.908 68.1981C118.537 68.2222 117.23 68.7852 116.271 69.7653C115.312 70.7453 114.777 72.0635 114.782 73.4348ZM32.6085 74.5566C32.5963 73.8714 32.4493 73.1954 32.1759 72.567C31.9024 71.9387 31.5079 71.3703 31.0148 70.8944C30.5218 70.4186 29.9398 70.0445 29.3021 69.7935C28.6645 69.5425 27.9836 69.4196 27.2985 69.4318C26.6133 69.4439 25.9372 69.5909 25.3089 69.8644C24.6805 70.1378 24.1122 70.5323 23.6363 71.0254C23.1604 71.5185 22.7863 72.1005 22.5354 72.7381C22.2844 73.3758 22.1615 74.0566 22.1737 74.7418C22.1982 76.1255 22.7715 77.4428 23.7673 78.4039C24.7631 79.365 26.0999 79.8911 27.4837 79.8666C28.8674 79.842 30.1847 79.2688 31.1458 78.273C32.1069 77.2771 32.633 75.9403 32.6085 74.5566Z" stroke="white" stroke-width="2.08696" stroke-linecap="round" stroke-linejoin="round"/>
</svg>
