<svg width="150" height="150" viewBox="0 0 150 150" fill="none" xmlns="http://www.w3.org/2000/svg">
<path d="M106.956 51.5674V40.1739L98.178 31.3043H32.2563L23.478 40.0826V78.5217L32.2563 87.3913H78.0845" stroke="white" stroke-width="2.81922" stroke-linecap="round" stroke-linejoin="round"/>
<path fill-rule="evenodd" clip-rule="evenodd" d="M53.0363 93.9131L43.3359 114.634C43.2633 114.789 43.2219 114.957 43.2142 115.128C43.2065 115.299 43.2326 115.47 43.291 115.632C43.3493 115.793 43.4389 115.941 43.5545 116.067C43.67 116.194 43.8094 116.296 43.9646 116.369C44.1198 116.441 44.2878 116.483 44.4589 116.49C44.6301 116.498 44.8011 116.472 44.9622 116.414C45.1233 116.355 45.2713 116.266 45.3978 116.15C45.5243 116.035 45.6267 115.895 45.6994 115.74L55.9163 93.9131H53.0363Z" fill="white"/>
<path d="M107.146 85.8391C107.146 85.4932 107.008 85.1614 106.764 84.9168C106.519 84.6722 106.187 84.5347 105.841 84.5347C105.495 84.5347 105.164 84.6722 104.919 84.9168C104.674 85.1614 104.537 85.4932 104.537 85.8391H107.146ZM110.185 91.1608L109.831 92.4169C109.843 92.4201 109.854 92.4232 109.865 92.426L110.185 91.1608ZM120.085 93.6652L120.904 92.6491C120.758 92.5316 120.588 92.4471 120.406 92.4013L120.085 93.6652ZM125.159 115.187V116.491H127.767V115.187H125.159ZM90.2543 75.5739L91.5587 75.5804V75.5739H90.2543ZM112.141 70.1869L113.446 70.2287V70.1869H112.141ZM111.972 75.5869L110.669 75.5465V75.6091L111.972 75.5869ZM101.198 86.6478L101.189 87.9521H101.211L101.198 86.6478ZM74.25 115.187V116.491H76.8587V115.187H74.25ZM81.9326 93.6913L81.6157 92.426C81.4309 92.4725 81.2586 92.5589 81.1109 92.6791L81.9326 93.6913ZM91.8457 91.2L92.1639 92.4652C92.1876 92.4594 92.2111 92.4529 92.2343 92.4456L91.8457 91.2ZM97.063 85.8456C97.0613 85.4997 96.9222 85.1686 96.6764 84.9252C96.4306 84.6818 96.0981 84.5461 95.7522 84.5478C95.4062 84.5495 95.0752 84.6886 94.8318 84.9344C94.5884 85.1803 94.4526 85.5127 94.4543 85.8587L97.063 85.8456ZM116.876 108.261C116.876 107.915 116.739 107.583 116.494 107.339C116.249 107.094 115.918 106.956 115.572 106.956C115.226 106.956 114.894 107.094 114.649 107.339C114.405 107.583 114.267 107.915 114.267 108.261H116.876ZM114.267 115.187V116.491H116.876V115.187H114.267ZM85.4152 115.187V116.491H88.0239V115.187H85.4152ZM88.0239 108.261C88.0239 107.915 87.8865 107.583 87.6419 107.339C87.3973 107.094 87.0655 106.956 86.7196 106.956C86.3736 106.956 86.0419 107.094 85.7973 107.339C85.5526 107.583 85.4152 107.915 85.4152 108.261H88.0239ZM104.537 85.8391C104.537 88.423 105.933 90.1004 107.229 91.0773C107.992 91.6476 108.842 92.0912 109.747 92.3908L109.801 92.4078L109.82 92.413C109.823 92.4137 109.826 92.4146 109.829 92.4156L110.185 91.1608L110.541 89.906H110.543L110.545 89.9074C110.506 89.8958 110.467 89.8827 110.429 89.8682C109.845 89.6594 109.295 89.3648 108.798 88.9943C107.924 88.3343 107.146 87.3508 107.146 85.8391H104.537ZM109.865 92.426L119.765 94.9304L120.404 92.4L110.504 89.8956L109.865 92.426ZM119.267 94.6826C120.519 95.6895 122.052 97.1204 123.258 98.5421C123.862 99.253 124.359 99.9326 124.698 100.534C125.054 101.165 125.159 101.573 125.159 101.778H127.767C127.767 100.9 127.402 100.017 126.97 99.2517C126.52 98.4561 125.913 97.6382 125.247 96.8543C123.917 95.2852 122.26 93.7408 120.904 92.6491L119.267 94.6826ZM125.159 101.778V115.187H127.767V101.778H125.159ZM91.5587 75.5739V70.1869H88.95V75.5739H91.5587ZM91.5587 70.1869C91.5587 67.6304 92.5761 65.1782 94.3826 63.3717L92.5383 61.5274C91.401 62.6647 90.4988 64.015 89.8834 65.501C89.2679 66.9871 88.9512 68.5798 88.9513 70.1882H91.56L91.5587 70.1869ZM94.3826 63.3717C96.19 61.5639 98.6415 60.5481 101.198 60.5478V57.9391C99.5894 57.939 97.9967 58.2557 96.5106 58.8712C95.0246 59.4866 93.6743 60.3887 92.537 61.526L94.3826 63.3717ZM101.198 60.5478C103.754 60.5478 106.207 61.5639 108.014 63.3717L109.859 61.5274C108.721 60.3901 107.371 59.4879 105.885 58.8725C104.399 58.257 102.806 57.9403 101.198 57.9404V60.5491V60.5478ZM108.014 63.3717C109.822 65.1793 110.837 67.6308 110.837 70.1869H113.446C113.446 68.5785 113.129 66.9858 112.514 65.4997C111.898 64.0137 110.996 62.6634 109.859 61.526L108.014 63.3717ZM110.838 70.1465L110.669 75.5465L113.276 75.6287L113.446 70.2287L110.838 70.1465ZM110.669 75.6091C110.69 76.872 110.46 78.1265 109.994 79.3004L112.42 80.263C113.013 78.7691 113.303 77.1728 113.276 75.566L110.669 75.6091ZM109.994 79.3004C109.529 80.4743 108.835 81.5452 107.954 82.4504L109.822 84.2713C110.944 83.1196 111.828 81.7573 112.42 80.263L109.994 79.3004ZM107.954 82.4504C107.073 83.3555 106.021 84.0772 104.859 84.5739L105.884 86.9726C107.363 86.3408 108.7 85.4227 109.822 84.2713L107.954 82.4504ZM104.859 84.5739C103.698 85.0695 102.45 85.3317 101.186 85.3434L101.211 87.9521C102.818 87.9371 104.406 87.6042 105.884 86.9726L104.859 84.5739ZM101.207 85.3434C98.6339 85.3252 96.1731 84.2871 94.3643 82.4569L92.5096 84.2908C94.8038 86.6122 97.925 87.9289 101.189 87.9521L101.207 85.3434ZM94.3643 82.4569C92.556 80.6264 91.5462 78.1534 91.5587 75.5804L88.9513 75.5674C88.9355 78.8316 90.2152 81.9689 92.5096 84.2908L94.3643 82.4569ZM76.8587 115.187L76.86 101.804H74.2513L74.25 115.187H76.8587ZM76.86 101.804C76.86 101.602 76.9643 101.194 77.323 100.563C77.6635 99.9613 78.163 99.2804 78.7696 98.5682C79.9787 97.1465 81.5126 95.7143 82.7557 94.7034L81.1109 92.6791C79.7713 93.7682 78.1161 95.31 76.7817 96.8791C76.1165 97.6617 75.5048 98.4808 75.0535 99.2752C74.6204 100.04 74.2513 100.923 74.2513 101.804H76.86ZM82.2509 94.9565L92.1639 92.4652L91.5287 89.9347L81.6157 92.426L82.2509 94.9565ZM92.2343 92.4456C93.6403 92.0076 94.8684 91.1298 95.7378 89.9413L93.6326 88.4021C93.0927 89.139 92.3306 89.6831 91.4583 89.9543L92.2343 92.4456ZM95.7378 89.9413C96.6067 88.7531 97.0712 87.3175 97.063 85.8456L94.4543 85.8587C94.46 86.7726 94.172 87.6643 93.6326 88.4021L95.7378 89.9413ZM114.267 108.261V115.187H116.876V108.261H114.267ZM88.0239 115.187V108.261H85.4152V115.187H88.0239Z" fill="white"/>
<mask id="mask0_3327_7731" style="mask-type:luminance" maskUnits="userSpaceOnUse" x="37" y="48" width="22" height="29">
<path fill-rule="evenodd" clip-rule="evenodd" d="M52.8995 68.5097C55.0078 67.4637 56.7005 65.7358 57.7029 63.6066C58.7053 61.4773 58.9584 59.0717 58.4213 56.7804C57.8841 54.4891 56.5882 52.4467 54.7439 50.9848C52.8997 49.5228 50.6154 48.7273 48.2619 48.7273C45.9085 48.7273 43.6242 49.5228 41.7799 50.9848C39.9357 52.4467 38.6397 54.4891 38.1026 56.7804C37.5654 59.0717 37.8186 61.4773 38.821 63.6066C39.8234 65.7358 41.5161 67.4637 43.6243 68.5097V73.6514L45.9422 76.5497H50.5804L52.8995 73.6514V68.5097Z" fill="white"/>
</mask>
<g mask="url(#mask0_3327_7731)">
<path d="M52.8995 68.5096L51.7386 66.1735L50.2908 66.8922V68.5096H52.8995ZM43.6243 68.5096H46.233V66.8922L44.7852 66.1735L43.6243 68.5096ZM43.6243 73.6514H41.0156V74.567L41.5869 75.2818L43.6243 73.6514ZM45.9421 76.5496L43.9047 78.1801L44.6886 79.1583H45.9421V76.5496ZM50.5804 76.5496V79.1583H51.8339L52.6165 78.1801L50.5804 76.5496ZM52.8995 73.6514L54.9356 75.2818L55.5082 74.567V73.6514H52.8995ZM56.0873 59.1601C56.0878 60.6181 55.6809 62.0473 54.9125 63.2866C54.1442 64.5258 53.0449 65.5257 51.7386 66.1735L54.0604 70.8457C56.2365 69.7656 58.0677 68.0992 59.3476 66.0343C60.6276 63.9695 61.3054 61.5882 61.3047 59.1588L56.0873 59.1601ZM48.2613 51.334C50.3369 51.334 52.3275 52.1585 53.7951 53.6262C55.2628 55.0939 56.0873 57.0844 56.0873 59.1601L61.3047 59.1588C61.3047 51.9535 55.4652 46.1166 48.2613 46.1166V51.334ZM40.4352 59.1601C40.4352 57.0844 41.2597 55.0939 42.7274 53.6262C44.195 52.1585 46.1856 51.334 48.2613 51.334V46.1166C41.0573 46.1166 35.2178 51.9548 35.2178 59.1601H40.4352ZM44.7852 66.1735C43.4787 65.5256 42.378 64.5255 41.6096 63.286C40.8413 62.0465 40.4345 60.6184 40.4352 59.1601H35.2178C35.2171 61.5895 35.895 63.9695 37.1749 66.0343C38.4548 68.0992 40.286 69.7656 42.4621 70.8457L44.7852 66.1735ZM46.2317 73.6514L46.233 68.5096H41.0143L41.0156 73.6514H46.2317ZM47.9795 74.9205L45.6604 72.0222L41.5869 75.2818L43.9047 78.1801L47.9795 74.9205ZM48.2613 73.9422H45.9421V79.1583L48.2613 79.1596V73.9422ZM50.5804 73.9422H48.2613V79.1596L50.5804 79.1583V73.9422ZM50.8621 72.0222L48.543 74.9205L52.6165 78.1801L54.9356 75.2818L50.8621 72.0222ZM50.2908 68.5096V73.6514H55.5082V68.5096H50.2908Z" fill="white"/>
</g>
<path d="M53.4785 59.8825C53.4785 58.4988 52.9288 57.1717 51.9503 56.1933C50.9719 55.2148 49.6448 54.6652 48.2611 54.6652M61.5941 58.5782H63.9132M32.6089 58.5782H34.928M57.6889 49.1517L59.3285 47.5108M37.1937 47.5108L38.8332 49.1504M48.2611 42.926V45.2452" stroke="white" stroke-width="2.81922" stroke-linecap="round"/>
<path d="M44.2031 70.3173H52.3188" stroke="white" stroke-width="2.81922"/>
<path d="M97.8262 49.4478H71.7393M88.6958 55.9695H71.7393M81.6784 63.7956L74.8436 70.6304L71.7393 67.526" stroke="white" stroke-width="2.81922" stroke-linecap="round" stroke-linejoin="round"/>
</svg>
