<svg width="150" height="150" viewBox="0 0 150 150" fill="none" xmlns="http://www.w3.org/2000/svg">
<path d="M82.174 91.3045H103.044M74.348 82.174V96.7305L60.9784 110.87H45.6523V90.0001H37.2393L40.4349 74.4653C39.4479 71.2312 38.9468 67.8684 38.948 64.4871C38.948 44.9218 55.4219 29.1001 75.7306 29.1001C96.0393 29.1001 112.474 44.9479 112.474 64.4871C112.477 70.673 110.804 76.7443 107.635 82.0566V82.174H82.174M82.174 97.8262H103.044M82.174 104.348H103.044M82.174 110.87H103.044M78.261 61.3044H74.348V67.8262C74.348 67.8262 67.1088 67.8262 67.1088 60.7175C67.1034 59.3589 67.4483 58.0218 68.1102 56.8352C68.7721 55.6487 69.7287 54.6529 70.8876 53.9437C72.0465 53.2346 73.3686 52.8362 74.7264 52.7869C76.0841 52.7376 77.4317 53.0391 78.6389 53.6624C79.8462 54.2856 80.8725 55.2095 81.6186 56.3449C82.3648 57.4803 82.8058 58.7889 82.8989 60.1443C82.992 61.4998 82.7341 62.8564 82.1502 64.0831C81.5663 65.3099 80.6761 66.3655 79.5653 67.1479" stroke="white" stroke-width="2.08696" stroke-linecap="round" stroke-linejoin="round"/>
</svg>
