<svg width="150" height="150" viewBox="0 0 150 150" fill="none" xmlns="http://www.w3.org/2000/svg">
<path d="M76.9565 67.8261V55.7087L85.8261 46.9565H96.7826L105.652 55.8V67.8261" stroke="white" stroke-width="2.08696" stroke-linejoin="round"/>
<path d="M39.1304 84.8479C39.1304 85.8857 39.5426 86.881 40.2765 87.6148C41.0103 88.3486 42.0056 88.7609 43.0434 88.7609C44.0812 88.7609 45.0765 88.3486 45.8104 87.6148C46.5442 86.881 46.9565 85.8857 46.9565 84.8479C46.9565 83.8101 46.5442 82.8148 45.8104 82.0809C45.0765 81.3471 44.0812 80.9348 43.0434 80.9348C42.0056 80.9348 41.0103 81.3471 40.2765 82.0809C39.5426 82.8148 39.1304 83.8101 39.1304 84.8479ZM99.1304 84.8479C99.1304 85.8857 99.5426 86.881 100.276 87.6148C101.01 88.3486 102.006 88.7609 103.043 88.7609C104.081 88.7609 105.077 88.3486 105.81 87.6148C106.544 86.881 106.956 85.8857 106.956 84.8479C106.956 83.8101 106.544 82.8148 105.81 82.0809C105.077 81.3471 104.081 80.9348 103.043 80.9348C102.006 80.9348 101.01 81.3471 100.276 82.0809C99.5426 82.8148 99.1304 83.8101 99.1304 84.8479Z" stroke="white" stroke-width="2.08696" stroke-linecap="round" stroke-linejoin="round"/>
<path d="M106.004 95.2175L114.782 86.6609V82.9957L106.004 74.3479H40.0825L31.3042 82.9044V86.5566L40.0825 95.2175H106.004Z" stroke="white" stroke-width="2.08696" stroke-linecap="round" stroke-linejoin="round"/>
<path d="M92.6088 109.565C92.6088 109.911 92.7462 110.243 92.9908 110.487C93.2354 110.732 93.5672 110.869 93.9131 110.869C94.259 110.869 94.5908 110.732 94.8354 110.487C95.08 110.243 95.2175 109.911 95.2175 109.565H92.6088ZM95.2175 103.043V101.739H92.6088V103.043H95.2175ZM50.8696 109.565C50.8696 109.911 51.007 110.243 51.2517 110.487C51.4963 110.732 51.828 110.869 52.174 110.869C52.5199 110.869 52.8517 110.732 53.0963 110.487C53.3409 110.243 53.4783 109.911 53.4783 109.565H50.8696ZM53.4783 103.043V101.739H50.8696V103.043H53.4783ZM95.2175 109.565V103.043H92.6088V109.565H95.2175ZM53.4783 109.565V103.043H50.8696V109.565H53.4783Z" fill="white"/>
<path d="M87.3912 43.0435V36.5217H95.2173V43.0435M48.2607 67.8261C48.2607 66.7883 48.673 65.793 49.4068 65.0591C50.1407 64.3253 51.136 63.913 52.1738 63.913C53.2116 63.913 54.2069 64.3253 54.9407 65.0591C55.6746 65.793 56.0868 66.7883 56.0868 67.8261" stroke="white" stroke-width="2.08696" stroke-linejoin="round"/>
<path d="M40.4349 67.8261V65.5826L37.8262 63.9131L39.4436 60L42.5218 60.7566C43.5001 59.7887 44.5475 58.8913 45.6523 58.0696L44.8436 54.7826L48.7566 53.2305L50.4001 56.2305C51.6399 56.0301 52.9038 56.0301 54.1436 56.2305L56.0349 53.3218L59.8697 54.9783L58.9566 58.2C60.0887 58.9974 61.073 59.9862 61.8653 61.1218L65.1262 60.3652L66.6783 64.2783L63.7957 65.9218C63.887 66.5518 63.9262 67.1896 63.9131 67.8261" stroke="white" stroke-width="2.08696" stroke-linejoin="round"/>
</svg>
