<svg width="1248" height="724" viewBox="0 0 1248 724" fill="none" xmlns="http://www.w3.org/2000/svg">
<g clip-path="url(#clip0_88_114)">
<mask id="mask0_88_114" style="mask-type:luminance" maskUnits="userSpaceOnUse" x="0" y="0" width="1248" height="724">
<path d="M1248 0H0V724H1248V0Z" fill="white"/>
</mask>
<g mask="url(#mask0_88_114)">
<mask id="mask1_88_114" style="mask-type:luminance" maskUnits="userSpaceOnUse" x="24" y="24" width="1200" height="676">
<path d="M1224 24H24V700H1224V24Z" fill="white"/>
</mask>
<g mask="url(#mask1_88_114)">
<mask id="mask2_88_114" style="mask-type:luminance" maskUnits="userSpaceOnUse" x="24" y="24" width="1200" height="676">
<path d="M1224 24H24V700H1224V24Z" fill="white"/>
</mask>
<g mask="url(#mask2_88_114)">
<path d="M24.5 24H23.5V700H24.5V24Z" fill="white" fill-opacity="0.09"/>
<path d="M49.5 24H48.5V700H49.5V24Z" fill="white" fill-opacity="0.09"/>
<path d="M74.5 24H73.5V700H74.5V24Z" fill="white" fill-opacity="0.09"/>
<path d="M99.5 24H98.5V700H99.5V24Z" fill="white" fill-opacity="0.09"/>
<path d="M124.5 24H123.5V700H124.5V24Z" fill="white" fill-opacity="0.09"/>
<path d="M149.5 24H148.5V700H149.5V24Z" fill="white" fill-opacity="0.09"/>
<path d="M174.5 24H173.5V700H174.5V24Z" fill="white" fill-opacity="0.09"/>
<path d="M199.5 24H198.5V700H199.5V24Z" fill="white" fill-opacity="0.09"/>
<path d="M224.5 24H223.5V700H224.5V24Z" fill="white" fill-opacity="0.09"/>
<path d="M249.5 24H248.5V700H249.5V24Z" fill="white" fill-opacity="0.09"/>
<path d="M274.5 24H273.5V700H274.5V24Z" fill="white" fill-opacity="0.09"/>
<path d="M299.5 24H298.5V700H299.5V24Z" fill="white" fill-opacity="0.09"/>
<path d="M324.5 24H323.5V700H324.5V24Z" fill="white" fill-opacity="0.09"/>
<path d="M349.5 24H348.5V700H349.5V24Z" fill="white" fill-opacity="0.09"/>
<path d="M374.5 24H373.5V700H374.5V24Z" fill="white" fill-opacity="0.09"/>
<path d="M399.5 24H398.5V700H399.5V24Z" fill="white" fill-opacity="0.09"/>
<path d="M424.5 24H423.5V700H424.5V24Z" fill="white" fill-opacity="0.09"/>
<path d="M449.5 24H448.5V700H449.5V24Z" fill="white" fill-opacity="0.09"/>
<path d="M474.5 24H473.5V700H474.5V24Z" fill="white" fill-opacity="0.09"/>
<path d="M499.5 24H498.5V700H499.5V24Z" fill="white" fill-opacity="0.09"/>
<path d="M524.5 24H523.5V700H524.5V24Z" fill="white" fill-opacity="0.09"/>
<path d="M549.5 24H548.5V700H549.5V24Z" fill="white" fill-opacity="0.09"/>
<path d="M574.5 24H573.5V700H574.5V24Z" fill="white" fill-opacity="0.09"/>
<path d="M599.5 24H598.5V700H599.5V24Z" fill="white" fill-opacity="0.09"/>
<path d="M624.5 24H623.5V700H624.5V24Z" fill="white" fill-opacity="0.09"/>
<path d="M649.5 24H648.5V700H649.5V24Z" fill="white" fill-opacity="0.09"/>
<path d="M674.5 24H673.5V700H674.5V24Z" fill="white" fill-opacity="0.09"/>
<path d="M699.5 24H698.5V700H699.5V24Z" fill="white" fill-opacity="0.09"/>
<path d="M724.5 24H723.5V700H724.5V24Z" fill="white" fill-opacity="0.09"/>
<path d="M749.5 24H748.5V700H749.5V24Z" fill="white" fill-opacity="0.09"/>
<path d="M774.5 24H773.5V700H774.5V24Z" fill="white" fill-opacity="0.09"/>
<path d="M799.5 24H798.5V700H799.5V24Z" fill="white" fill-opacity="0.09"/>
<path d="M824.5 24H823.5V700H824.5V24Z" fill="white" fill-opacity="0.09"/>
<path d="M849.5 24H848.5V700H849.5V24Z" fill="white" fill-opacity="0.09"/>
<path d="M874.5 24H873.5V700H874.5V24Z" fill="white" fill-opacity="0.09"/>
<path d="M899.5 24H898.5V700H899.5V24Z" fill="white" fill-opacity="0.09"/>
<path d="M924.5 24H923.5V700H924.5V24Z" fill="white" fill-opacity="0.09"/>
<path d="M949.5 24H948.5V700H949.5V24Z" fill="white" fill-opacity="0.09"/>
<path d="M974.5 24H973.5V700H974.5V24Z" fill="white" fill-opacity="0.09"/>
<path d="M999.5 24H998.5V700H999.5V24Z" fill="white" fill-opacity="0.09"/>
<path d="M1024.5 24H1023.5V700H1024.5V24Z" fill="white" fill-opacity="0.09"/>
<path d="M1049.5 24H1048.5V700H1049.5V24Z" fill="white" fill-opacity="0.09"/>
<path d="M1074.5 24H1073.5V700H1074.5V24Z" fill="white" fill-opacity="0.09"/>
<path d="M1099.5 24H1098.5V700H1099.5V24Z" fill="white" fill-opacity="0.09"/>
<path d="M1124.5 24H1123.5V700H1124.5V24Z" fill="white" fill-opacity="0.09"/>
<path d="M1149.5 24H1148.5V700H1149.5V24Z" fill="white" fill-opacity="0.09"/>
<path d="M1174.5 24H1173.5V700H1174.5V24Z" fill="white" fill-opacity="0.09"/>
<path d="M1199.5 24H1198.5V700H1199.5V24Z" fill="white" fill-opacity="0.09"/>
<path d="M1224.5 24H1223.5V700H1224.5V24Z" fill="white" fill-opacity="0.09"/>
<path d="M1223.5 24.5H24.5V699.5H1223.5V24.5Z" stroke="white" stroke-opacity="0.09"/>
</g>
<mask id="mask3_88_114" style="mask-type:luminance" maskUnits="userSpaceOnUse" x="24" y="24" width="1200" height="676">
<path d="M1224 24H24V700H1224V24Z" fill="white"/>
</mask>
<g mask="url(#mask3_88_114)">
<path d="M1224 24H24V25H1224V24Z" fill="white" fill-opacity="0.09"/>
<path d="M1224 49H24V50H1224V49Z" fill="white" fill-opacity="0.09"/>
<path d="M1224 74H24V75H1224V74Z" fill="white" fill-opacity="0.09"/>
<path d="M1224 99H24V100H1224V99Z" fill="white" fill-opacity="0.09"/>
<path d="M1224 124H24V125H1224V124Z" fill="white" fill-opacity="0.09"/>
<path d="M1224 149H24V150H1224V149Z" fill="white" fill-opacity="0.09"/>
<path d="M1224 174H24V175H1224V174Z" fill="white" fill-opacity="0.09"/>
<path d="M1224 199H24V200H1224V199Z" fill="white" fill-opacity="0.09"/>
<path d="M1224 224H24V225H1224V224Z" fill="white" fill-opacity="0.09"/>
<path d="M1224 249H24V250H1224V249Z" fill="white" fill-opacity="0.09"/>
<path d="M1224 274H24V275H1224V274Z" fill="white" fill-opacity="0.09"/>
<path d="M1224 299H24V300H1224V299Z" fill="white" fill-opacity="0.09"/>
<path d="M1224 324H24V325H1224V324Z" fill="white" fill-opacity="0.09"/>
<path d="M1224 349H24V350H1224V349Z" fill="white" fill-opacity="0.09"/>
<path d="M1224 374H24V375H1224V374Z" fill="white" fill-opacity="0.09"/>
<path d="M1224 399H24V400H1224V399Z" fill="white" fill-opacity="0.09"/>
<path d="M1224 424H24V425H1224V424Z" fill="white" fill-opacity="0.09"/>
<path d="M1224 449H24V450H1224V449Z" fill="white" fill-opacity="0.09"/>
<path d="M1224 474H24V475H1224V474Z" fill="white" fill-opacity="0.09"/>
<path d="M1224 499H24V500H1224V499Z" fill="white" fill-opacity="0.09"/>
<path d="M1224 524H24V525H1224V524Z" fill="white" fill-opacity="0.09"/>
<path d="M1224 549H24V550H1224V549Z" fill="white" fill-opacity="0.09"/>
<path d="M1224 574H24V575H1224V574Z" fill="white" fill-opacity="0.09"/>
<path d="M1224 599H24V600H1224V599Z" fill="white" fill-opacity="0.09"/>
<path d="M1224 624H24V625H1224V624Z" fill="white" fill-opacity="0.09"/>
<path d="M1224 649H24V650H1224V649Z" fill="white" fill-opacity="0.09"/>
<path d="M1224 674H24V675H1224V674Z" fill="white" fill-opacity="0.09"/>
<path d="M1223.5 24.5H24.5V699.5H1223.5V24.5Z" stroke="white" stroke-opacity="0.09"/>
</g>
</g>
<mask id="mask4_88_114" style="mask-type:luminance" maskUnits="userSpaceOnUse" x="17" y="17" width="15" height="15">
<path d="M32 17H17V32H32V17Z" fill="white"/>
</mask>
<g mask="url(#mask4_88_114)">
<path d="M32 24H17V25H32V24Z" fill="white" fill-opacity="0.09"/>
<path d="M25 17H24V32H25V17Z" fill="white" fill-opacity="0.09"/>
</g>
<mask id="mask5_88_114" style="mask-type:luminance" maskUnits="userSpaceOnUse" x="17" y="692" width="15" height="15">
<path d="M32 692H17V707H32V692Z" fill="white"/>
</mask>
<g mask="url(#mask5_88_114)">
<path d="M32 699H17V700H32V699Z" fill="white" fill-opacity="0.09"/>
<path d="M25 692H24V707H25V692Z" fill="white" fill-opacity="0.09"/>
</g>
<mask id="mask6_88_114" style="mask-type:luminance" maskUnits="userSpaceOnUse" x="1216" y="17" width="15" height="15">
<path d="M1231 17H1216V32H1231V17Z" fill="white"/>
</mask>
<g mask="url(#mask6_88_114)">
<path d="M1231 24H1216V25H1231V24Z" fill="white" fill-opacity="0.09"/>
<path d="M1224 17H1223V32H1224V17Z" fill="white" fill-opacity="0.09"/>
</g>
<mask id="mask7_88_114" style="mask-type:luminance" maskUnits="userSpaceOnUse" x="1216" y="692" width="15" height="15">
<path d="M1231 692H1216V707H1231V692Z" fill="white"/>
</mask>
<g mask="url(#mask7_88_114)">
<path d="M1231 699H1216V700H1231V699Z" fill="white" fill-opacity="0.09"/>
<path d="M1224 692H1223V707H1224V692Z" fill="white" fill-opacity="0.09"/>
</g>
<path d="M1247.5 0.5H0.5V723.5H1247.5V0.5Z" stroke="white" stroke-opacity="0.09"/>
</g>
</g>
<defs>
<clipPath id="clip0_88_114">
<rect width="1248" height="724" fill="white"/>
</clipPath>
</defs>
</svg>
